<svg width="115" height="49" viewBox="0 0 115 49" fill="none" xmlns="http://www.w3.org/2000/svg">
<g filter="url(#filter0_i_15_1483)">
<rect x="1" y="1" width="113" height="47" rx="23.5" fill="url(#paint0_radial_15_1483)"/>
<rect x="0.5" y="0.5" width="114" height="48" rx="24" stroke="url(#paint1_linear_15_1483)"/>
<path d="M20.376 30.154C17.492 30.154 15.574 28.082 15.574 24.946C15.574 21.824 17.548 19.71 20.446 19.71C22.728 19.71 24.478 21.068 24.856 23.14H23.386C23.008 21.824 21.874 21.026 20.404 21.026C18.36 21.026 17.016 22.566 17.016 24.932C17.016 27.298 18.36 28.838 20.404 28.838C21.888 28.838 23.064 28.04 23.442 26.794H24.898C24.464 28.81 22.658 30.154 20.376 30.154ZM25.8509 26.57C25.8509 24.456 27.3629 22.972 29.4209 22.972C31.4649 22.972 32.9769 24.456 32.9769 26.57C32.9769 28.684 31.4649 30.168 29.4209 30.168C27.3629 30.168 25.8509 28.684 25.8509 26.57ZM27.1809 26.57C27.1809 27.998 28.0909 28.992 29.4209 28.992C30.7369 28.992 31.6609 27.998 31.6609 26.57C31.6609 25.142 30.7369 24.148 29.4209 24.148C28.0909 24.148 27.1809 25.142 27.1809 26.57ZM35.7203 30H34.4043V19.696H35.7203V30ZM38.9441 30H37.6281V19.696H38.9441V30ZM42.826 30.168C41.356 30.168 40.488 29.342 40.488 28.096C40.488 26.836 41.426 26.052 43.036 25.926L45.192 25.758V25.562C45.192 24.414 44.506 24.008 43.582 24.008C42.476 24.008 41.846 24.498 41.846 25.324H40.698C40.698 23.896 41.874 22.958 43.638 22.958C45.332 22.958 46.48 23.854 46.48 25.702V30H45.36L45.22 28.894C44.87 29.678 43.932 30.168 42.826 30.168ZM43.204 29.146C44.45 29.146 45.206 28.334 45.206 27.046V26.682L43.456 26.822C42.294 26.934 41.818 27.382 41.818 28.054C41.818 28.782 42.35 29.146 43.204 29.146ZM49.4351 30H48.2451V19.696H49.5611V24.33C50.0091 23.434 50.9331 22.958 52.0531 22.958C54.0131 22.958 55.1891 24.498 55.1891 26.612C55.1891 28.684 53.9571 30.168 51.9691 30.168C50.8911 30.168 49.9811 29.692 49.5331 28.754L49.4351 30ZM49.5751 26.556C49.5751 27.984 50.3871 28.978 51.7311 28.978C53.0751 28.978 53.8731 27.97 53.8731 26.556C53.8731 25.156 53.0751 24.148 51.7311 24.148C50.3871 24.148 49.5751 25.156 49.5751 26.556ZM56.1342 26.57C56.1342 24.456 57.6462 22.972 59.7042 22.972C61.7482 22.972 63.2602 24.456 63.2602 26.57C63.2602 28.684 61.7482 30.168 59.7042 30.168C57.6462 30.168 56.1342 28.684 56.1342 26.57ZM57.4642 26.57C57.4642 27.998 58.3742 28.992 59.7042 28.992C61.0202 28.992 61.9442 27.998 61.9442 26.57C61.9442 25.142 61.0202 24.148 59.7042 24.148C58.3742 24.148 57.4642 25.142 57.4642 26.57ZM68.5796 23.098V24.302H67.9916C66.7456 24.302 65.9756 25.058 65.9756 26.374V30H64.6596V23.168H65.8916L65.9756 24.204C66.2556 23.49 66.9416 23.014 67.8796 23.014C68.1176 23.014 68.3136 23.042 68.5796 23.098ZM71.485 30.168C70.015 30.168 69.147 29.342 69.147 28.096C69.147 26.836 70.085 26.052 71.695 25.926L73.851 25.758V25.562C73.851 24.414 73.165 24.008 72.241 24.008C71.135 24.008 70.505 24.498 70.505 25.324H69.357C69.357 23.896 70.533 22.958 72.297 22.958C73.991 22.958 75.139 23.854 75.139 25.702V30H74.019L73.879 28.894C73.529 29.678 72.591 30.168 71.485 30.168ZM71.863 29.146C73.109 29.146 73.865 28.334 73.865 27.046V26.682L72.115 26.822C70.953 26.934 70.477 27.382 70.477 28.054C70.477 28.782 71.009 29.146 71.863 29.146ZM78.7268 30H77.4108V24.26H76.0668V23.154H77.4108V21.012H78.7268V23.154H80.0708V24.26H78.7268V30ZM81.8384 21.53C81.3624 21.53 80.9704 21.138 80.9704 20.662C80.9704 20.172 81.3624 19.794 81.8384 19.794C82.3144 19.794 82.7064 20.172 82.7064 20.662C82.7064 21.138 82.3144 21.53 81.8384 21.53ZM81.1944 30V23.154H82.5104V30H81.1944ZM83.9156 26.57C83.9156 24.456 85.4276 22.972 87.4856 22.972C89.5296 22.972 91.0416 24.456 91.0416 26.57C91.0416 28.684 89.5296 30.168 87.4856 30.168C85.4276 30.168 83.9156 28.684 83.9156 26.57ZM85.2456 26.57C85.2456 27.998 86.1556 28.992 87.4856 28.992C88.8016 28.992 89.7256 27.998 89.7256 26.57C89.7256 25.142 88.8016 24.148 87.4856 24.148C86.1556 24.148 85.2456 25.142 85.2456 26.57ZM93.7569 30H92.4409V23.154H93.6309L93.7709 24.204C94.2049 23.42 95.0729 22.958 96.0389 22.958C97.8449 22.958 98.6709 24.064 98.6709 25.814V30H97.3549V26.108C97.3549 24.722 96.7109 24.162 95.7029 24.162C94.4709 24.162 93.7569 25.044 93.7569 26.374V30Z" fill="white"/>
</g>
<defs>
<filter id="filter0_i_15_1483" x="0" y="0" width="115" height="51" filterUnits="userSpaceOnUse" color-interpolation-filters="sRGB">
<feFlood flood-opacity="0" result="BackgroundImageFix"/>
<feBlend mode="normal" in="SourceGraphic" in2="BackgroundImageFix" result="shape"/>
<feColorMatrix in="SourceAlpha" type="matrix" values="0 0 0 0 0 0 0 0 0 0 0 0 0 0 0 0 0 0 127 0" result="hardAlpha"/>
<feOffset dy="2"/>
<feGaussianBlur stdDeviation="8"/>
<feComposite in2="hardAlpha" operator="arithmetic" k2="-1" k3="1"/>
<feColorMatrix type="matrix" values="0 0 0 0 0.581378 0 0 0 0 0.625593 0 0 0 0 0.846667 0 0 0 0.4 0"/>
<feBlend mode="normal" in2="shape" result="effect1_innerShadow_15_1483"/>
</filter>
<radialGradient id="paint0_radial_15_1483" cx="0" cy="0" r="1" gradientUnits="userSpaceOnUse" gradientTransform="translate(57.5 24.5) rotate(90) scale(36.5 87.7553)">
<stop offset="0.159" stop-color="#12131A"/>
<stop offset="0.509" stop-color="#191D32"/>
<stop offset="1" stop-color="#272E4D"/>
</radialGradient>
<linearGradient id="paint1_linear_15_1483" x1="52" y1="1" x2="70.5" y2="48" gradientUnits="userSpaceOnUse">
<stop offset="0.1" stop-color="#0D0F15"/>
<stop offset="0.444" stop-color="#9A56FF"/>
<stop offset="0.5" stop-color="#E5D3FF"/>
<stop offset="0.6" stop-color="#9A56FF"/>
<stop offset="0.9" stop-color="#0D0F15"/>
</linearGradient>
</defs>
</svg>
