<svg width="182" height="82" viewBox="0 0 182 82" fill="none" xmlns="http://www.w3.org/2000/svg">
<mask id="path-1-inside-1_6_1465" fill="white">
<path d="M6.30053 7.90973C6.82868 3.54131 10.7981 0.428151 15.1666 0.956303L173.361 20.0824C177.73 20.6105 180.843 24.58 180.315 28.9484L177.764 50.041L3.75039 29.0023L6.30053 7.90973Z"/>
</mask>
<path d="M6.30053 7.90973C6.82868 3.54131 10.7981 0.428151 15.1666 0.956303L173.361 20.0824C177.73 20.6105 180.843 24.58 180.315 28.9484L177.764 50.041L3.75039 29.0023L6.30053 7.90973Z" fill="url(#paint0_radial_6_1465)"/>
<path d="M7.25684 0L181.271 21.0387L7.25684 0ZM177.701 50.5683L3.68664 29.5296L3.81415 28.475L177.828 49.5137L177.701 50.5683ZM3.75039 29.0023L7.25684 0L3.75039 29.0023ZM181.271 21.0387L177.764 50.041L181.271 21.0387Z" fill="#303030" mask="url(#path-1-inside-1_6_1465)"/>
<path d="M16.3046 18.8289L17.058 12.597L21.0504 13.0796L20.9359 14.026L18.0726 13.6798L17.868 15.3717L20.4575 15.6847L20.3431 16.6311L17.7536 16.318L17.4335 18.9653L16.3046 18.8289ZM21.2416 19.4258L21.8067 14.7518L22.9082 14.885L22.3431 19.5589L21.2416 19.4258ZM22.4407 14.1554C22.2662 14.1343 22.1231 14.0584 22.0113 13.9275C21.8998 13.7947 21.8539 13.6461 21.8738 13.4818C21.8939 13.3154 21.9738 13.182 22.1136 13.0816C22.2536 12.9791 22.4108 12.9385 22.5853 12.9596C22.7618 12.9809 22.9048 13.0579 23.0143 13.1905C23.1261 13.3213 23.1719 13.4699 23.1518 13.6363C23.132 13.8006 23.052 13.934 22.912 14.0364C22.7743 14.1371 22.6172 14.1768 22.4407 14.1554ZM25.2957 13.5929L24.5423 19.8248L23.4407 19.6916L24.1942 13.4597L25.2957 13.5929ZM27.4949 13.8588L26.7414 20.0907L25.6399 19.9575L26.3933 13.7256L27.4949 13.8588Z" fill="white"/>
<g clip-path="url(#clip0_6_1465)">
<rect x="156.585" y="26.0796" width="13.2789" height="13.2789" rx="3.31972" transform="rotate(6.89372 156.585 26.0796)" fill="#2C2C2C"/>
<path d="M159.304 33.0953L165.456 33.8391" stroke="white" stroke-width="0.929521" stroke-linecap="round" stroke-linejoin="round"/>
</g>
<g filter="url(#filter0_i_6_1465)">
<path d="M3.75049 29.0023L177.764 50.041L174.97 73.1516C174.442 77.52 170.473 80.6331 166.104 80.105L7.9098 60.9789C3.54137 60.4508 0.428219 56.4813 0.95637 52.1129L3.75049 29.0023Z" fill="url(#paint1_radial_6_1465)"/>
<path d="M20.5774 45.8568L19.701 45.7509C19.69 45.5596 19.6472 45.3872 19.5726 45.2338C19.4981 45.0804 19.4003 44.946 19.2794 44.8307C19.1584 44.7154 19.0186 44.6225 18.8599 44.552C18.7031 44.4817 18.533 44.4355 18.3494 44.4133C18.018 44.3733 17.7111 44.4207 17.4288 44.5557C17.1484 44.6908 16.9129 44.9103 16.7222 45.2141C16.5335 45.518 16.411 45.9022 16.3549 46.3666C16.2983 46.8347 16.3254 47.2389 16.4363 47.5791C16.549 47.9195 16.7265 48.188 16.9688 48.3845C17.211 48.5809 17.496 48.699 17.8237 48.7386C18.0053 48.7606 18.1805 48.7571 18.3493 48.7281C18.5202 48.6974 18.678 48.6415 18.8228 48.5602C18.9675 48.4789 19.0942 48.3735 19.2029 48.2442C19.3138 48.1132 19.3981 47.9581 19.4558 47.7789L20.3319 47.8876C20.2509 48.1647 20.1286 48.4141 19.965 48.6356C19.8035 48.8554 19.6075 49.0388 19.3769 49.1858C19.1485 49.331 18.8947 49.4343 18.6156 49.4955C18.3365 49.5568 18.0387 49.5683 17.7223 49.53C17.2242 49.4698 16.7946 49.2982 16.4337 49.0151C16.0729 48.7302 15.8069 48.3532 15.6356 47.8841C15.4662 47.4153 15.4185 46.8747 15.4926 46.2624C15.5668 45.6481 15.7429 45.1346 16.0208 44.7217C16.299 44.307 16.647 44.0052 17.0651 43.8163C17.4833 43.6256 17.9406 43.5602 18.4368 43.6202C18.742 43.6571 19.0213 43.7355 19.2747 43.8555C19.5302 43.9737 19.7536 44.1299 19.9448 44.3241C20.1362 44.5163 20.2866 44.7416 20.396 44.9999C20.5056 45.2563 20.5661 45.542 20.5774 45.8568ZM22.8536 50.159C22.4491 50.1101 22.1074 49.9747 21.8283 49.7529C21.5492 49.531 21.3465 49.2434 21.2201 48.8899C21.0938 48.5364 21.0575 48.1369 21.1114 47.6912C21.1655 47.2437 21.2962 46.8624 21.5034 46.5473C21.7105 46.2323 21.9761 46.0003 22.3 45.8514C22.6239 45.7024 22.9881 45.6524 23.3925 45.7013C23.797 45.7502 24.1388 45.8856 24.4179 46.1074C24.6969 46.3293 24.8995 46.6178 25.0257 46.9732C25.1518 47.3285 25.1878 47.73 25.1337 48.1775C25.0798 48.6232 24.9494 49.0026 24.7424 49.3158C24.5355 49.6289 24.2701 49.86 23.9462 50.0089C23.6223 50.1579 23.2581 50.2079 22.8536 50.159ZM22.9416 49.4543C23.2038 49.486 23.4294 49.443 23.6184 49.3252C23.8075 49.2075 23.9571 49.0384 24.0673 48.8181C24.1795 48.5979 24.2523 48.3493 24.2858 48.0721C24.319 47.7969 24.3075 47.539 24.2511 47.2985C24.1967 47.0563 24.0919 46.8546 23.9366 46.6933C23.7813 46.5321 23.5726 46.4356 23.3105 46.4039C23.0464 46.372 22.8188 46.4157 22.6277 46.5351C22.4385 46.6547 22.2877 46.8255 22.1753 47.0475C22.0651 47.2679 21.9933 47.5157 21.96 47.791C21.9265 48.0681 21.9371 48.3268 21.9916 48.5671C22.048 48.8076 22.154 49.0076 22.3095 49.167C22.4669 49.3266 22.6776 49.4224 22.9416 49.4543ZM27.3156 44.7735L26.6201 50.526L25.7803 50.4245L26.4758 44.6719L27.3156 44.7735ZM29.5244 50.9655C29.1199 50.9166 28.7781 50.7812 28.4991 50.5594C28.22 50.3375 28.0173 50.0499 27.8909 49.6964C27.7645 49.343 27.7283 48.9434 27.7822 48.4977C27.8363 48.0502 27.9669 47.6689 28.1741 47.3538C28.3813 47.0388 28.6469 46.8068 28.9708 46.6579C29.2946 46.5089 29.6588 46.4589 30.0633 46.5078C30.4678 46.5567 30.8096 46.6921 31.0886 46.9139C31.3677 47.1358 31.5703 47.4244 31.6964 47.7797C31.8226 48.135 31.8586 48.5365 31.8045 48.984C31.7506 49.4297 31.6202 49.8091 31.4132 50.1223C31.2063 50.4354 30.9408 50.6665 30.6169 50.8154C30.293 50.9644 29.9288 51.0144 29.5244 50.9655ZM29.6124 50.2608C29.8746 50.2925 30.1002 50.2495 30.2892 50.1317C30.4782 50.014 30.6279 49.8449 30.7381 49.6246C30.8502 49.4044 30.923 49.1558 30.9565 48.8787C30.9898 48.6034 30.9782 48.3455 30.9218 48.105C30.8675 47.8628 30.7627 47.6611 30.6074 47.4998C30.4521 47.3386 30.2434 47.2421 29.9812 47.2104C29.7172 47.1785 29.4896 47.2222 29.2985 47.3416C29.1092 47.4612 28.9584 47.632 28.8461 47.854C28.7358 48.0744 28.6641 48.3222 28.6308 48.5975C28.5973 48.8746 28.6078 49.1333 28.6624 49.3736C28.7188 49.6141 28.8248 49.8141 28.9803 49.9735C29.1377 50.1331 29.3484 50.2289 29.6124 50.2608ZM32.4511 51.231L32.9727 46.9166L33.7844 47.0147L33.7016 47.7001L33.7465 47.7055C33.8532 47.4828 34.0139 47.317 34.2284 47.208C34.4451 47.0974 34.6798 47.0574 34.9326 47.088C34.9851 47.0943 35.0466 47.1037 35.1173 47.116C35.1899 47.1286 35.2465 47.1402 35.287 47.1508L35.1899 47.9541C35.1573 47.9407 35.0986 47.9231 35.0138 47.9015C34.9293 47.878 34.8439 47.861 34.7578 47.8506C34.5593 47.8266 34.3773 47.8473 34.2116 47.9128C34.0481 47.9766 33.9125 48.0771 33.8047 48.2141C33.6972 48.3493 33.6321 48.5106 33.6094 48.6978L33.2909 51.3325L32.4511 51.231Z" fill="#AAAAAA"/>
<rect x="68.8291" y="44.9164" width="15.2707" height="15.2707" rx="2.65578" transform="rotate(6.89372 68.8291 44.9164)" fill="url(#paint2_linear_6_1465)"/>
<rect x="89.2649" y="47.3666" width="40.6231" height="15.3116" rx="2.65578" transform="rotate(6.89372 89.2649 47.3666)" fill="#2C2C2C"/>
<path d="M95.7213 58.9604C95.2981 58.9092 94.9515 58.7505 94.6817 58.4842C94.412 58.216 94.2251 57.8523 94.121 57.3933C94.0172 56.9323 94.003 56.3891 94.0786 55.7637C94.1538 55.142 94.2966 54.6206 94.5071 54.1996C94.7197 53.7769 94.9889 53.4675 95.3148 53.2713C95.6427 53.0734 96.0163 52.9999 96.4358 53.0506C96.8553 53.1013 97.1997 53.2617 97.4691 53.5318C97.7407 53.8002 97.9284 54.1649 98.0323 54.6258C98.1382 55.0851 98.1536 55.6256 98.0785 56.2473C98.0028 56.8727 97.8597 57.3969 97.6489 57.8198C97.4384 58.2408 97.1703 58.5495 96.8445 58.7457C96.5189 58.94 96.1445 59.0116 95.7213 58.9604ZM95.796 58.3425C96.2155 58.3932 96.5657 58.2303 96.8468 57.8539C97.1279 57.4775 97.3138 56.9148 97.4043 56.1658C97.4646 55.6677 97.4625 55.2371 97.3981 54.874C97.3355 54.5112 97.2161 54.226 97.0398 54.0185C96.8654 53.8112 96.6396 53.6908 96.3625 53.6573C95.9467 53.607 95.5971 53.7728 95.3134 54.1546C95.03 54.5345 94.8431 55.098 94.7528 55.8452C94.6926 56.3433 94.6938 56.7728 94.7566 57.1338C94.8193 57.4948 94.938 57.778 95.1127 57.9834C95.2892 58.189 95.517 58.3087 95.796 58.3425ZM100.632 59.5542C100.209 59.503 99.8627 59.3443 99.5928 59.0779C99.3231 58.8097 99.1363 58.4461 99.0322 57.987C98.9283 57.5261 98.9142 56.9829 98.9898 56.3575C99.065 55.7358 99.2078 55.2144 99.4183 54.7934C99.6309 54.3707 99.9001 54.0613 100.226 53.865C100.554 53.6672 100.927 53.5936 101.347 53.6443C101.766 53.6951 102.111 53.8555 102.38 54.1255C102.652 54.3939 102.84 54.7586 102.943 55.2196C103.049 55.6789 103.065 56.2194 102.99 56.8411C102.914 57.4665 102.771 57.9907 102.56 58.4136C102.35 58.8346 102.081 59.1432 101.756 59.3394C101.43 59.5338 101.056 59.6053 100.632 59.5542ZM100.707 58.9362C101.127 58.9869 101.477 58.8241 101.758 58.4477C102.039 58.0713 102.225 57.5086 102.315 56.7595C102.376 56.2614 102.374 55.8309 102.309 55.4678C102.247 55.1049 102.127 54.8198 101.951 54.6122C101.777 54.405 101.551 54.2846 101.274 54.2511C100.858 54.2008 100.508 54.3666 100.225 54.7484C99.9411 55.1283 99.7543 55.6918 99.6639 56.439C99.6037 56.9371 99.605 57.3666 99.6677 57.7276C99.7305 58.0886 99.8492 58.3718 100.024 58.5772C100.2 58.7828 100.428 58.9025 100.707 58.9362ZM106.213 54.2327C106.449 54.2631 106.679 54.3365 106.905 54.4531C107.13 54.5696 107.328 54.7417 107.498 54.9694C107.668 55.1952 107.791 55.4903 107.867 55.8547C107.942 56.2191 107.948 56.6654 107.884 57.1934C107.823 57.7047 107.719 58.1529 107.574 58.5381C107.43 58.9216 107.251 59.2382 107.037 59.4878C106.824 59.7376 106.58 59.9171 106.305 60.0263C106.031 60.1357 105.733 60.1708 105.409 60.1316C105.087 60.0927 104.807 59.9943 104.57 59.8364C104.334 59.6768 104.15 59.4731 104.016 59.2252C103.885 58.9756 103.815 58.6964 103.807 58.3876L104.492 58.4705C104.522 58.742 104.619 58.975 104.781 59.1695C104.946 59.3623 105.18 59.477 105.483 59.5137C105.927 59.5673 106.301 59.4159 106.604 59.0593C106.91 58.7029 107.105 58.1708 107.191 57.463L107.146 57.4575C107.022 57.6021 106.881 57.7228 106.723 57.8196C106.565 57.9164 106.394 57.9851 106.211 58.0256C106.027 58.0661 105.836 58.0744 105.638 58.0504C105.308 58.0105 105.015 57.8925 104.76 57.6963C104.506 57.4985 104.315 57.2463 104.184 56.9399C104.056 56.6318 104.015 56.2924 104.06 55.9217C104.102 55.5696 104.22 55.257 104.412 54.9839C104.607 54.7092 104.858 54.5021 105.166 54.3625C105.475 54.2233 105.824 54.18 106.213 54.2327ZM106.138 54.8506C105.903 54.8221 105.683 54.8554 105.479 54.9505C105.278 55.044 105.11 55.1833 104.976 55.3684C104.843 55.5519 104.763 55.7635 104.734 56.0032C104.705 56.2428 104.731 56.4673 104.812 56.6766C104.895 56.8843 105.021 57.0573 105.191 57.1955C105.362 57.3322 105.566 57.4148 105.802 57.4433C105.98 57.4648 106.15 57.4502 106.312 57.3995C106.474 57.3469 106.62 57.2666 106.749 57.1587C106.88 57.0492 106.987 56.9206 107.072 56.7731C107.156 56.6238 107.209 56.4639 107.229 56.2935C107.257 56.0688 107.228 55.8515 107.143 55.6418C107.06 55.4323 106.931 55.2552 106.757 55.1106C106.584 54.9663 106.378 54.8796 106.138 54.8506ZM111.117 54.8255C111.352 54.8559 111.583 54.9294 111.808 55.0459C112.033 55.1625 112.231 55.3346 112.401 55.5622C112.571 55.788 112.694 56.0831 112.77 56.4475C112.846 56.812 112.852 57.2582 112.788 57.7863C112.726 58.2975 112.622 58.7457 112.477 59.1309C112.334 59.5145 112.155 59.831 111.94 60.0806C111.728 60.3304 111.484 60.5099 111.208 60.6191C110.935 60.7285 110.636 60.7636 110.312 60.7245C109.99 60.6855 109.71 60.5871 109.473 60.4292C109.238 60.2697 109.053 60.0659 108.92 59.818C108.789 59.5684 108.719 59.2893 108.711 58.9805L109.396 59.0633C109.426 59.3348 109.522 59.5678 109.685 59.7623C109.849 59.9551 110.084 60.0699 110.387 60.1065C110.831 60.1602 111.204 60.0087 111.508 59.6521C111.813 59.2957 112.008 58.7636 112.094 58.0558L112.049 58.0504C111.925 58.195 111.784 58.3157 111.626 58.4125C111.468 58.5093 111.297 58.5779 111.114 58.6184C110.931 58.6589 110.74 58.6672 110.541 58.6432C110.211 58.6034 109.919 58.4853 109.663 58.2891C109.41 58.0913 109.218 57.8392 109.088 57.5327C108.96 57.2247 108.918 56.8853 108.963 56.5145C109.006 56.1624 109.123 55.8499 109.316 55.5768C109.511 55.302 109.762 55.0949 110.069 54.9554C110.379 54.8161 110.728 54.7728 111.117 54.8255ZM111.042 55.4435C110.806 55.4149 110.586 55.4482 110.383 55.5433C110.182 55.6368 110.014 55.7761 109.879 55.9612C109.747 56.1447 109.666 56.3563 109.637 56.596C109.608 56.8357 109.634 57.0602 109.715 57.2695C109.799 57.4771 109.925 57.6501 110.094 57.7884C110.266 57.925 110.47 58.0076 110.706 58.0361C110.884 58.0576 111.053 58.043 111.215 57.9923C111.378 57.9397 111.523 57.8595 111.652 57.7516C111.783 57.642 111.891 57.5135 111.975 57.366C112.06 57.2166 112.112 57.0567 112.133 56.8863C112.16 56.6616 112.131 56.4444 112.046 56.2346C111.963 56.0251 111.835 55.8481 111.66 55.7035C111.488 55.5591 111.282 55.4724 111.042 55.4435ZM113.585 61.0403L114.28 55.2878L117.73 55.7048L117.655 56.3228L114.902 55.99L114.667 57.9337L117.161 58.2353L117.087 58.8532L114.592 58.5516L114.281 61.1246L113.585 61.0403ZM118.195 61.5977L118.89 55.8452L122.339 56.2622L122.265 56.8801L119.512 56.5473L119.277 58.491L121.771 58.7926L121.697 59.4106L119.202 59.109L118.891 61.6819L118.195 61.5977Z" fill="white"/>
<rect x="134.868" y="52.88" width="31.6231" height="15.3116" rx="2.65578" transform="rotate(6.89372 134.868 52.88)" fill="#2C2C2C"/>
<path d="M142.175 58.6601L141.48 64.4126L140.783 64.3284L141.39 59.3062L141.357 59.3021L139.839 60.0648L139.925 59.357L141.479 58.5758L142.175 58.6601ZM144.968 64.9142C144.545 64.863 144.199 64.7043 143.929 64.438C143.659 64.1698 143.472 63.8061 143.368 63.3471C143.264 62.8861 143.25 62.3429 143.326 61.7175C143.401 61.0958 143.544 60.5744 143.754 60.1534C143.967 59.7307 144.236 59.4213 144.562 59.2251C144.89 59.0272 145.263 58.9537 145.683 59.0044C146.102 59.0551 146.447 59.2155 146.716 59.4855C146.988 59.754 147.176 60.1186 147.279 60.5796C147.385 61.0389 147.401 61.5794 147.326 62.2011C147.25 62.8265 147.107 63.3507 146.896 63.7736C146.686 64.1946 146.417 64.5033 146.092 64.6995C145.766 64.8938 145.392 64.9654 144.968 64.9142ZM145.043 64.2963C145.463 64.347 145.813 64.1841 146.094 63.8077C146.375 63.4313 146.561 62.8686 146.651 62.1196C146.712 61.6215 146.71 61.1909 146.645 60.8278C146.583 60.465 146.463 60.1798 146.287 59.9723C146.113 59.765 145.887 59.6446 145.61 59.6111C145.194 59.5608 144.844 59.7266 144.561 60.1084C144.277 60.4883 144.09 61.0518 144 61.799C143.94 62.2971 143.941 62.7266 144.004 63.0876C144.066 63.4486 144.185 63.7318 144.36 63.9372C144.536 64.1428 144.764 64.2625 145.043 64.2963ZM149.88 65.508C149.456 65.4568 149.11 65.2981 148.84 65.0317C148.57 64.7635 148.383 64.3999 148.279 63.9408C148.175 63.4799 148.161 62.9367 148.237 62.3113C148.312 61.6896 148.455 61.1682 148.665 60.7472C148.878 60.3245 149.147 60.015 149.473 59.8188C149.801 59.621 150.175 59.5474 150.594 59.5981C151.014 59.6489 151.358 59.8092 151.627 60.0793C151.899 60.3477 152.087 60.7124 152.191 61.1734C152.297 61.6327 152.312 62.1732 152.237 62.7948C152.161 63.4203 152.018 63.9445 151.807 64.3674C151.597 64.7884 151.329 65.097 151.003 65.2932C150.677 65.4876 150.303 65.5591 149.88 65.508ZM149.954 64.89C150.374 64.9407 150.724 64.7779 151.005 64.4015C151.286 64.0251 151.472 63.4624 151.563 62.7133C151.623 62.2152 151.621 61.7847 151.556 61.4216C151.494 61.0587 151.374 60.7735 151.198 60.566C151.024 60.3588 150.798 60.2384 150.521 60.2049C150.105 60.1546 149.755 60.3204 149.472 60.7022C149.188 61.0821 149.001 61.6456 148.911 62.3928C148.851 62.8909 148.852 63.3204 148.915 63.6814C148.978 64.0424 149.096 64.3256 149.271 64.531C149.448 64.7366 149.675 64.8563 149.954 64.89ZM155.987 65.0722L156.023 64.7688C156.049 64.5591 156.115 64.3724 156.222 64.2086C156.332 64.0432 156.476 63.9182 156.655 63.8335C156.837 63.7471 157.047 63.7184 157.287 63.7474C157.53 63.7768 157.728 63.8549 157.88 63.9815C158.032 64.1063 158.14 64.2618 158.203 64.448C158.266 64.6324 158.285 64.8294 158.259 65.0391L158.223 65.3425C158.197 65.5522 158.131 65.7399 158.023 65.9055C157.918 66.0695 157.776 66.1947 157.596 66.2813C157.419 66.3663 157.21 66.3942 156.97 66.3653C156.727 66.3358 156.528 66.2586 156.374 66.1336C156.221 66.0067 156.111 65.851 156.046 65.6664C155.981 65.48 155.961 65.2819 155.987 65.0722ZM156.596 64.8381L156.56 65.1415C156.539 65.3156 156.561 65.4769 156.627 65.6255C156.693 65.7721 156.827 65.8577 157.029 65.8821C157.225 65.9059 157.372 65.8543 157.469 65.7274C157.568 65.5987 157.629 65.4474 157.65 65.2732L157.686 64.9699C157.707 64.7957 157.687 64.6355 157.625 64.4893C157.563 64.3412 157.431 64.255 157.228 64.2305C157.032 64.2068 156.882 64.259 156.779 64.3871C156.678 64.5136 156.618 64.6639 156.596 64.8381ZM153.52 61.4338L153.556 61.1305C153.582 60.9207 153.648 60.734 153.755 60.5703C153.865 60.4049 154.009 60.2798 154.188 60.1951C154.37 60.1088 154.58 60.0801 154.82 60.109C155.063 60.1385 155.261 60.2165 155.413 60.3432C155.565 60.468 155.673 60.6235 155.735 60.8097C155.799 60.994 155.818 61.191 155.792 61.4008L155.756 61.7041C155.73 61.9139 155.664 62.1015 155.556 62.2671C155.451 62.4311 155.309 62.5564 155.129 62.643C154.952 62.7279 154.743 62.7559 154.503 62.7269C154.26 62.6975 154.061 62.6202 153.907 62.4952C153.754 62.3683 153.644 62.2126 153.579 62.0281C153.514 61.8416 153.494 61.6435 153.52 61.4338ZM154.129 61.1997L154.093 61.5031C154.072 61.6772 154.094 61.8386 154.16 61.9871C154.226 62.1338 154.36 62.2193 154.562 62.2438C154.758 62.2675 154.905 62.216 155.002 62.089C155.101 61.9604 155.162 61.809 155.183 61.6349L155.219 61.3315C155.24 61.1573 155.22 60.9972 155.158 60.851C155.096 60.7029 154.964 60.6166 154.761 60.5922C154.565 60.5684 154.415 60.6206 154.312 60.7487C154.211 60.8753 154.15 61.0256 154.129 61.1997ZM153.205 65.8302L157.855 60.5558L158.496 60.6332L153.845 65.9076L153.205 65.8302Z" fill="white"/>
</g>
<defs>
<filter id="filter0_i_6_1465" x="0" y="29.0023" width="177.764" height="52.059" filterUnits="userSpaceOnUse" color-interpolation-filters="sRGB">
<feFlood flood-opacity="0" result="BackgroundImageFix"/>
<feBlend mode="normal" in="SourceGraphic" in2="BackgroundImageFix" result="shape"/>
<feColorMatrix in="SourceAlpha" type="matrix" values="0 0 0 0 0 0 0 0 0 0 0 0 0 0 0 0 0 0 127 0" result="hardAlpha"/>
<feOffset/>
<feGaussianBlur stdDeviation="3.16845"/>
<feComposite in2="hardAlpha" operator="arithmetic" k2="-1" k3="1"/>
<feColorMatrix type="matrix" values="0 0 0 0 0.211765 0 0 0 0 0.211765 0 0 0 0 0.227451 0 0 0 0.25 0"/>
<feBlend mode="normal" in2="shape" result="effect1_innerShadow_6_1465"/>
</filter>
<radialGradient id="paint0_radial_6_1465" cx="0" cy="0" r="1" gradientUnits="userSpaceOnUse" gradientTransform="translate(92.5106 25.0205) rotate(6.89372) scale(99.6478 19.923)">
<stop stop-color="#0E182B"/>
<stop offset="1" stop-color="#0E0F15"/>
</radialGradient>
<radialGradient id="paint1_radial_6_1465" cx="0" cy="0" r="1" gradientUnits="userSpaceOnUse" gradientTransform="translate(88.8823 55.0318) rotate(99.9771) scale(97.4422 17.3704)">
<stop stop-color="#0E182B"/>
<stop offset="1" stop-color="#0E0F15"/>
</radialGradient>
<linearGradient id="paint2_linear_6_1465" x1="69.5363" y1="41.6357" x2="78.4046" y2="56.767" gradientUnits="userSpaceOnUse">
<stop stop-color="#0597DB"/>
<stop offset="1" stop-color="#0061FC"/>
</linearGradient>
<clipPath id="clip0_6_1465">
<rect x="156.585" y="26.0796" width="13.2789" height="13.2789" rx="3.31972" transform="rotate(6.89372 156.585 26.0796)" fill="white"/>
</clipPath>
</defs>
</svg>
