<svg width="317" height="292" viewBox="0 0 317 292" fill="none" xmlns="http://www.w3.org/2000/svg">
<g filter="url(#filter0_iiii_16_1517)">
<circle cx="164.5" cy="145.5" r="50.5" fill="url(#paint0_radial_16_1517)"/>
</g>
<g clip-path="url(#clip0_16_1517)">
<g filter="url(#filter1_di_16_1517)">
<path d="M140.406 145.5C140.406 154.815 147.957 162.365 157.272 162.365H176.547C183.2 162.365 188.594 156.972 188.594 150.319C188.594 143.665 183.2 138.272 176.547 138.272C175.233 138.272 173.968 138.482 172.785 138.871C170.209 132.852 164.233 128.635 157.272 128.635C147.957 128.635 140.406 136.185 140.406 145.5Z" fill="url(#paint1_linear_16_1517)"/>
</g>
</g>
<circle opacity="0.5" cx="164" cy="146" r="100.4" stroke="url(#paint2_linear_16_1517)" stroke-width="0.8"/>
<circle opacity="0.5" cx="165" cy="146" r="145.4" stroke="url(#paint3_linear_16_1517)" stroke-width="0.8"/>
<g filter="url(#filter2_di_16_1517)">
<rect x="20" y="64" width="32" height="32" rx="16" fill="#264167"/>
<path d="M29.8065 76.587C29.7697 75.4094 30.7143 74.4348 31.8924 74.4348H34.5059C35.3578 74.4348 36.0748 75.0727 36.174 75.9189C36.2731 76.765 36.9902 77.4029 37.8421 77.4029H40.0832C41.2706 77.4029 42.2188 78.3924 42.1682 79.5787L41.9983 83.5671C41.9507 84.6842 41.0312 85.5652 39.9132 85.5652H32.1098C30.9826 85.5652 30.0591 84.6701 30.0239 83.5435L29.8065 76.587Z" fill="#D9D9D9"/>
</g>
<g filter="url(#filter3_di_16_1517)">
<rect x="96" y="214" width="32" height="32" rx="16" fill="#264167"/>
<path fill-rule="evenodd" clip-rule="evenodd" d="M111.811 236.898C111.888 236.938 111.974 236.959 112.06 236.958C112.146 236.957 112.232 236.936 112.309 236.895L114.792 235.568C115.496 235.193 116.047 234.773 116.477 234.285C117.413 233.22 117.923 231.862 117.914 230.461L117.885 225.84C117.882 225.308 117.532 224.833 117.015 224.66L112.397 223.111C112.119 223.017 111.814 223.019 111.541 223.116L106.94 224.72C106.426 224.9 106.082 225.378 106.085 225.911L106.115 230.528C106.124 231.931 106.652 233.284 107.603 234.337C108.037 234.819 108.593 235.233 109.305 235.602L111.811 236.898ZM111.153 231.467C111.257 231.567 111.392 231.616 111.526 231.615C111.661 231.614 111.794 231.564 111.897 231.463L114.61 228.788C114.814 228.586 114.811 228.263 114.606 228.064C114.399 227.866 114.066 227.867 113.862 228.069L111.518 230.379L110.559 229.456C110.352 229.258 110.02 229.26 109.815 229.461C109.612 229.663 109.614 229.986 109.82 230.185L111.153 231.467Z" fill="#D9D9D9"/>
</g>
<g filter="url(#filter4_di_16_1517)">
<rect x="273" y="211" width="32" height="32" rx="16" fill="#264167"/>
<path fill-rule="evenodd" clip-rule="evenodd" d="M290.354 227.619C290.553 227.82 290.877 227.82 291.077 227.619C291.284 227.417 291.284 227.09 291.084 226.888L289.107 224.884C289.058 224.835 289.003 224.801 288.941 224.773C288.879 224.745 288.817 224.731 288.748 224.731C288.679 224.731 288.611 224.745 288.549 224.773C288.487 224.801 288.431 224.835 288.383 224.884L286.413 226.888C286.213 227.09 286.213 227.417 286.413 227.619C286.613 227.82 286.936 227.82 287.136 227.619L288.232 226.505V229.866C288.232 230.151 288.459 230.381 288.748 230.381C289.031 230.381 289.258 230.151 289.258 229.866V226.505L290.354 227.619ZM294.099 224.93C294.261 224.928 294.437 224.926 294.597 224.926C294.77 224.926 294.914 225.065 294.914 225.239V230.834C294.914 232.56 293.523 233.958 291.814 233.958H286.337C284.539 233.958 283.085 232.49 283.085 230.681V223.18C283.085 221.454 284.47 220.042 286.192 220.042H289.871C290.044 220.042 290.188 220.188 290.188 220.362V222.602C290.188 223.876 291.222 224.919 292.489 224.926C292.779 224.926 293.036 224.928 293.262 224.93C293.439 224.932 293.597 224.933 293.736 224.933C293.834 224.933 293.961 224.932 294.099 224.93ZM294.291 223.915C293.725 223.917 293.058 223.915 292.578 223.91C291.816 223.91 291.188 223.276 291.188 222.507V220.672C291.188 220.373 291.548 220.224 291.754 220.44C292.285 220.997 293.096 221.849 293.783 222.57C294.061 222.862 294.319 223.133 294.528 223.353C294.729 223.564 294.582 223.914 294.291 223.915Z" fill="#D9D9D9"/>
</g>
<g filter="url(#filter5_di_16_1517)">
<rect x="253" y="28" width="32" height="32" rx="16" fill="#264167"/>
<path fill-rule="evenodd" clip-rule="evenodd" d="M272.843 40.7962V41.8632C274.041 42.2373 274.914 43.3222 274.914 44.618V48.0533C274.914 49.6575 273.584 50.9582 271.945 50.9582H266.056C264.415 50.9582 263.085 49.6575 263.085 48.0533V44.618C263.085 43.3222 263.959 42.2373 265.157 41.8632V40.7962C265.164 38.7218 266.882 37.0415 268.989 37.0415C271.125 37.0415 272.843 38.7218 272.843 40.7962ZM269.003 38.2516C270.439 38.2516 271.605 39.3925 271.605 40.7962V41.7131H266.394V40.7824C266.401 39.3856 267.568 38.2516 269.003 38.2516ZM269.618 47.1C269.618 47.4389 269.343 47.7085 268.996 47.7085C268.657 47.7085 268.381 47.4389 268.381 47.1V45.565C268.381 45.2331 268.657 44.9634 268.996 44.9634C269.343 44.9634 269.618 45.2331 269.618 45.565V47.1Z" fill="#D9D9D9"/>
</g>
<defs>
<filter id="filter0_iiii_16_1517" x="114" y="82" width="101" height="130.885" filterUnits="userSpaceOnUse" color-interpolation-filters="sRGB">
<feFlood flood-opacity="0" result="BackgroundImageFix"/>
<feBlend mode="normal" in="SourceGraphic" in2="BackgroundImageFix" result="shape"/>
<feColorMatrix in="SourceAlpha" type="matrix" values="0 0 0 0 0 0 0 0 0 0 0 0 0 0 0 0 0 0 127 0" result="hardAlpha"/>
<feOffset dy="23.1298"/>
<feGaussianBlur stdDeviation="8.44237"/>
<feComposite in2="hardAlpha" operator="arithmetic" k2="-1" k3="1"/>
<feColorMatrix type="matrix" values="0 0 0 0 0.243333 0 0 0 0 0.571222 0 0 0 0 1 0 0 0 1 0"/>
<feBlend mode="normal" in2="shape" result="effect1_innerShadow_16_1517"/>
<feColorMatrix in="SourceAlpha" type="matrix" values="0 0 0 0 0 0 0 0 0 0 0 0 0 0 0 0 0 0 127 0" result="hardAlpha"/>
<feOffset dy="9.25191"/>
<feGaussianBlur stdDeviation="4.08626"/>
<feComposite in2="hardAlpha" operator="arithmetic" k2="-1" k3="1"/>
<feColorMatrix type="matrix" values="0 0 0 0 0.58 0 0 0 0 0.804 0 0 0 0 1 0 0 0 1 0"/>
<feBlend mode="normal" in2="effect1_innerShadow_16_1517" result="effect2_innerShadow_16_1517"/>
<feColorMatrix in="SourceAlpha" type="matrix" values="0 0 0 0 0 0 0 0 0 0 0 0 0 0 0 0 0 0 127 0" result="hardAlpha"/>
<feOffset dy="-13"/>
<feGaussianBlur stdDeviation="10"/>
<feComposite in2="hardAlpha" operator="arithmetic" k2="-1" k3="1"/>
<feColorMatrix type="matrix" values="0 0 0 0 0.602 0 0 0 0 0.336667 0 0 0 0 1 0 0 0 1 0"/>
<feBlend mode="normal" in2="effect2_innerShadow_16_1517" result="effect3_innerShadow_16_1517"/>
<feColorMatrix in="SourceAlpha" type="matrix" values="0 0 0 0 0 0 0 0 0 0 0 0 0 0 0 0 0 0 127 0" result="hardAlpha"/>
<feOffset dy="-6"/>
<feGaussianBlur stdDeviation="6"/>
<feComposite in2="hardAlpha" operator="arithmetic" k2="-1" k3="1"/>
<feColorMatrix type="matrix" values="0 0 0 0 0.670419 0 0 0 0 0.596666 0 0 0 0 1 0 0 0 1 0"/>
<feBlend mode="normal" in2="effect3_innerShadow_16_1517" result="effect4_innerShadow_16_1517"/>
</filter>
<filter id="filter1_di_16_1517" x="134.239" y="126.322" width="60.5229" height="46.0668" filterUnits="userSpaceOnUse" color-interpolation-filters="sRGB">
<feFlood flood-opacity="0" result="BackgroundImageFix"/>
<feColorMatrix in="SourceAlpha" type="matrix" values="0 0 0 0 0 0 0 0 0 0 0 0 0 0 0 0 0 0 127 0" result="hardAlpha"/>
<feOffset dy="3.85496"/>
<feGaussianBlur stdDeviation="3.08397"/>
<feComposite in2="hardAlpha" operator="out"/>
<feColorMatrix type="matrix" values="0 0 0 0 0 0 0 0 0 0 0 0 0 0 0 0 0 0 0.26 0"/>
<feBlend mode="normal" in2="BackgroundImageFix" result="effect1_dropShadow_16_1517"/>
<feBlend mode="normal" in="SourceGraphic" in2="effect1_dropShadow_16_1517" result="shape"/>
<feColorMatrix in="SourceAlpha" type="matrix" values="0 0 0 0 0 0 0 0 0 0 0 0 0 0 0 0 0 0 127 0" result="hardAlpha"/>
<feOffset dy="-2"/>
<feGaussianBlur stdDeviation="3"/>
<feComposite in2="hardAlpha" operator="arithmetic" k2="-1" k3="1"/>
<feColorMatrix type="matrix" values="0 0 0 0 0.766667 0 0 0 0 0.766667 0 0 0 0 0.766667 0 0 0 1 0"/>
<feBlend mode="normal" in2="shape" result="effect2_innerShadow_16_1517"/>
</filter>
<filter id="filter2_di_16_1517" x="0" y="57" width="64" height="64" filterUnits="userSpaceOnUse" color-interpolation-filters="sRGB">
<feFlood flood-opacity="0" result="BackgroundImageFix"/>
<feColorMatrix in="SourceAlpha" type="matrix" values="0 0 0 0 0 0 0 0 0 0 0 0 0 0 0 0 0 0 127 0" result="hardAlpha"/>
<feOffset dx="-4" dy="9"/>
<feGaussianBlur stdDeviation="8"/>
<feComposite in2="hardAlpha" operator="out"/>
<feColorMatrix type="matrix" values="0 0 0 0 1 0 0 0 0 1 0 0 0 0 1 0 0 0 0.24 0"/>
<feBlend mode="normal" in2="BackgroundImageFix" result="effect1_dropShadow_16_1517"/>
<feBlend mode="normal" in="SourceGraphic" in2="effect1_dropShadow_16_1517" result="shape"/>
<feColorMatrix in="SourceAlpha" type="matrix" values="0 0 0 0 0 0 0 0 0 0 0 0 0 0 0 0 0 0 127 0" result="hardAlpha"/>
<feOffset dy="-2"/>
<feGaussianBlur stdDeviation="3"/>
<feComposite in2="hardAlpha" operator="arithmetic" k2="-1" k3="1"/>
<feColorMatrix type="matrix" values="0 0 0 0 1 0 0 0 0 1 0 0 0 0 1 0 0 0 0.6 0"/>
<feBlend mode="normal" in2="shape" result="effect2_innerShadow_16_1517"/>
</filter>
<filter id="filter3_di_16_1517" x="76" y="207" width="64" height="64" filterUnits="userSpaceOnUse" color-interpolation-filters="sRGB">
<feFlood flood-opacity="0" result="BackgroundImageFix"/>
<feColorMatrix in="SourceAlpha" type="matrix" values="0 0 0 0 0 0 0 0 0 0 0 0 0 0 0 0 0 0 127 0" result="hardAlpha"/>
<feOffset dx="-4" dy="9"/>
<feGaussianBlur stdDeviation="8"/>
<feComposite in2="hardAlpha" operator="out"/>
<feColorMatrix type="matrix" values="0 0 0 0 1 0 0 0 0 1 0 0 0 0 1 0 0 0 0.24 0"/>
<feBlend mode="normal" in2="BackgroundImageFix" result="effect1_dropShadow_16_1517"/>
<feBlend mode="normal" in="SourceGraphic" in2="effect1_dropShadow_16_1517" result="shape"/>
<feColorMatrix in="SourceAlpha" type="matrix" values="0 0 0 0 0 0 0 0 0 0 0 0 0 0 0 0 0 0 127 0" result="hardAlpha"/>
<feOffset dy="-2"/>
<feGaussianBlur stdDeviation="3"/>
<feComposite in2="hardAlpha" operator="arithmetic" k2="-1" k3="1"/>
<feColorMatrix type="matrix" values="0 0 0 0 1 0 0 0 0 1 0 0 0 0 1 0 0 0 0.6 0"/>
<feBlend mode="normal" in2="shape" result="effect2_innerShadow_16_1517"/>
</filter>
<filter id="filter4_di_16_1517" x="253" y="204" width="64" height="64" filterUnits="userSpaceOnUse" color-interpolation-filters="sRGB">
<feFlood flood-opacity="0" result="BackgroundImageFix"/>
<feColorMatrix in="SourceAlpha" type="matrix" values="0 0 0 0 0 0 0 0 0 0 0 0 0 0 0 0 0 0 127 0" result="hardAlpha"/>
<feOffset dx="-4" dy="9"/>
<feGaussianBlur stdDeviation="8"/>
<feComposite in2="hardAlpha" operator="out"/>
<feColorMatrix type="matrix" values="0 0 0 0 1 0 0 0 0 1 0 0 0 0 1 0 0 0 0.24 0"/>
<feBlend mode="normal" in2="BackgroundImageFix" result="effect1_dropShadow_16_1517"/>
<feBlend mode="normal" in="SourceGraphic" in2="effect1_dropShadow_16_1517" result="shape"/>
<feColorMatrix in="SourceAlpha" type="matrix" values="0 0 0 0 0 0 0 0 0 0 0 0 0 0 0 0 0 0 127 0" result="hardAlpha"/>
<feOffset dy="-2"/>
<feGaussianBlur stdDeviation="3"/>
<feComposite in2="hardAlpha" operator="arithmetic" k2="-1" k3="1"/>
<feColorMatrix type="matrix" values="0 0 0 0 1 0 0 0 0 1 0 0 0 0 1 0 0 0 0.6 0"/>
<feBlend mode="normal" in2="shape" result="effect2_innerShadow_16_1517"/>
</filter>
<filter id="filter5_di_16_1517" x="233" y="21" width="64" height="64" filterUnits="userSpaceOnUse" color-interpolation-filters="sRGB">
<feFlood flood-opacity="0" result="BackgroundImageFix"/>
<feColorMatrix in="SourceAlpha" type="matrix" values="0 0 0 0 0 0 0 0 0 0 0 0 0 0 0 0 0 0 127 0" result="hardAlpha"/>
<feOffset dx="-4" dy="9"/>
<feGaussianBlur stdDeviation="8"/>
<feComposite in2="hardAlpha" operator="out"/>
<feColorMatrix type="matrix" values="0 0 0 0 1 0 0 0 0 1 0 0 0 0 1 0 0 0 0.24 0"/>
<feBlend mode="normal" in2="BackgroundImageFix" result="effect1_dropShadow_16_1517"/>
<feBlend mode="normal" in="SourceGraphic" in2="effect1_dropShadow_16_1517" result="shape"/>
<feColorMatrix in="SourceAlpha" type="matrix" values="0 0 0 0 0 0 0 0 0 0 0 0 0 0 0 0 0 0 127 0" result="hardAlpha"/>
<feOffset dy="-2"/>
<feGaussianBlur stdDeviation="3"/>
<feComposite in2="hardAlpha" operator="arithmetic" k2="-1" k3="1"/>
<feColorMatrix type="matrix" values="0 0 0 0 1 0 0 0 0 1 0 0 0 0 1 0 0 0 0.6 0"/>
<feBlend mode="normal" in2="shape" result="effect2_innerShadow_16_1517"/>
</filter>
<radialGradient id="paint0_radial_16_1517" cx="0" cy="0" r="1" gradientUnits="userSpaceOnUse" gradientTransform="translate(164.5 145.5) rotate(90) scale(53.5 56.3159)">
<stop stop-color="#225DB1"/>
<stop offset="1" stop-color="#293572"/>
</radialGradient>
<linearGradient id="paint1_linear_16_1517" x1="164.5" y1="134.706" x2="164.5" y2="162.365" gradientUnits="userSpaceOnUse">
<stop stop-color="white"/>
<stop offset="1" stop-color="white"/>
</linearGradient>
<linearGradient id="paint2_linear_16_1517" x1="106.056" y1="46" x2="213.065" y2="246" gradientUnits="userSpaceOnUse">
<stop stop-color="white" stop-opacity="0.08"/>
<stop offset="0.244" stop-color="white" stop-opacity="0.25"/>
<stop offset="0.5" stop-color="white"/>
<stop offset="0.764" stop-color="white" stop-opacity="0.25"/>
<stop offset="1" stop-color="white" stop-opacity="0.08"/>
</linearGradient>
<linearGradient id="paint3_linear_16_1517" x1="80.9813" y1="1" x2="236.145" y2="291" gradientUnits="userSpaceOnUse">
<stop stop-color="white" stop-opacity="0.08"/>
<stop offset="0.244" stop-color="white" stop-opacity="0.25"/>
<stop offset="0.5" stop-color="white"/>
<stop offset="0.764" stop-color="white" stop-opacity="0.25"/>
<stop offset="1" stop-color="white" stop-opacity="0.08"/>
</linearGradient>
<clipPath id="clip0_16_1517">
<rect width="57.8244" height="57.8244" fill="white" transform="translate(135.588 116.588)"/>
</clipPath>
</defs>
</svg>
