<svg width="399" height="483" viewBox="0 0 399 483" fill="none" xmlns="http://www.w3.org/2000/svg">
<rect x="71" width="250.528" height="482.013" rx="16.2216" fill="url(#paint0_linear_6_1352)"/>
<g filter="url(#filter0_i_6_1352)">
<rect x="81.4387" y="27.0696" width="114.825" height="24.3569" rx="3.47956" fill="url(#paint1_radial_6_1352)"/>
<path d="M123.418 43.248H120.755V35.0236H123.502C124.308 35.0236 125 35.1883 125.578 35.5176C126.156 35.8442 126.599 36.3141 126.907 36.9271C127.218 37.5375 127.373 38.2698 127.373 39.1238C127.373 39.9805 127.217 40.7167 126.903 41.3325C126.593 41.9483 126.143 42.4221 125.554 42.7541C124.965 43.0834 124.253 43.248 123.418 43.248ZM121.996 42.1638H123.349C123.976 42.1638 124.497 42.046 124.912 41.8104C125.326 41.5721 125.637 41.2281 125.843 40.7783C126.049 40.3259 126.152 39.7744 126.152 39.1238C126.152 38.4786 126.049 37.9311 125.843 37.4813C125.64 37.0315 125.336 36.6902 124.932 36.4573C124.527 36.2244 124.025 36.1079 123.426 36.1079H121.996V42.1638ZM131.432 43.3725C130.824 43.3725 130.301 43.2427 129.862 42.983C129.425 42.7206 129.088 42.3525 128.85 41.8787C128.614 41.4021 128.496 40.8439 128.496 40.2041C128.496 39.5722 128.614 39.0154 128.85 38.5335C129.088 38.0516 129.42 37.6754 129.846 37.405C130.274 37.1346 130.775 36.9994 131.348 36.9994C131.696 36.9994 132.033 37.057 132.36 37.1721C132.686 37.2872 132.979 37.4679 133.239 37.7142C133.499 37.9605 133.704 38.2805 133.854 38.674C134.003 39.0649 134.078 39.5401 134.078 40.0996V40.5253H129.175V39.6258H132.902C132.902 39.3099 132.838 39.0301 132.709 38.7865C132.581 38.5402 132.4 38.3461 132.167 38.2042C131.937 38.0623 131.666 37.9913 131.356 37.9913C131.018 37.9913 130.724 38.0743 130.472 38.2403C130.223 38.4036 130.03 38.6178 129.894 38.8828C129.76 39.1452 129.693 39.4303 129.693 39.7382V40.441C129.693 40.8533 129.765 41.204 129.91 41.4931C130.057 41.7823 130.262 42.0031 130.524 42.1557C130.787 42.3057 131.093 42.3806 131.444 42.3806C131.672 42.3806 131.879 42.3485 132.067 42.2842C132.254 42.2173 132.416 42.1183 132.552 41.9871C132.689 41.8559 132.793 41.6939 132.866 41.5012L134.002 41.706C133.911 42.0406 133.748 42.3338 133.512 42.5854C133.279 42.8344 132.986 43.0285 132.633 43.1677C132.282 43.3043 131.882 43.3725 131.432 43.3725ZM139.987 38.5857L138.898 38.7784C138.853 38.6392 138.78 38.5067 138.681 38.3809C138.585 38.255 138.454 38.152 138.288 38.0716C138.122 37.9913 137.914 37.9512 137.665 37.9512C137.325 37.9512 137.042 38.0275 136.814 38.1801C136.586 38.33 136.473 38.5241 136.473 38.7624C136.473 38.9685 136.549 39.1345 136.702 39.2603C136.854 39.3862 137.101 39.4892 137.441 39.5695L138.42 39.7944C138.988 39.9256 139.411 40.1277 139.689 40.4008C139.968 40.6739 140.107 41.0286 140.107 41.465C140.107 41.8345 140 42.1638 139.786 42.4529C139.574 42.7394 139.278 42.9643 138.898 43.1276C138.521 43.2909 138.083 43.3725 137.585 43.3725C136.894 43.3725 136.331 43.2253 135.894 42.9308C135.458 42.6336 135.19 42.212 135.091 41.6658L136.252 41.4891C136.324 41.7916 136.473 42.0205 136.698 42.1758C136.922 42.3284 137.216 42.4047 137.577 42.4047C137.971 42.4047 138.285 42.3231 138.521 42.1598C138.756 41.9938 138.874 41.7916 138.874 41.5534C138.874 41.3606 138.802 41.1986 138.657 41.0675C138.515 40.9363 138.297 40.8372 138.003 40.7703L136.959 40.5414C136.383 40.4102 135.957 40.2014 135.682 39.9149C135.409 39.6284 135.272 39.2657 135.272 38.8266C135.272 38.4625 135.374 38.1439 135.577 37.8709C135.781 37.5978 136.062 37.3849 136.42 37.2323C136.779 37.0771 137.19 36.9994 137.653 36.9994C138.32 36.9994 138.845 37.144 139.228 37.4331C139.61 37.7196 139.863 38.1038 139.987 38.5857ZM141.381 43.248V37.0797H142.582V43.248H141.381ZM141.987 36.128C141.778 36.128 141.599 36.0584 141.449 35.9192C141.302 35.7773 141.228 35.6086 141.228 35.4132C141.228 35.2151 141.302 35.0464 141.449 34.9072C141.599 34.7653 141.778 34.6943 141.987 34.6943C142.196 34.6943 142.374 34.7653 142.521 34.9072C142.671 35.0464 142.746 35.2151 142.746 35.4132C142.746 35.6086 142.671 35.7773 142.521 35.9192C142.374 36.0584 142.196 36.128 141.987 36.128ZM146.737 45.6897C146.247 45.6897 145.825 45.6254 145.472 45.4969C145.121 45.3684 144.835 45.1984 144.612 44.9869C144.39 44.7754 144.224 44.5438 144.114 44.2922L145.147 43.8665C145.219 43.9843 145.315 44.1088 145.436 44.24C145.559 44.3738 145.725 44.4876 145.934 44.5813C146.145 44.675 146.417 44.7219 146.749 44.7219C147.204 44.7219 147.58 44.6108 147.877 44.3885C148.174 44.169 148.323 43.8183 148.323 43.3364V42.1236H148.247C148.174 42.2548 148.07 42.4007 147.934 42.5613C147.8 42.722 147.615 42.8612 147.379 42.979C147.144 43.0968 146.837 43.1557 146.46 43.1557C145.972 43.1557 145.533 43.0419 145.143 42.8143C144.754 42.5841 144.446 42.2454 144.219 41.7983C143.994 41.3486 143.882 40.7957 143.882 40.1398C143.882 39.4839 143.993 38.9217 144.215 38.4532C144.44 37.9846 144.748 37.6259 145.138 37.3769C145.529 37.1253 145.972 36.9994 146.468 36.9994C146.851 36.9994 147.16 37.0637 147.395 37.1922C147.631 37.318 147.814 37.4653 147.946 37.6339C148.079 37.8026 148.182 37.9512 148.255 38.0797H148.343V37.0797H149.52V43.3846C149.52 43.9147 149.397 44.3497 149.15 44.6897C148.904 45.0297 148.571 45.2814 148.15 45.4447C147.733 45.608 147.262 45.6897 146.737 45.6897ZM146.725 42.1598C147.07 42.1598 147.362 42.0794 147.6 41.9188C147.841 41.7555 148.023 41.5226 148.146 41.2201C148.272 40.9149 148.335 40.5494 148.335 40.1237C148.335 39.7088 148.274 39.3433 148.15 39.0274C148.027 38.7115 147.846 38.4652 147.608 38.2885C147.37 38.1091 147.075 38.0194 146.725 38.0194C146.363 38.0194 146.062 38.1131 145.821 38.3005C145.58 38.4853 145.398 38.7369 145.275 39.0555C145.155 39.3741 145.094 39.7302 145.094 40.1237C145.094 40.528 145.156 40.8827 145.279 41.1879C145.402 41.4931 145.584 41.7314 145.825 41.9027C146.069 42.0741 146.369 42.1598 146.725 42.1598ZM152.284 39.5856V43.248H151.084V37.0797H152.236V38.0837H152.313C152.454 37.7571 152.677 37.4947 152.979 37.2966C153.284 37.0985 153.669 36.9994 154.132 36.9994C154.552 36.9994 154.92 37.0878 155.236 37.2645C155.552 37.4385 155.797 37.6982 155.971 38.0435C156.145 38.3889 156.232 38.8159 156.232 39.3246V43.248H155.031V39.4692C155.031 39.0221 154.915 38.6727 154.682 38.421C154.449 38.1667 154.129 38.0395 153.722 38.0395C153.444 38.0395 153.196 38.0998 152.979 38.2202C152.765 38.3407 152.595 38.5174 152.469 38.7503C152.346 38.9806 152.284 39.259 152.284 39.5856Z" fill="white"/>
</g>
<rect x="196.264" y="27.0696" width="114.825" height="24.3569" rx="3.47956" fill="#0F0F0F"/>
<path d="M232.775 43.248H231.458L234.418 35.0236H235.851L238.811 43.248H237.494L235.169 36.5175H235.104L232.775 43.248ZM232.996 40.0274H237.269V41.0715H232.996V40.0274ZM241.057 39.5856V43.248H239.856V37.0797H241.009V38.0837H241.085C241.227 37.7571 241.449 37.4947 241.751 37.2966C242.057 37.0985 242.441 36.9994 242.904 36.9994C243.324 36.9994 243.692 37.0878 244.008 37.2645C244.324 37.4385 244.569 37.6982 244.743 38.0435C244.917 38.3889 245.004 38.8159 245.004 39.3246V43.248H243.804V39.4692C243.804 39.0221 243.687 38.6727 243.454 38.421C243.221 38.1667 242.901 38.0395 242.494 38.0395C242.216 38.0395 241.968 38.0998 241.751 38.2202C241.537 38.3407 241.367 38.5174 241.241 38.7503C241.118 38.9806 241.057 39.259 241.057 39.5856ZM246.568 43.248V37.0797H247.769V43.248H246.568ZM247.175 36.128C246.966 36.128 246.786 36.0584 246.637 35.9192C246.489 35.7773 246.416 35.6086 246.416 35.4132C246.416 35.2151 246.489 35.0464 246.637 34.9072C246.786 34.7653 246.966 34.6943 247.175 34.6943C247.384 34.6943 247.562 34.7653 247.709 34.9072C247.859 35.0464 247.934 35.2151 247.934 35.4132C247.934 35.6086 247.859 35.7773 247.709 35.9192C247.562 36.0584 247.384 36.128 247.175 36.128ZM249.338 43.248V37.0797H250.491V38.0837H250.567C250.695 37.7437 250.906 37.4786 251.197 37.2886C251.489 37.0958 251.839 36.9994 252.245 36.9994C252.658 36.9994 253.003 37.0958 253.282 37.2886C253.563 37.4813 253.77 37.7464 253.904 38.0837H253.968C254.116 37.7544 254.35 37.492 254.671 37.2966C254.992 37.0985 255.375 36.9994 255.82 36.9994C256.379 36.9994 256.836 37.1748 257.189 37.5255C257.545 37.8762 257.723 38.405 257.723 39.1117V43.248H256.522V39.2242C256.522 38.8065 256.409 38.504 256.181 38.3166C255.953 38.1292 255.682 38.0355 255.366 38.0355C254.975 38.0355 254.671 38.156 254.454 38.3969C254.237 38.6352 254.129 38.9417 254.129 39.3166V43.248H252.932V39.1479C252.932 38.8132 252.828 38.5442 252.619 38.3407C252.41 38.1372 252.138 38.0355 251.804 38.0355C251.576 38.0355 251.366 38.0957 251.173 38.2162C250.983 38.334 250.829 38.4987 250.711 38.7102C250.596 38.9217 250.539 39.1666 250.539 39.4451V43.248H249.338ZM261.081 43.3846C260.69 43.3846 260.337 43.3123 260.021 43.1677C259.705 43.0205 259.455 42.8076 259.27 42.5292C259.088 42.2508 258.997 41.9094 258.997 41.5052C258.997 41.1571 259.064 40.8707 259.198 40.6458C259.332 40.4209 259.512 40.2429 259.74 40.1117C259.967 39.9805 260.222 39.8814 260.503 39.8145C260.784 39.7476 261.07 39.6967 261.362 39.6619C261.732 39.6191 262.032 39.5843 262.262 39.5575C262.492 39.5281 262.659 39.4812 262.764 39.4169C262.868 39.3527 262.92 39.2483 262.92 39.1037V39.0756C262.92 38.7249 262.821 38.4532 262.623 38.2604C262.428 38.0676 262.136 37.9713 261.748 37.9713C261.343 37.9713 261.025 38.0609 260.792 38.2403C260.562 38.417 260.402 38.6138 260.314 38.8306L259.186 38.5736C259.32 38.1988 259.515 37.8963 259.772 37.666C260.032 37.4331 260.33 37.2645 260.667 37.1601C261.005 37.053 261.36 36.9994 261.732 36.9994C261.978 36.9994 262.239 37.0289 262.515 37.0878C262.793 37.144 263.053 37.2484 263.294 37.401C263.537 37.5536 263.737 37.7718 263.892 38.0556C264.047 38.3367 264.125 38.7021 264.125 39.1519V43.248H262.952V42.4047H262.904C262.827 42.56 262.71 42.7126 262.555 42.8625C262.4 43.0125 262.2 43.1369 261.957 43.236C261.713 43.3351 261.421 43.3846 261.081 43.3846ZM261.342 42.4208C261.674 42.4208 261.958 42.3552 262.194 42.224C262.432 42.0928 262.612 41.9215 262.736 41.71C262.861 41.4958 262.924 41.2669 262.924 41.0233V40.2281C262.882 40.271 262.799 40.3111 262.675 40.3486C262.555 40.3834 262.417 40.4142 262.262 40.441C262.106 40.4651 261.955 40.4878 261.808 40.5093C261.661 40.528 261.538 40.5441 261.439 40.5574C261.206 40.5869 260.993 40.6364 260.8 40.706C260.61 40.7756 260.457 40.876 260.342 41.0072C260.23 41.1357 260.174 41.3071 260.174 41.5212C260.174 41.8184 260.283 42.0433 260.503 42.1959C260.722 42.3458 261.002 42.4208 261.342 42.4208ZM268.557 37.0797V38.0435H265.188V37.0797H268.557ZM266.092 35.6019H267.292V41.4369C267.292 41.6698 267.327 41.8452 267.397 41.963C267.466 42.0781 267.556 42.1571 267.666 42.1999C267.778 42.2401 267.9 42.2602 268.031 42.2602C268.128 42.2602 268.212 42.2535 268.284 42.2401C268.357 42.2267 268.413 42.216 268.453 42.2079L268.67 43.1999C268.6 43.2266 268.501 43.2534 268.373 43.2802C268.244 43.3096 268.084 43.3257 267.891 43.3284C267.575 43.3337 267.28 43.2775 267.007 43.1597C266.734 43.0419 266.513 42.8599 266.345 42.6135C266.176 42.3672 266.092 42.058 266.092 41.6859V35.6019ZM272.431 43.3725C271.824 43.3725 271.3 43.2427 270.861 42.983C270.425 42.7206 270.088 42.3525 269.849 41.8787C269.614 41.4021 269.496 40.8439 269.496 40.2041C269.496 39.5722 269.614 39.0154 269.849 38.5335C270.088 38.0516 270.42 37.6754 270.845 37.405C271.274 37.1346 271.774 36.9994 272.347 36.9994C272.695 36.9994 273.033 37.057 273.359 37.1721C273.686 37.2872 273.979 37.4679 274.239 37.7142C274.498 37.9605 274.703 38.2805 274.853 38.674C275.003 39.0649 275.078 39.5401 275.078 40.0996V40.5253H270.175V39.6258H273.901C273.901 39.3099 273.837 39.0301 273.709 38.7865C273.58 38.5402 273.399 38.3461 273.166 38.2042C272.936 38.0623 272.666 37.9913 272.355 37.9913C272.018 37.9913 271.723 38.0743 271.472 38.2403C271.223 38.4036 271.03 38.6178 270.893 38.8828C270.76 39.1452 270.693 39.4303 270.693 39.7382V40.441C270.693 40.8533 270.765 41.204 270.909 41.4931C271.057 41.7823 271.262 42.0031 271.524 42.1557C271.786 42.3057 272.093 42.3806 272.444 42.3806C272.671 42.3806 272.879 42.3485 273.066 42.2842C273.253 42.2173 273.415 42.1183 273.552 41.9871C273.688 41.8559 273.793 41.6939 273.865 41.5012L275.002 41.706C274.911 42.0406 274.747 42.3338 274.512 42.5854C274.279 42.8344 273.986 43.0285 273.632 43.1677C273.282 43.3043 272.881 43.3725 272.431 43.3725Z" fill="#8F8F8F"/>
<g filter="url(#filter1_i_6_1352)">
<mask id="path-7-inside-1_6_1352" fill="white">
<path d="M90.1377 75.7835C90.1377 72.901 92.4745 70.5642 95.357 70.5642H117.974V98.4007H95.357C92.4745 98.4007 90.1377 96.0639 90.1377 93.1813V75.7835Z"/>
</mask>
<path d="M90.1377 75.7835C90.1377 72.901 92.4745 70.5642 95.357 70.5642H117.974V98.4007H95.357C92.4745 98.4007 90.1377 96.0639 90.1377 93.1813V75.7835Z" fill="url(#paint2_radial_6_1352)" fill-opacity="0.33"/>
<path d="M90.1377 70.5642H117.974H90.1377ZM117.974 98.4007H90.1377H117.974ZM90.1377 98.4007V70.5642V98.4007ZM118.67 70.5642V98.4007H117.278V70.5642H118.67Z" fill="url(#paint3_linear_6_1352)" mask="url(#path-7-inside-1_6_1352)"/>
<rect x="96.3137" y="77.5234" width="0.695912" height="13.9182" rx="0.347956" fill="#98BCFF"/>
<rect x="97.8796" y="83.1777" width="2.08774" height="13.9182" rx="0.695912" transform="rotate(-90 97.8796 83.1777)" fill="#98BCFF"/>
<rect x="97.8796" y="87.8752" width="2.08774" height="6.95912" rx="0.695912" transform="rotate(-90 97.8796 87.8752)" fill="#98BCFF"/>
</g>
<g filter="url(#filter2_i_6_1352)">
<rect width="27.8365" height="27.8365" transform="translate(117.974 70.5642)" fill="url(#paint4_radial_6_1352)" fill-opacity="0.33"/>
<rect x="131.893" y="77.5234" width="0.695912" height="13.9182" rx="0.347956" fill="#98BEFF"/>
<rect x="124.933" y="83.0906" width="2.08774" height="13.9182" rx="0.695912" transform="rotate(-90 124.933 83.0906)" fill="#98BDFF"/>
<rect x="128.413" y="88.6577" width="2.08774" height="6.95912" rx="0.695912" transform="rotate(-90 128.413 88.6577)" fill="#98BDFF"/>
</g>
<g filter="url(#filter3_i_6_1352)">
<mask id="path-15-inside-2_6_1352" fill="white">
<path d="M173.647 75.7835C173.647 72.901 171.31 70.5642 168.428 70.5642H145.811V98.4007H168.428C171.31 98.4007 173.647 96.0639 173.647 93.1813V75.7835Z"/>
</mask>
<path d="M173.647 75.7835C173.647 72.901 171.31 70.5642 168.428 70.5642H145.811V98.4007H168.428C171.31 98.4007 173.647 96.0639 173.647 93.1813V75.7835Z" fill="url(#paint5_radial_6_1352)" fill-opacity="0.33"/>
<path d="M173.647 70.5642H145.811H173.647ZM145.811 98.4007H173.647H145.811ZM173.647 98.4007V70.5642V98.4007ZM145.115 70.5642V98.4007H146.507V70.5642H145.115Z" fill="url(#paint6_linear_6_1352)" mask="url(#path-15-inside-2_6_1352)"/>
<rect width="0.695912" height="13.9182" rx="0.347956" transform="matrix(-1 0 0 1 167.471 77.5234)" fill="#98BEFF"/>
<rect width="2.08774" height="13.9182" rx="0.695912" transform="matrix(4.37114e-08 -1 -1 -4.37114e-08 165.905 83.1777)" fill="#98BEFF"/>
<rect width="2.08774" height="6.95912" rx="0.695912" transform="matrix(4.37114e-08 -1 -1 -4.37114e-08 165.905 87.8752)" fill="#98BEFF"/>
</g>
<g filter="url(#filter4_i_6_1352)">
<mask id="path-20-inside-3_6_1352" fill="white">
<path d="M218.881 75.7835C218.881 72.901 221.218 70.5642 224.101 70.5642H246.718V98.4007H224.101C221.218 98.4007 218.881 96.0639 218.881 93.1813V75.7835Z"/>
</mask>
<path d="M218.881 75.7835C218.881 72.901 221.218 70.5642 224.101 70.5642H246.718V98.4007H224.101C221.218 98.4007 218.881 96.0639 218.881 93.1813V75.7835Z" fill="url(#paint7_radial_6_1352)" fill-opacity="0.33"/>
<path d="M218.881 70.5642H246.718H218.881ZM246.718 98.4007H218.881H246.718ZM218.881 98.4007V70.5642V98.4007ZM247.414 70.5642V98.4007H246.022V70.5642H247.414Z" fill="url(#paint8_linear_6_1352)" mask="url(#path-20-inside-3_6_1352)"/>
<rect x="239.759" y="76.7405" width="0.695912" height="13.9182" rx="0.347956" transform="rotate(90 239.759 76.7405)" fill="#98BCFF"/>
<rect x="234.105" y="78.3064" width="1.73978" height="6.95912" rx="0.695912" fill="#98BCFF"/>
<rect x="229.755" y="78.3064" width="1.73978" height="13.9182" rx="0.695912" fill="#98BCFF"/>
</g>
<g filter="url(#filter5_i_6_1352)">
<rect width="27.8365" height="27.8365" transform="translate(246.718 70.5642)" fill="url(#paint9_radial_6_1352)" fill-opacity="0.33"/>
<rect x="253.677" y="84.4832" width="0.695912" height="13.9182" rx="0.347956" transform="rotate(-90 253.677 84.4832)" fill="#98BCFF"/>
<rect x="258.896" y="91.4417" width="1.73978" height="13.9182" rx="0.695912" transform="rotate(180 258.896 91.4417)" fill="#98BCFF"/>
<rect x="264.115" y="87.9622" width="1.73978" height="6.95912" rx="0.695912" transform="rotate(180 264.115 87.9622)" fill="#98BCFF"/>
</g>
<g filter="url(#filter6_i_6_1352)">
<mask id="path-28-inside-4_6_1352" fill="white">
<path d="M302.391 75.7835C302.391 72.901 300.054 70.5642 297.172 70.5642H274.554V98.4007H297.172C300.054 98.4007 302.391 96.0639 302.391 93.1813V75.7835Z"/>
</mask>
<path d="M302.391 75.7835C302.391 72.901 300.054 70.5642 297.172 70.5642H274.554V98.4007H297.172C300.054 98.4007 302.391 96.0639 302.391 93.1813V75.7835Z" fill="url(#paint10_radial_6_1352)" fill-opacity="0.33"/>
<path d="M302.391 70.5642H274.554H302.391ZM274.554 98.4007H302.391H274.554ZM302.391 98.4007V70.5642V98.4007ZM273.858 70.5642V98.4007H275.25V70.5642H273.858Z" fill="url(#paint11_linear_6_1352)" mask="url(#path-28-inside-4_6_1352)"/>
<rect x="281.513" y="92.2244" width="0.695912" height="13.9182" rx="0.347956" transform="rotate(-90 281.513 92.2244)" fill="#98BCFF"/>
<rect x="287.168" y="90.6584" width="1.73978" height="6.95912" rx="0.695912" transform="rotate(180 287.168 90.6584)" fill="#98BCFF"/>
<rect x="291.517" y="90.6584" width="1.73978" height="13.9182" rx="0.695912" transform="rotate(180 291.517 90.6584)" fill="#98BCFF"/>
</g>
<mask id="path-33-inside-5_6_1352" fill="white">
<path d="M81.4387 117.538H311.09V145.456H81.4387V117.538Z"/>
</mask>
<path d="M81.4387 118.234H311.09V116.842H81.4387V118.234Z" fill="#303030" mask="url(#path-33-inside-5_6_1352)"/>
<path d="M85.7294 135.497V127.273H87.2193V134.248H90.8416V135.497H85.7294ZM93.799 135.622C93.4082 135.622 93.0561 135.552 92.7429 135.413C92.4323 135.271 92.186 135.062 92.004 134.787C91.8246 134.511 91.7349 134.171 91.7349 133.766C91.7349 133.418 91.7991 133.131 91.9277 132.903C92.0562 132.676 92.2315 132.493 92.4537 132.357C92.6759 132.22 92.9263 132.117 93.2047 132.048C93.4858 131.975 93.7763 131.923 94.0761 131.891C94.4375 131.854 94.7307 131.82 94.9556 131.791C95.1805 131.759 95.3438 131.71 95.4455 131.646C95.5499 131.579 95.6021 131.476 95.6021 131.337V131.313C95.6021 131.01 95.5124 130.776 95.3331 130.61C95.1537 130.444 94.8954 130.361 94.558 130.361C94.202 130.361 93.9195 130.439 93.7107 130.594C93.5045 130.749 93.3653 130.933 93.293 131.144L91.9357 130.951C92.0428 130.577 92.2195 130.263 92.4658 130.012C92.7121 129.757 93.0133 129.567 93.3693 129.441C93.7254 129.313 94.119 129.249 94.55 129.249C94.8472 129.249 95.143 129.283 95.4375 129.353C95.732 129.423 96.001 129.538 96.2447 129.698C96.4883 129.856 96.6837 130.072 96.831 130.345C96.9809 130.618 97.0559 130.959 97.0559 131.369V135.497H95.6584V134.65H95.6102C95.5218 134.821 95.3973 134.982 95.2367 135.132C95.0787 135.279 94.8793 135.398 94.6383 135.489C94.4001 135.578 94.1203 135.622 93.799 135.622ZM94.1765 134.554C94.4683 134.554 94.7213 134.496 94.9355 134.381C95.1497 134.263 95.3143 134.108 95.4295 133.915C95.5473 133.722 95.6062 133.512 95.6062 133.285V132.558C95.5606 132.595 95.483 132.63 95.3732 132.662C95.2661 132.694 95.1457 132.722 95.0118 132.746C94.8779 132.771 94.7454 132.792 94.6142 132.811C94.4831 132.829 94.3693 132.846 94.2729 132.859C94.056 132.888 93.8619 132.937 93.6906 133.003C93.5193 133.07 93.3841 133.164 93.285 133.285C93.1859 133.402 93.1364 133.555 93.1364 133.742C93.1364 134.01 93.2341 134.212 93.4296 134.349C93.625 134.485 93.874 134.554 94.1765 134.554ZM99.154 137.81C98.9558 137.81 98.7724 137.794 98.6038 137.762C98.4378 137.733 98.3053 137.698 98.2062 137.658L98.5435 136.525C98.755 136.587 98.9438 136.616 99.1098 136.614C99.2758 136.611 99.4217 136.559 99.5475 136.457C99.676 136.358 99.7844 136.192 99.8728 135.959L99.9973 135.626L97.7605 129.329H99.3025L100.724 133.987H100.788L102.214 129.329H103.76L101.29 136.244C101.175 136.571 101.023 136.851 100.833 137.084C100.642 137.319 100.41 137.499 100.134 137.622C99.8607 137.748 99.5341 137.81 99.154 137.81ZM107.2 135.618C106.598 135.618 106.076 135.485 105.634 135.22C105.193 134.955 104.85 134.584 104.606 134.108C104.365 133.631 104.245 133.074 104.245 132.437C104.245 131.8 104.365 131.242 104.606 130.763C104.85 130.283 105.193 129.911 105.634 129.646C106.076 129.381 106.598 129.249 107.2 129.249C107.803 129.249 108.325 129.381 108.767 129.646C109.208 129.911 109.55 130.283 109.791 130.763C110.034 131.242 110.156 131.8 110.156 132.437C110.156 133.074 110.034 133.631 109.791 134.108C109.55 134.584 109.208 134.955 108.767 135.22C108.325 135.485 107.803 135.618 107.2 135.618ZM107.209 134.453C107.535 134.453 107.808 134.364 108.028 134.184C108.247 134.002 108.411 133.758 108.518 133.453C108.627 133.148 108.682 132.808 108.682 132.433C108.682 132.056 108.627 131.714 108.518 131.409C108.411 131.101 108.247 130.856 108.028 130.674C107.808 130.492 107.535 130.401 107.209 130.401C106.874 130.401 106.595 130.492 106.373 130.674C106.154 130.856 105.989 131.101 105.879 131.409C105.772 131.714 105.719 132.056 105.719 132.433C105.719 132.808 105.772 133.148 105.879 133.453C105.989 133.758 106.154 134.002 106.373 134.184C106.595 134.364 106.874 134.453 107.209 134.453ZM115.275 132.903V129.329H116.729V135.497H115.319V134.401H115.255C115.116 134.746 114.887 135.029 114.568 135.248C114.252 135.468 113.863 135.578 113.4 135.578C112.995 135.578 112.638 135.488 112.328 135.309C112.02 135.127 111.779 134.863 111.605 134.517C111.431 134.169 111.344 133.749 111.344 133.256V129.329H112.797V133.032C112.797 133.422 112.904 133.733 113.119 133.963C113.333 134.194 113.614 134.309 113.962 134.309C114.176 134.309 114.384 134.256 114.584 134.152C114.785 134.048 114.95 133.892 115.078 133.686C115.21 133.477 115.275 133.216 115.275 132.903ZM121.258 129.329V130.453H117.712V129.329H121.258ZM118.587 127.851H120.041V133.642C120.041 133.837 120.07 133.987 120.129 134.092C120.191 134.194 120.271 134.263 120.37 134.301C120.469 134.338 120.579 134.357 120.699 134.357C120.79 134.357 120.873 134.35 120.948 134.337C121.026 134.323 121.085 134.311 121.125 134.301L121.37 135.437C121.292 135.464 121.181 135.493 121.037 135.525C120.895 135.558 120.721 135.576 120.515 135.582C120.15 135.592 119.823 135.537 119.531 135.417C119.239 135.294 119.007 135.104 118.836 134.847C118.667 134.59 118.584 134.268 118.587 133.883V127.851Z" fill="white"/>
<path d="M86.5493 161.783L88.3656 164.752H88.425L90.2413 161.783H91.5684L89.2034 165.579L91.5832 169.375H90.2488L88.425 166.446H88.3656L86.5418 169.375H85.2074L87.628 165.579L85.2222 161.783H86.5493Z" fill="#9A9A9A"/>
<rect x="133.632" y="155.895" width="55.6729" height="19.9591" rx="3.47956" fill="#191919"/>
<path d="M144.202 161.783V169.375H143.053V162.932H143.008L141.192 164.118V163.021L143.086 161.783H144.202ZM148.737 161.679C149.076 161.681 149.409 161.743 149.738 161.864C150.067 161.985 150.363 162.183 150.628 162.457C150.895 162.732 151.107 163.102 151.265 163.569C151.426 164.034 151.507 164.612 151.51 165.304C151.51 165.969 151.443 166.561 151.31 167.08C151.176 167.596 150.985 168.033 150.735 168.388C150.488 168.744 150.188 169.015 149.834 169.2C149.481 169.386 149.083 169.478 148.641 169.478C148.188 169.478 147.787 169.389 147.436 169.211C147.085 169.033 146.8 168.788 146.58 168.474C146.36 168.157 146.223 167.794 146.168 167.384H147.299C147.373 167.71 147.524 167.975 147.751 168.177C147.981 168.377 148.277 168.477 148.641 168.477C149.197 168.477 149.63 168.235 149.942 167.751C150.253 167.264 150.41 166.584 150.413 165.712H150.353C150.225 165.925 150.064 166.107 149.871 166.261C149.681 166.414 149.467 166.533 149.23 166.617C148.993 166.701 148.74 166.743 148.47 166.743C148.033 166.743 147.635 166.635 147.277 166.42C146.918 166.205 146.633 165.91 146.42 165.534C146.208 165.159 146.101 164.73 146.101 164.248C146.101 163.768 146.21 163.333 146.428 162.943C146.648 162.553 146.954 162.244 147.347 162.016C147.742 161.786 148.206 161.674 148.737 161.679ZM148.741 162.643C148.452 162.643 148.191 162.714 147.959 162.858C147.729 162.999 147.547 163.19 147.414 163.432C147.28 163.672 147.214 163.939 147.214 164.233C147.214 164.527 147.278 164.794 147.406 165.034C147.537 165.271 147.715 165.46 147.94 165.601C148.167 165.739 148.427 165.808 148.719 165.808C148.936 165.808 149.139 165.766 149.326 165.682C149.514 165.598 149.679 165.482 149.82 165.334C149.96 165.183 150.07 165.013 150.149 164.822C150.229 164.632 150.268 164.432 150.268 164.222C150.268 163.943 150.201 163.683 150.068 163.443C149.937 163.204 149.756 163.011 149.527 162.865C149.297 162.717 149.035 162.643 148.741 162.643ZM152.858 169.375L156.172 162.821V162.765H152.339V161.783H157.358V162.798L154.055 169.375H152.858Z" fill="white"/>
<path d="M87.239 199.772L85.1335 192.18H86.3382L87.8173 198.06H87.8877L89.4261 192.18H90.6197L92.1581 198.063H92.2285L93.7039 192.18H94.9123L92.8031 199.772H91.6502L90.0525 194.086H89.9932L88.3955 199.772H87.239ZM95.825 199.772V194.078H96.9333V199.772H95.825ZM96.3847 193.2C96.1919 193.2 96.0264 193.136 95.888 193.007C95.7521 192.876 95.6841 192.72 95.6841 192.54C95.6841 192.357 95.7521 192.201 95.888 192.073C96.0264 191.942 96.1919 191.876 96.3847 191.876C96.5775 191.876 96.7418 191.942 96.8777 192.073C97.0161 192.201 97.0853 192.357 97.0853 192.54C97.0853 192.72 97.0161 192.876 96.8777 193.007C96.7418 193.136 96.5775 193.2 96.3847 193.2ZM100.513 199.883C100.053 199.883 99.6432 199.766 99.2824 199.531C98.9241 199.294 98.6424 198.957 98.4372 198.519C98.2346 198.079 98.1333 197.552 98.1333 196.936C98.1333 196.321 98.2358 195.795 98.441 195.357C98.6485 194.92 98.9327 194.585 99.2935 194.353C99.6543 194.12 100.063 194.004 100.521 194.004C100.874 194.004 101.158 194.064 101.373 194.182C101.591 194.298 101.759 194.434 101.877 194.59C101.998 194.746 102.092 194.883 102.159 195.001H102.226V192.18H103.334V199.772H102.252V198.886H102.159C102.092 199.007 101.996 199.146 101.87 199.301C101.746 199.457 101.576 199.593 101.358 199.709C101.141 199.825 100.859 199.883 100.513 199.883ZM100.758 198.938C101.077 198.938 101.346 198.854 101.566 198.686C101.788 198.516 101.956 198.28 102.07 197.978C102.186 197.677 102.244 197.326 102.244 196.925C102.244 196.53 102.187 196.184 102.074 195.887C101.96 195.591 101.793 195.36 101.573 195.194C101.353 195.029 101.082 194.946 100.758 194.946C100.424 194.946 100.146 195.032 99.9237 195.205C99.7013 195.378 99.5333 195.614 99.4196 195.913C99.3084 196.212 99.2528 196.55 99.2528 196.925C99.2528 197.306 99.3096 197.648 99.4233 197.952C99.537 198.256 99.705 198.497 99.9274 198.675C100.152 198.85 100.429 198.938 100.758 198.938ZM107.531 194.078V194.968H104.421V194.078H107.531ZM105.255 192.714H106.363V198.1C106.363 198.315 106.396 198.477 106.46 198.586C106.524 198.692 106.607 198.765 106.708 198.805C106.812 198.842 106.924 198.86 107.045 198.86C107.134 198.86 107.212 198.854 107.279 198.842C107.346 198.829 107.398 198.82 107.435 198.812L107.635 199.728C107.571 199.752 107.479 199.777 107.361 199.802C107.242 199.829 107.094 199.844 106.916 199.846C106.624 199.851 106.352 199.799 106.1 199.691C105.848 199.582 105.644 199.414 105.489 199.187C105.333 198.959 105.255 198.674 105.255 198.33V192.714ZM109.945 196.392V199.772H108.837V192.18H109.93V195.005H110.001C110.134 194.699 110.338 194.455 110.612 194.275C110.887 194.094 111.245 194.004 111.687 194.004C112.078 194.004 112.419 194.085 112.71 194.245C113.004 194.406 113.232 194.646 113.392 194.964C113.556 195.281 113.637 195.676 113.637 196.151V199.772H112.529V196.284C112.529 195.866 112.421 195.543 112.206 195.313C111.991 195.08 111.692 194.964 111.309 194.964C111.047 194.964 110.812 195.02 110.605 195.131C110.4 195.242 110.238 195.405 110.119 195.62C110.003 195.833 109.945 196.09 109.945 196.392Z" fill="#9A9A9A"/>
<rect x="133.632" y="186.293" width="55.6729" height="19.9591" rx="3.47956" fill="#191919"/>
<path d="M141.162 198.289V197.363L144.443 192.18H145.173V193.545H144.709L142.363 197.259V197.318H146.859V198.289H141.162ZM144.761 199.772V198.008L144.769 197.585V192.18H145.855V199.772H144.761ZM150.674 199.876C150.142 199.876 149.673 199.785 149.265 199.602C148.86 199.419 148.542 199.167 148.312 198.845C148.083 198.524 147.969 198.158 147.971 197.748C147.969 197.427 148.034 197.132 148.168 196.862C148.304 196.59 148.488 196.364 148.72 196.184C148.952 196.001 149.212 195.885 149.499 195.835V195.791C149.121 195.7 148.818 195.497 148.59 195.183C148.363 194.869 148.251 194.508 148.253 194.101C148.251 193.713 148.353 193.367 148.561 193.063C148.771 192.756 149.059 192.515 149.424 192.34C149.79 192.164 150.207 192.077 150.674 192.077C151.136 192.077 151.549 192.166 151.912 192.344C152.278 192.519 152.565 192.76 152.776 193.066C152.986 193.37 153.092 193.715 153.094 194.101C153.092 194.508 152.976 194.869 152.746 195.183C152.516 195.497 152.217 195.7 151.849 195.791V195.835C152.133 195.885 152.389 196.001 152.616 196.184C152.846 196.364 153.029 196.59 153.165 196.862C153.303 197.132 153.374 197.427 153.376 197.748C153.374 198.158 153.257 198.524 153.028 198.845C152.798 199.167 152.479 199.419 152.071 199.602C151.666 199.785 151.2 199.876 150.674 199.876ZM150.674 198.938C150.988 198.938 151.259 198.886 151.489 198.782C151.719 198.676 151.897 198.529 152.023 198.341C152.149 198.151 152.213 197.929 152.216 197.674C152.213 197.41 152.144 197.176 152.008 196.973C151.875 196.771 151.693 196.611 151.463 196.495C151.233 196.379 150.97 196.321 150.674 196.321C150.375 196.321 150.109 196.379 149.877 196.495C149.644 196.611 149.462 196.771 149.328 196.973C149.195 197.176 149.129 197.41 149.132 197.674C149.129 197.929 149.19 198.151 149.313 198.341C149.439 198.529 149.618 198.676 149.851 198.782C150.083 198.886 150.357 198.938 150.674 198.938ZM150.674 195.405C150.926 195.405 151.149 195.355 151.345 195.253C151.54 195.152 151.693 195.011 151.804 194.831C151.918 194.65 151.976 194.439 151.979 194.197C151.976 193.96 151.919 193.752 151.808 193.574C151.699 193.396 151.547 193.259 151.352 193.163C151.157 193.064 150.931 193.015 150.674 193.015C150.412 193.015 150.182 193.064 149.984 193.163C149.789 193.259 149.637 193.396 149.528 193.574C149.42 193.752 149.366 193.96 149.369 194.197C149.366 194.439 149.421 194.65 149.532 194.831C149.643 195.011 149.796 195.152 149.992 195.253C150.189 195.355 150.417 195.405 150.674 195.405ZM157.304 199.898C156.719 199.896 156.218 199.741 155.803 199.435C155.388 199.128 155.07 198.682 154.85 198.097C154.63 197.511 154.52 196.805 154.52 195.98C154.52 195.157 154.63 194.454 154.85 193.871C155.073 193.288 155.392 192.843 155.807 192.536C156.224 192.23 156.724 192.077 157.304 192.077C157.885 192.077 158.383 192.231 158.798 192.54C159.213 192.846 159.531 193.291 159.751 193.875C159.973 194.455 160.084 195.157 160.084 195.98C160.084 196.808 159.975 197.515 159.755 198.1C159.535 198.684 159.217 199.13 158.802 199.439C158.387 199.745 157.888 199.898 157.304 199.898ZM157.304 198.909C157.818 198.909 158.22 198.658 158.509 198.156C158.801 197.654 158.946 196.929 158.946 195.98C158.946 195.35 158.88 194.817 158.746 194.382C158.615 193.945 158.426 193.614 158.179 193.389C157.934 193.162 157.643 193.048 157.304 193.048C156.793 193.048 156.391 193.3 156.1 193.804C155.808 194.308 155.661 195.034 155.658 195.98C155.658 196.613 155.724 197.148 155.855 197.585C155.988 198.02 156.177 198.35 156.422 198.575C156.667 198.797 156.961 198.909 157.304 198.909Z" fill="white"/>
<path d="M86.3936 230.17H85.1777L87.9097 222.578H89.2331L91.9651 230.17H90.7492L88.6029 223.957H88.5436L86.3936 230.17ZM86.5974 227.197H90.5416V228.161H86.5974V227.197ZM94.038 226.789V230.17H92.9296V224.476H93.9935V225.403H94.0639C94.1949 225.102 94.4 224.859 94.6793 224.677C94.961 224.494 95.3156 224.402 95.7432 224.402C96.1312 224.402 96.471 224.484 96.7626 224.647C97.0542 224.807 97.2803 225.047 97.4409 225.366C97.6016 225.685 97.6819 226.079 97.6819 226.549V230.17H96.5735V226.682C96.5735 226.269 96.466 225.947 96.251 225.714C96.036 225.48 95.7407 225.362 95.3651 225.362C95.108 225.362 94.8795 225.418 94.6793 225.529C94.4816 225.64 94.3247 225.803 94.2085 226.018C94.0948 226.231 94.038 226.488 94.038 226.789ZM101.513 232.424C101.061 232.424 100.671 232.365 100.345 232.246C100.021 232.127 99.757 231.97 99.5519 231.775C99.3467 231.58 99.1935 231.366 99.0922 231.134L100.045 230.741C100.112 230.85 100.201 230.965 100.312 231.086C100.425 231.209 100.579 231.314 100.771 231.401C100.967 231.487 101.217 231.531 101.524 231.531C101.944 231.531 102.291 231.428 102.566 231.223C102.84 231.02 102.977 230.697 102.977 230.252V229.132H102.907C102.84 229.253 102.744 229.388 102.617 229.536C102.494 229.685 102.323 229.813 102.106 229.922C101.888 230.031 101.605 230.085 101.257 230.085C100.807 230.085 100.402 229.98 100.041 229.77C99.6828 229.557 99.3986 229.245 99.1886 228.832C98.981 228.417 98.8772 227.906 98.8772 227.301C98.8772 226.696 98.9798 226.177 99.1849 225.744C99.3925 225.312 99.6767 224.98 100.037 224.751C100.398 224.518 100.807 224.402 101.264 224.402C101.618 224.402 101.903 224.462 102.121 224.58C102.338 224.696 102.508 224.832 102.629 224.988C102.752 225.144 102.847 225.281 102.914 225.399H102.996V224.476H104.082V230.296C104.082 230.786 103.968 231.187 103.741 231.501C103.513 231.815 103.206 232.047 102.818 232.198C102.432 232.349 101.997 232.424 101.513 232.424ZM101.502 229.166C101.82 229.166 102.09 229.091 102.31 228.943C102.532 228.792 102.7 228.577 102.814 228.298C102.93 228.016 102.988 227.679 102.988 227.286C102.988 226.903 102.931 226.566 102.818 226.274C102.704 225.983 102.537 225.755 102.317 225.592C102.097 225.427 101.825 225.344 101.502 225.344C101.168 225.344 100.89 225.43 100.668 225.603C100.445 225.774 100.277 226.006 100.163 226.3C100.052 226.594 99.9967 226.923 99.9967 227.286C99.9967 227.659 100.054 227.987 100.167 228.269C100.281 228.55 100.449 228.77 100.671 228.928C100.896 229.087 101.173 229.166 101.502 229.166ZM106.634 222.578V230.17H105.525V222.578H106.634ZM110.536 230.285C109.975 230.285 109.492 230.165 109.087 229.926C108.684 229.683 108.372 229.344 108.152 228.906C107.935 228.466 107.826 227.951 107.826 227.36C107.826 226.777 107.935 226.263 108.152 225.818C108.372 225.373 108.679 225.026 109.072 224.777C109.467 224.527 109.929 224.402 110.458 224.402C110.779 224.402 111.091 224.455 111.392 224.562C111.694 224.668 111.964 224.835 112.204 225.062C112.444 225.289 112.633 225.585 112.771 225.948C112.91 226.309 112.979 226.747 112.979 227.264V227.657H108.453V226.827H111.893C111.893 226.535 111.833 226.277 111.715 226.052C111.596 225.824 111.429 225.645 111.214 225.514C111.002 225.383 110.752 225.318 110.466 225.318C110.154 225.318 109.882 225.394 109.65 225.548C109.42 225.698 109.242 225.896 109.116 226.141C108.993 226.383 108.931 226.646 108.931 226.93V227.579C108.931 227.96 108.998 228.283 109.131 228.55C109.267 228.817 109.456 229.021 109.698 229.162C109.94 229.3 110.223 229.369 110.547 229.369C110.757 229.369 110.949 229.34 111.122 229.281C111.295 229.219 111.444 229.127 111.57 229.006C111.696 228.885 111.793 228.736 111.859 228.558L112.908 228.747C112.824 229.056 112.674 229.326 112.456 229.559C112.241 229.788 111.971 229.968 111.644 230.096C111.321 230.222 110.951 230.285 110.536 230.285Z" fill="#9A9A9A"/>
<rect x="133.632" y="216.691" width="55.6729" height="19.9591" rx="3.47956" fill="#191919"/>
<path d="M143.965 230.296C143.379 230.294 142.878 230.139 142.463 229.833C142.048 229.526 141.731 229.08 141.511 228.495C141.291 227.909 141.181 227.203 141.181 226.378C141.181 225.555 141.291 224.852 141.511 224.269C141.733 223.686 142.052 223.241 142.467 222.934C142.885 222.628 143.384 222.475 143.965 222.475C144.545 222.475 145.043 222.629 145.458 222.938C145.874 223.244 146.191 223.689 146.411 224.272C146.634 224.853 146.745 225.555 146.745 226.378C146.745 227.206 146.635 227.913 146.415 228.498C146.195 229.082 145.877 229.528 145.462 229.837C145.047 230.143 144.548 230.296 143.965 230.296ZM143.965 229.306C144.479 229.306 144.88 229.056 145.169 228.554C145.461 228.052 145.607 227.327 145.607 226.378C145.607 225.748 145.54 225.215 145.407 224.78C145.276 224.343 145.087 224.012 144.839 223.787C144.595 223.559 144.303 223.446 143.965 223.446C143.453 223.446 143.051 223.698 142.76 224.202C142.468 224.706 142.321 225.431 142.319 226.378C142.319 227.011 142.384 227.546 142.515 227.983C142.649 228.418 142.838 228.748 143.082 228.973C143.327 229.195 143.621 229.306 143.965 229.306ZM149.622 226.471C149.012 226.471 148.532 226.262 148.184 225.844C147.838 225.424 147.665 224.845 147.665 224.106C147.665 223.367 147.838 222.792 148.184 222.382C148.532 221.969 149.012 221.763 149.622 221.763C150.228 221.763 150.705 221.968 151.053 222.378C151.404 222.786 151.579 223.362 151.579 224.106C151.579 224.852 151.404 225.433 151.053 225.848C150.705 226.263 150.228 226.471 149.622 226.471ZM149.622 225.707C149.933 225.707 150.182 225.574 150.367 225.307C150.555 225.037 150.649 224.637 150.649 224.106C150.649 223.574 150.555 223.175 150.367 222.908C150.182 222.641 149.933 222.508 149.622 222.508C149.316 222.508 149.069 222.641 148.881 222.908C148.693 223.175 148.599 223.574 148.599 224.106C148.599 224.632 148.69 225.031 148.873 225.303C149.059 225.572 149.308 225.707 149.622 225.707Z" fill="white"/>
<path d="M206.951 161.783H208.252L210.236 165.234H210.317L212.3 161.783H213.601L210.847 166.394V169.375H209.705V166.394L206.951 161.783Z" fill="#9A9A9A"/>
<rect x="255.417" y="155.895" width="55.6729" height="19.9591" rx="3.47956" fill="#191919"/>
<path d="M265.671 169.478C265.14 169.478 264.671 169.387 264.263 169.204C263.858 169.021 263.54 168.769 263.31 168.448C263.08 168.127 262.967 167.761 262.969 167.351C262.967 167.029 263.032 166.734 263.166 166.465C263.301 166.193 263.486 165.967 263.718 165.786C263.95 165.603 264.21 165.487 264.496 165.438V165.393C264.118 165.302 263.815 165.099 263.588 164.785C263.361 164.471 263.248 164.111 263.251 163.703C263.248 163.315 263.351 162.969 263.558 162.665C263.769 162.359 264.056 162.118 264.422 161.942C264.788 161.767 265.204 161.679 265.671 161.679C266.134 161.679 266.546 161.768 266.91 161.946C267.275 162.121 267.563 162.362 267.773 162.669C267.983 162.973 268.09 163.317 268.092 163.703C268.09 164.111 267.973 164.471 267.744 164.785C267.514 165.099 267.215 165.302 266.847 165.393V165.438C267.131 165.487 267.386 165.603 267.614 165.786C267.844 165.967 268.027 166.193 268.162 166.465C268.301 166.734 268.371 167.029 268.374 167.351C268.371 167.761 268.255 168.127 268.025 168.448C267.795 168.769 267.477 169.021 267.069 169.204C266.664 169.387 266.198 169.478 265.671 169.478ZM265.671 168.54C265.985 168.54 266.257 168.489 266.487 168.385C266.717 168.278 266.895 168.131 267.021 167.944C267.147 167.753 267.211 167.531 267.214 167.276C267.211 167.012 267.142 166.778 267.006 166.576C266.872 166.373 266.691 166.214 266.461 166.098C266.231 165.981 265.968 165.923 265.671 165.923C265.372 165.923 265.107 165.981 264.874 166.098C264.642 166.214 264.459 166.373 264.326 166.576C264.192 166.778 264.127 167.012 264.129 167.276C264.127 167.531 264.187 167.753 264.311 167.944C264.437 168.131 264.616 168.278 264.848 168.385C265.081 168.489 265.355 168.54 265.671 168.54ZM265.671 165.008C265.923 165.008 266.147 164.957 266.342 164.856C266.538 164.754 266.691 164.614 266.802 164.433C266.916 164.253 266.974 164.041 266.976 163.799C266.974 163.562 266.917 163.354 266.806 163.177C266.697 162.999 266.545 162.861 266.35 162.765C266.155 162.666 265.928 162.617 265.671 162.617C265.409 162.617 265.18 162.666 264.982 162.765C264.787 162.861 264.635 162.999 264.526 163.177C264.417 163.354 264.364 163.562 264.367 163.799C264.364 164.041 264.418 164.253 264.53 164.433C264.641 164.614 264.794 164.754 264.989 164.856C265.187 164.957 265.414 165.008 265.671 165.008ZM272.302 169.501C271.716 169.498 271.216 169.344 270.801 169.037C270.386 168.731 270.068 168.285 269.848 167.699C269.628 167.113 269.518 166.408 269.518 165.582C269.518 164.759 269.628 164.056 269.848 163.473C270.07 162.89 270.389 162.445 270.804 162.139C271.222 161.832 271.721 161.679 272.302 161.679C272.883 161.679 273.381 161.833 273.796 162.142C274.211 162.449 274.529 162.894 274.749 163.477C274.971 164.058 275.082 164.759 275.082 165.582C275.082 166.41 274.972 167.117 274.752 167.703C274.532 168.286 274.215 168.732 273.8 169.041C273.384 169.347 272.885 169.501 272.302 169.501ZM272.302 168.511C272.816 168.511 273.218 168.26 273.507 167.758C273.798 167.257 273.944 166.531 273.944 165.582C273.944 164.952 273.877 164.42 273.744 163.985C273.613 163.547 273.424 163.216 273.177 162.991C272.932 162.764 272.641 162.65 272.302 162.65C271.79 162.65 271.389 162.902 271.097 163.406C270.806 163.911 270.659 164.636 270.656 165.582C270.656 166.215 270.722 166.75 270.853 167.187C270.986 167.622 271.175 167.952 271.42 168.177C271.664 168.4 271.958 168.511 272.302 168.511ZM279.005 169.478C278.666 169.473 278.333 169.412 278.004 169.293C277.678 169.174 277.381 168.977 277.114 168.7C276.847 168.423 276.634 168.051 276.473 167.584C276.315 167.117 276.236 166.534 276.236 165.834C276.236 165.172 276.301 164.584 276.432 164.07C276.566 163.556 276.757 163.122 277.007 162.769C277.256 162.413 277.558 162.142 277.911 161.957C278.265 161.772 278.661 161.679 279.101 161.679C279.553 161.679 279.955 161.768 280.306 161.946C280.657 162.124 280.941 162.37 281.159 162.684C281.379 162.997 281.518 163.354 281.577 163.755H280.447C280.37 163.439 280.218 163.18 279.991 162.98C279.764 162.78 279.467 162.68 279.101 162.68C278.545 162.68 278.112 162.922 277.8 163.406C277.491 163.891 277.336 164.564 277.333 165.427H277.389C277.52 165.212 277.68 165.029 277.871 164.878C278.063 164.725 278.278 164.607 278.516 164.526C278.755 164.442 279.007 164.4 279.272 164.4C279.712 164.4 280.11 164.507 280.465 164.722C280.824 164.935 281.109 165.229 281.322 165.605C281.534 165.98 281.64 166.41 281.64 166.895C281.64 167.379 281.531 167.818 281.311 168.211C281.093 168.603 280.787 168.915 280.391 169.145C279.996 169.372 279.534 169.483 279.005 169.478ZM279.001 168.515C279.293 168.515 279.553 168.443 279.783 168.3C280.013 168.156 280.195 167.963 280.328 167.721C280.462 167.479 280.528 167.208 280.528 166.909C280.528 166.618 280.463 166.352 280.332 166.112C280.203 165.873 280.026 165.682 279.798 165.542C279.573 165.401 279.316 165.33 279.027 165.33C278.807 165.33 278.603 165.372 278.415 165.456C278.23 165.54 278.067 165.656 277.926 165.805C277.785 165.953 277.674 166.124 277.593 166.316C277.513 166.507 277.474 166.708 277.474 166.921C277.474 167.205 277.539 167.468 277.67 167.71C277.804 167.952 277.985 168.148 278.215 168.296C278.448 168.442 278.71 168.515 279.001 168.515Z" fill="white"/>
<path d="M207.537 199.772V192.18H208.682V195.48H212.467V192.18H213.616V199.772H212.467V196.462H208.682V199.772H207.537ZM217.607 199.887C217.046 199.887 216.562 199.767 216.157 199.528C215.754 199.285 215.443 198.946 215.223 198.508C215.006 198.068 214.897 197.553 214.897 196.962C214.897 196.379 215.006 195.865 215.223 195.42C215.443 194.975 215.749 194.628 216.142 194.379C216.538 194.129 217 194.004 217.529 194.004C217.85 194.004 218.161 194.057 218.463 194.164C218.764 194.27 219.035 194.437 219.275 194.664C219.514 194.891 219.703 195.187 219.842 195.55C219.98 195.911 220.049 196.349 220.049 196.866V197.259H215.523V196.429H218.963C218.963 196.137 218.904 195.879 218.785 195.654C218.667 195.426 218.5 195.247 218.285 195.116C218.072 194.985 217.823 194.92 217.536 194.92C217.225 194.92 216.953 194.996 216.721 195.15C216.491 195.3 216.313 195.498 216.187 195.743C216.063 195.985 216.002 196.248 216.002 196.532V197.181C216.002 197.562 216.068 197.885 216.202 198.152C216.338 198.419 216.527 198.623 216.769 198.764C217.011 198.902 217.294 198.972 217.618 198.972C217.828 198.972 218.019 198.942 218.192 198.883C218.365 198.821 218.515 198.729 218.641 198.608C218.767 198.487 218.863 198.338 218.93 198.16L219.979 198.349C219.895 198.658 219.744 198.928 219.527 199.161C219.312 199.39 219.041 199.57 218.715 199.698C218.391 199.824 218.022 199.887 217.607 199.887ZM221.236 199.772V194.078H222.345V199.772H221.236ZM221.796 193.2C221.603 193.2 221.438 193.136 221.299 193.007C221.164 192.876 221.096 192.72 221.096 192.54C221.096 192.357 221.164 192.201 221.299 192.073C221.438 191.942 221.603 191.876 221.796 191.876C221.989 191.876 222.153 191.942 222.289 192.073C222.428 192.201 222.497 192.357 222.497 192.54C222.497 192.72 222.428 192.876 222.289 193.007C222.153 193.136 221.989 193.2 221.796 193.2ZM226.18 202.026C225.728 202.026 225.339 201.967 225.013 201.848C224.689 201.729 224.425 201.573 224.219 201.377C224.014 201.182 223.861 200.968 223.76 200.736L224.712 200.343C224.779 200.452 224.868 200.567 224.979 200.688C225.093 200.811 225.246 200.916 225.439 201.003C225.634 201.089 225.885 201.133 226.191 201.133C226.612 201.133 226.959 201.03 227.233 200.825C227.507 200.622 227.645 200.299 227.645 199.854V198.734H227.574C227.507 198.855 227.411 198.99 227.285 199.138C227.161 199.287 226.991 199.415 226.773 199.524C226.556 199.633 226.273 199.687 225.925 199.687C225.475 199.687 225.07 199.582 224.709 199.372C224.35 199.159 224.066 198.847 223.856 198.434C223.649 198.019 223.545 197.509 223.545 196.903C223.545 196.298 223.647 195.779 223.852 195.346C224.06 194.914 224.344 194.583 224.705 194.353C225.066 194.12 225.475 194.004 225.932 194.004C226.285 194.004 226.571 194.064 226.788 194.182C227.006 194.298 227.175 194.434 227.296 194.59C227.42 194.746 227.515 194.883 227.582 195.001H227.663V194.078H228.749V199.898C228.749 200.388 228.636 200.789 228.408 201.103C228.181 201.417 227.873 201.649 227.485 201.8C227.1 201.951 226.665 202.026 226.18 202.026ZM226.169 198.768C226.488 198.768 226.757 198.694 226.977 198.545C227.2 198.394 227.368 198.179 227.481 197.9C227.598 197.618 227.656 197.281 227.656 196.888C227.656 196.505 227.599 196.168 227.485 195.876C227.372 195.585 227.205 195.357 226.985 195.194C226.765 195.029 226.493 194.946 226.169 194.946C225.836 194.946 225.558 195.032 225.335 195.205C225.113 195.376 224.945 195.608 224.831 195.902C224.72 196.196 224.664 196.525 224.664 196.888C224.664 197.261 224.721 197.589 224.835 197.871C224.948 198.152 225.116 198.372 225.339 198.53C225.564 198.689 225.841 198.768 226.169 198.768ZM231.301 196.392V199.772H230.193V192.18H231.286V195.005H231.357C231.49 194.699 231.694 194.455 231.969 194.275C232.243 194.094 232.601 194.004 233.044 194.004C233.434 194.004 233.775 194.085 234.067 194.245C234.361 194.406 234.588 194.646 234.749 194.964C234.912 195.281 234.993 195.676 234.993 196.151V199.772H233.885V196.284C233.885 195.866 233.778 195.543 233.563 195.313C233.348 195.08 233.048 194.964 232.665 194.964C232.403 194.964 232.169 195.02 231.961 195.131C231.756 195.242 231.594 195.405 231.476 195.62C231.359 195.833 231.301 196.09 231.301 196.392ZM239.088 194.078V194.968H235.977V194.078H239.088ZM236.811 192.714H237.92V198.1C237.92 198.315 237.952 198.477 238.016 198.586C238.08 198.692 238.163 198.765 238.265 198.805C238.368 198.842 238.481 198.86 238.602 198.86C238.691 198.86 238.769 198.854 238.835 198.842C238.902 198.829 238.954 198.82 238.991 198.812L239.191 199.728C239.127 199.752 239.036 199.777 238.917 199.802C238.798 199.829 238.65 199.844 238.472 199.846C238.181 199.851 237.909 199.799 237.657 199.691C237.405 199.582 237.201 199.414 237.045 199.187C236.889 198.959 236.811 198.674 236.811 198.33V192.714Z" fill="#9A9A9A"/>
<rect x="255.417" y="186.293" width="55.6729" height="19.9591" rx="3.47956" fill="#191919"/>
<path d="M265.749 199.876C265.24 199.876 264.785 199.788 264.385 199.613C263.987 199.437 263.672 199.194 263.44 198.883C263.21 198.569 263.086 198.205 263.069 197.793H264.233C264.248 198.018 264.323 198.213 264.459 198.378C264.597 198.542 264.778 198.668 265 198.757C265.223 198.845 265.47 198.89 265.742 198.89C266.041 198.89 266.305 198.838 266.535 198.734C266.767 198.63 266.949 198.486 267.08 198.301C267.211 198.113 267.276 197.897 267.276 197.652C267.276 197.397 267.211 197.174 267.08 196.981C266.951 196.786 266.762 196.632 266.513 196.521C266.266 196.41 265.966 196.354 265.616 196.354H264.974V195.42H265.616C265.897 195.42 266.144 195.37 266.357 195.268C266.572 195.167 266.74 195.026 266.861 194.846C266.982 194.663 267.043 194.449 267.043 194.204C267.043 193.97 266.99 193.766 266.883 193.593C266.78 193.417 266.631 193.28 266.439 193.181C266.248 193.082 266.023 193.033 265.764 193.033C265.517 193.033 265.286 193.079 265.071 193.17C264.858 193.259 264.685 193.388 264.552 193.556C264.418 193.721 264.347 193.92 264.337 194.153H263.228C263.241 193.742 263.362 193.381 263.592 193.07C263.824 192.759 264.13 192.515 264.511 192.34C264.891 192.164 265.314 192.077 265.779 192.077C266.266 192.077 266.686 192.172 267.039 192.362C267.395 192.55 267.669 192.801 267.862 193.115C268.057 193.428 268.154 193.772 268.151 194.145C268.154 194.57 268.035 194.931 267.795 195.228C267.558 195.524 267.242 195.723 266.846 195.824V195.884C267.35 195.96 267.741 196.16 268.018 196.484C268.297 196.808 268.435 197.21 268.433 197.689C268.435 198.107 268.319 198.481 268.084 198.812C267.852 199.143 267.535 199.404 267.132 199.594C266.729 199.782 266.268 199.876 265.749 199.876ZM269.791 199.772V198.942L272.36 196.28C272.634 195.991 272.861 195.738 273.039 195.52C273.219 195.3 273.354 195.092 273.443 194.894C273.532 194.696 273.576 194.486 273.576 194.264C273.576 194.012 273.517 193.794 273.398 193.611C273.279 193.426 273.118 193.284 272.912 193.185C272.707 193.084 272.476 193.033 272.219 193.033C271.947 193.033 271.71 193.089 271.508 193.2C271.305 193.311 271.149 193.468 271.04 193.671C270.932 193.873 270.877 194.111 270.877 194.382H269.784C269.784 193.92 269.89 193.516 270.103 193.17C270.315 192.824 270.607 192.556 270.977 192.366C271.348 192.173 271.77 192.077 272.242 192.077C272.718 192.077 273.139 192.172 273.502 192.362C273.868 192.55 274.153 192.807 274.358 193.133C274.563 193.457 274.666 193.823 274.666 194.23C274.666 194.512 274.613 194.788 274.506 195.057C274.403 195.326 274.221 195.627 273.962 195.958C273.702 196.286 273.341 196.686 272.879 197.155L271.37 198.734V198.79H274.788V199.772H269.791ZM278.793 199.898C278.208 199.896 277.707 199.741 277.292 199.435C276.877 199.128 276.559 198.682 276.339 198.097C276.119 197.511 276.009 196.805 276.009 195.98C276.009 195.157 276.119 194.454 276.339 193.871C276.562 193.288 276.881 192.843 277.296 192.536C277.713 192.23 278.213 192.077 278.793 192.077C279.374 192.077 279.872 192.231 280.287 192.54C280.702 192.846 281.02 193.291 281.24 193.875C281.462 194.455 281.574 195.157 281.574 195.98C281.574 196.808 281.464 197.515 281.244 198.1C281.024 198.684 280.706 199.13 280.291 199.439C279.876 199.745 279.377 199.898 278.793 199.898ZM278.793 198.909C279.307 198.909 279.709 198.658 279.998 198.156C280.29 197.654 280.435 196.929 280.435 195.98C280.435 195.35 280.369 194.817 280.235 194.382C280.104 193.945 279.915 193.614 279.668 193.389C279.424 193.162 279.132 193.048 278.793 193.048C278.282 193.048 277.88 193.3 277.589 193.804C277.297 194.308 277.15 195.034 277.147 195.98C277.147 196.613 277.213 197.148 277.344 197.585C277.477 198.02 277.666 198.35 277.911 198.575C278.156 198.797 278.45 198.909 278.793 198.909Z" fill="white"/>
<path d="M207.537 230.17V222.578H210.243C210.831 222.578 211.319 222.68 211.707 222.882C212.098 223.085 212.389 223.366 212.582 223.724C212.775 224.08 212.871 224.491 212.871 224.958C212.871 225.423 212.774 225.832 212.578 226.185C212.386 226.536 212.094 226.809 211.704 227.004C211.316 227.2 210.827 227.297 210.239 227.297H208.189V226.311H210.135C210.506 226.311 210.808 226.258 211.04 226.152C211.275 226.046 211.446 225.891 211.555 225.689C211.664 225.486 211.718 225.242 211.718 224.958C211.718 224.672 211.663 224.423 211.552 224.213C211.443 224.003 211.271 223.842 211.036 223.731C210.804 223.618 210.499 223.561 210.121 223.561H208.682V230.17H207.537ZM211.285 226.745L213.16 230.17H211.855L210.017 226.745H211.285ZM215.79 230.296C215.429 230.296 215.103 230.229 214.812 230.096C214.52 229.96 214.289 229.764 214.118 229.507C213.95 229.25 213.866 228.935 213.866 228.561C213.866 228.24 213.928 227.976 214.052 227.768C214.175 227.56 214.342 227.396 214.552 227.275C214.762 227.154 214.997 227.063 215.256 227.001C215.516 226.939 215.78 226.892 216.05 226.86C216.391 226.82 216.668 226.788 216.88 226.764C217.093 226.736 217.247 226.693 217.343 226.634C217.44 226.574 217.488 226.478 217.488 226.345V226.319C217.488 225.995 217.397 225.744 217.214 225.566C217.033 225.388 216.764 225.299 216.406 225.299C216.032 225.299 215.738 225.382 215.523 225.548C215.311 225.711 215.164 225.892 215.082 226.093L214.041 225.855C214.164 225.509 214.345 225.23 214.582 225.018C214.821 224.803 215.097 224.647 215.408 224.55C215.72 224.452 216.047 224.402 216.391 224.402C216.618 224.402 216.859 224.429 217.114 224.484C217.371 224.536 217.61 224.632 217.833 224.773C218.058 224.914 218.242 225.115 218.385 225.377C218.528 225.637 218.6 225.974 218.6 226.389V230.17H217.518V229.392H217.473C217.401 229.535 217.294 229.676 217.151 229.814C217.007 229.953 216.823 230.068 216.598 230.159C216.373 230.25 216.104 230.296 215.79 230.296ZM216.031 229.407C216.338 229.407 216.6 229.346 216.817 229.225C217.037 229.104 217.204 228.946 217.317 228.75C217.434 228.553 217.492 228.341 217.492 228.117V227.383C217.452 227.422 217.376 227.459 217.262 227.494C217.151 227.526 217.023 227.554 216.88 227.579C216.737 227.601 216.597 227.622 216.461 227.642C216.325 227.659 216.212 227.674 216.12 227.687C215.905 227.714 215.709 227.759 215.531 227.824C215.355 227.888 215.214 227.981 215.108 228.102C215.004 228.22 214.952 228.378 214.952 228.576C214.952 228.851 215.054 229.058 215.256 229.199C215.459 229.337 215.717 229.407 216.031 229.407ZM222.165 230.281C221.705 230.281 221.295 230.164 220.934 229.929C220.576 229.692 220.294 229.355 220.089 228.917C219.887 228.477 219.785 227.95 219.785 227.334C219.785 226.719 219.888 226.193 220.093 225.755C220.3 225.318 220.585 224.983 220.945 224.751C221.306 224.518 221.715 224.402 222.172 224.402C222.526 224.402 222.81 224.462 223.025 224.58C223.242 224.696 223.411 224.832 223.529 224.988C223.65 225.144 223.744 225.281 223.811 225.399H223.878V222.578H224.986V230.17H223.904V229.284H223.811C223.744 229.405 223.648 229.544 223.522 229.699C223.398 229.855 223.228 229.991 223.01 230.107C222.793 230.223 222.511 230.281 222.165 230.281ZM222.41 229.336C222.728 229.336 222.998 229.252 223.218 229.084C223.44 228.914 223.608 228.678 223.722 228.376C223.838 228.075 223.896 227.724 223.896 227.323C223.896 226.928 223.839 226.582 223.726 226.285C223.612 225.989 223.445 225.758 223.225 225.592C223.005 225.427 222.733 225.344 222.41 225.344C222.076 225.344 221.798 225.43 221.576 225.603C221.353 225.776 221.185 226.012 221.071 226.311C220.96 226.61 220.905 226.948 220.905 227.323C220.905 227.704 220.962 228.046 221.075 228.35C221.189 228.654 221.357 228.895 221.579 229.073C221.804 229.248 222.081 229.336 222.41 229.336ZM226.525 230.17V224.476H227.633V230.17H226.525ZM227.085 223.598C226.892 223.598 226.727 223.534 226.588 223.405C226.452 223.274 226.384 223.118 226.384 222.938C226.384 222.755 226.452 222.599 226.588 222.471C226.727 222.34 226.892 222.274 227.085 222.274C227.278 222.274 227.442 222.34 227.578 222.471C227.716 222.599 227.785 222.755 227.785 222.938C227.785 223.118 227.716 223.274 227.578 223.405C227.442 223.534 227.278 223.598 227.085 223.598ZM232.689 227.809V224.476H233.801V230.17H232.711V229.184H232.652C232.521 229.488 232.311 229.741 232.021 229.944C231.735 230.144 231.378 230.244 230.95 230.244C230.584 230.244 230.261 230.164 229.979 230.003C229.7 229.84 229.48 229.599 229.319 229.281C229.161 228.962 229.082 228.568 229.082 228.098V224.476H230.19V227.965C230.19 228.353 230.298 228.661 230.513 228.891C230.728 229.121 231.007 229.236 231.35 229.236C231.558 229.236 231.764 229.184 231.969 229.08C232.177 228.977 232.349 228.82 232.485 228.61C232.623 228.399 232.691 228.133 232.689 227.809ZM239.514 225.866L238.509 226.044C238.467 225.916 238.4 225.794 238.309 225.677C238.22 225.561 238.099 225.466 237.946 225.392C237.793 225.318 237.601 225.281 237.371 225.281C237.057 225.281 236.795 225.351 236.585 225.492C236.375 225.63 236.27 225.81 236.27 226.03C236.27 226.22 236.341 226.373 236.482 226.489C236.622 226.605 236.85 226.7 237.164 226.775L238.068 226.982C238.592 227.103 238.982 227.29 239.239 227.542C239.497 227.794 239.625 228.121 239.625 228.524C239.625 228.865 239.526 229.169 239.328 229.436C239.133 229.701 238.86 229.908 238.509 230.059C238.161 230.21 237.757 230.285 237.297 230.285C236.659 230.285 236.139 230.149 235.736 229.877C235.334 229.603 235.087 229.214 234.995 228.71L236.066 228.547C236.133 228.826 236.27 229.037 236.478 229.18C236.685 229.321 236.956 229.392 237.29 229.392C237.653 229.392 237.943 229.316 238.161 229.166C238.378 229.012 238.487 228.826 238.487 228.606C238.487 228.428 238.42 228.278 238.287 228.157C238.156 228.036 237.954 227.945 237.683 227.883L236.719 227.672C236.187 227.551 235.795 227.358 235.54 227.093C235.288 226.829 235.162 226.494 235.162 226.089C235.162 225.753 235.256 225.459 235.444 225.207C235.631 224.955 235.891 224.758 236.222 224.617C236.553 224.474 236.933 224.402 237.36 224.402C237.975 224.402 238.46 224.536 238.813 224.803C239.167 225.067 239.4 225.422 239.514 225.866Z" fill="#9A9A9A"/>
<rect x="255.417" y="216.691" width="55.6729" height="19.9591" rx="3.47956" fill="#191919"/>
<path d="M265.749 230.296C265.164 230.294 264.663 230.139 264.248 229.833C263.833 229.526 263.515 229.08 263.295 228.495C263.075 227.909 262.965 227.203 262.965 226.378C262.965 225.555 263.075 224.852 263.295 224.269C263.518 223.686 263.837 223.241 264.252 222.934C264.669 222.628 265.169 222.475 265.749 222.475C266.33 222.475 266.828 222.629 267.243 222.938C267.658 223.244 267.976 223.689 268.196 224.272C268.418 224.853 268.529 225.555 268.529 226.378C268.529 227.206 268.419 227.913 268.2 228.498C267.98 229.082 267.662 229.528 267.247 229.837C266.832 230.143 266.332 230.296 265.749 230.296ZM265.749 229.306C266.263 229.306 266.665 229.056 266.954 228.554C267.246 228.052 267.391 227.327 267.391 226.378C267.391 225.748 267.325 225.215 267.191 224.78C267.06 224.343 266.871 224.012 266.624 223.787C266.379 223.559 266.088 223.446 265.749 223.446C265.238 223.446 264.836 223.698 264.545 224.202C264.253 224.706 264.106 225.431 264.103 226.378C264.103 227.011 264.169 227.546 264.3 227.983C264.433 228.418 264.622 228.748 264.867 228.973C265.112 229.195 265.406 229.306 265.749 229.306Z" fill="white"/>
<mask id="path-54-inside-6_6_1352" fill="white">
<path d="M81.4387 254.048H311.09V301.843H81.4387V254.048Z"/>
</mask>
<path d="M81.4387 254.744H311.09V253.352H81.4387V254.744ZM311.09 301.147H81.4387V302.539H311.09V301.147Z" fill="#303030" mask="url(#path-54-inside-6_6_1352)"/>
<path d="M93.0784 277.833C93.0784 278.719 92.9124 279.478 92.5804 280.11C92.2511 280.739 91.8013 281.221 91.2311 281.556C90.6635 281.89 90.0197 282.058 89.2995 282.058C88.5793 282.058 87.9341 281.89 87.3639 281.556C86.7963 281.218 86.3465 280.735 86.0145 280.106C85.6852 279.474 85.5206 278.717 85.5206 277.833C85.5206 276.947 85.6852 276.189 86.0145 275.56C86.3465 274.928 86.7963 274.445 87.3639 274.11C87.9341 273.776 88.5793 273.608 89.2995 273.608C90.0197 273.608 90.6635 273.776 91.2311 274.11C91.8013 274.445 92.2511 274.928 92.5804 275.56C92.9124 276.189 93.0784 276.947 93.0784 277.833ZM91.5805 277.833C91.5805 277.209 91.4828 276.683 91.2873 276.255C91.0946 275.824 90.8268 275.499 90.4841 275.279C90.1415 275.057 89.7466 274.946 89.2995 274.946C88.8524 274.946 88.4575 275.057 88.1148 275.279C87.7721 275.499 87.5031 275.824 87.3076 276.255C87.1149 276.683 87.0185 277.209 87.0185 277.833C87.0185 278.457 87.1149 278.984 87.3076 279.415C87.5031 279.844 87.7721 280.169 88.1148 280.391C88.4575 280.611 88.8524 280.72 89.2995 280.72C89.7466 280.72 90.1415 280.611 90.4841 280.391C90.8268 280.169 91.0946 279.844 91.2873 279.415C91.4828 278.984 91.5805 278.457 91.5805 277.833ZM94.3763 284.258V275.777H95.8059V276.797H95.8903C95.9652 276.647 96.071 276.488 96.2075 276.319C96.3441 276.148 96.5288 276.002 96.7617 275.881C96.9946 275.758 97.2918 275.697 97.6532 275.697C98.1298 275.697 98.5595 275.819 98.9423 276.062C99.3278 276.303 99.633 276.66 99.8579 277.134C100.085 277.606 100.199 278.184 100.199 278.869C100.199 279.547 100.088 280.122 99.8659 280.596C99.6437 281.07 99.3412 281.431 98.9584 281.68C98.5755 281.929 98.1418 282.054 97.6572 282.054C97.3038 282.054 97.0107 281.995 96.7778 281.877C96.5449 281.759 96.3574 281.617 96.2156 281.451C96.0763 281.283 95.9679 281.123 95.8903 280.973H95.83V284.258H94.3763ZM95.8019 278.861C95.8019 279.26 95.8581 279.609 95.9706 279.909C96.0857 280.209 96.2504 280.443 96.4645 280.612C96.6814 280.778 96.9438 280.861 97.2516 280.861C97.5729 280.861 97.842 280.775 98.0588 280.604C98.2757 280.43 98.439 280.193 98.5487 279.893C98.6612 279.591 98.7174 279.247 98.7174 278.861C98.7174 278.478 98.6625 278.138 98.5528 277.841C98.443 277.544 98.2797 277.311 98.0628 277.142C97.846 276.974 97.5756 276.889 97.2516 276.889C96.9411 276.889 96.6774 276.971 96.4605 277.134C96.2437 277.298 96.079 277.527 95.9666 277.821C95.8568 278.116 95.8019 278.462 95.8019 278.861ZM103.173 282.07C102.782 282.07 102.43 282 102.117 281.861C101.806 281.719 101.56 281.51 101.378 281.235C101.198 280.959 101.109 280.619 101.109 280.214C101.109 279.866 101.173 279.579 101.301 279.351C101.43 279.124 101.605 278.941 101.827 278.805C102.05 278.668 102.3 278.565 102.578 278.496C102.86 278.423 103.15 278.371 103.45 278.339C103.811 278.302 104.104 278.268 104.329 278.239C104.554 278.207 104.718 278.158 104.819 278.094C104.924 278.027 104.976 277.924 104.976 277.785V277.761C104.976 277.458 104.886 277.224 104.707 277.058C104.527 276.892 104.269 276.809 103.932 276.809C103.576 276.809 103.293 276.887 103.084 277.042C102.878 277.197 102.739 277.381 102.667 277.592L101.309 277.399C101.417 277.025 101.593 276.711 101.84 276.46C102.086 276.205 102.387 276.015 102.743 275.889C103.099 275.761 103.493 275.697 103.924 275.697C104.221 275.697 104.517 275.731 104.811 275.801C105.106 275.871 105.375 275.986 105.618 276.146C105.862 276.304 106.057 276.52 106.205 276.793C106.355 277.066 106.43 277.407 106.43 277.817V281.945H105.032V281.098H104.984C104.896 281.269 104.771 281.43 104.61 281.58C104.452 281.727 104.253 281.846 104.012 281.937C103.774 282.026 103.494 282.07 103.173 282.07ZM103.55 281.002C103.842 281.002 104.095 280.944 104.309 280.829C104.523 280.711 104.688 280.556 104.803 280.363C104.921 280.17 104.98 279.96 104.98 279.733V279.006C104.934 279.043 104.857 279.078 104.747 279.11C104.64 279.142 104.519 279.17 104.386 279.194C104.252 279.219 104.119 279.24 103.988 279.259C103.857 279.277 103.743 279.294 103.647 279.307C103.43 279.336 103.236 279.385 103.064 279.451C102.893 279.518 102.758 279.612 102.659 279.733C102.56 279.85 102.51 280.003 102.51 280.19C102.51 280.458 102.608 280.66 102.803 280.797C102.999 280.933 103.248 281.002 103.55 281.002ZM110.536 282.066C109.92 282.066 109.391 281.931 108.949 281.66C108.51 281.39 108.172 281.016 107.933 280.54C107.698 280.061 107.58 279.509 107.58 278.885C107.58 278.259 107.7 277.706 107.941 277.227C108.182 276.745 108.522 276.37 108.961 276.102C109.403 275.832 109.925 275.697 110.528 275.697C111.028 275.697 111.471 275.789 111.857 275.974C112.245 276.156 112.554 276.414 112.784 276.749C113.015 277.081 113.146 277.469 113.178 277.913H111.789C111.732 277.616 111.598 277.369 111.387 277.17C111.178 276.97 110.898 276.869 110.548 276.869C110.25 276.869 109.989 276.95 109.765 277.11C109.54 277.268 109.364 277.496 109.239 277.793C109.115 278.09 109.054 278.446 109.054 278.861C109.054 279.281 109.115 279.643 109.239 279.945C109.362 280.245 109.534 280.477 109.757 280.64C109.981 280.801 110.245 280.881 110.548 280.881C110.762 280.881 110.953 280.841 111.122 280.761C111.293 280.678 111.437 280.559 111.552 280.403C111.667 280.248 111.746 280.059 111.789 279.837H113.178C113.143 280.273 113.015 280.66 112.793 280.998C112.57 281.332 112.268 281.595 111.885 281.785C111.502 281.972 111.052 282.066 110.536 282.066ZM114.325 281.945V275.777H115.779V281.945H114.325ZM115.056 274.902C114.826 274.902 114.628 274.825 114.462 274.673C114.296 274.517 114.213 274.331 114.213 274.114C114.213 273.895 114.296 273.709 114.462 273.556C114.628 273.401 114.826 273.323 115.056 273.323C115.289 273.323 115.487 273.401 115.651 273.556C115.817 273.709 115.9 273.895 115.9 274.114C115.9 274.331 115.817 274.517 115.651 274.673C115.487 274.825 115.289 274.902 115.056 274.902ZM120.308 275.777V276.901H116.762V275.777H120.308ZM117.637 274.299H119.091V280.09C119.091 280.285 119.12 280.435 119.179 280.54C119.241 280.642 119.321 280.711 119.42 280.749C119.519 280.786 119.629 280.805 119.75 280.805C119.841 280.805 119.924 280.798 119.999 280.785C120.076 280.771 120.135 280.759 120.175 280.749L120.42 281.885C120.343 281.912 120.231 281.941 120.087 281.973C119.945 282.006 119.771 282.024 119.565 282.03C119.201 282.04 118.873 281.985 118.581 281.865C118.289 281.742 118.058 281.552 117.886 281.295C117.718 281.038 117.635 280.716 117.637 280.331V274.299ZM122.381 284.258C122.183 284.258 121.999 284.242 121.831 284.21C121.665 284.181 121.532 284.146 121.433 284.106L121.77 282.973C121.982 283.035 122.171 283.064 122.337 283.062C122.503 283.059 122.648 283.007 122.774 282.905C122.903 282.806 123.011 282.64 123.1 282.407L123.224 282.074L120.987 275.777H122.529L123.951 280.435H124.015L125.441 275.777H126.987L124.517 282.692C124.402 283.019 124.249 283.299 124.059 283.532C123.869 283.767 123.636 283.947 123.361 284.07C123.088 284.196 122.761 284.258 122.381 284.258Z" fill="white"/>
<rect x="251.937" y="267.966" width="55.6729" height="19.9591" rx="3.47956" fill="#191919"/>
<path d="M262.507 273.854V281.446H261.358V275.003H261.313L259.497 276.189V275.092L261.391 273.854H262.507ZM267.161 281.572C266.575 281.569 266.075 281.415 265.659 281.108C265.244 280.802 264.927 280.356 264.707 279.77C264.487 279.184 264.377 278.479 264.377 277.653C264.377 276.83 264.487 276.127 264.707 275.544C264.929 274.961 265.248 274.516 265.663 274.21C266.081 273.903 266.58 273.75 267.161 273.75C267.741 273.75 268.239 273.904 268.655 274.213C269.07 274.52 269.387 274.965 269.607 275.548C269.83 276.129 269.941 276.83 269.941 277.653C269.941 278.481 269.831 279.188 269.611 279.774C269.391 280.357 269.073 280.803 268.658 281.112C268.243 281.418 267.744 281.572 267.161 281.572ZM267.161 280.582C267.675 280.582 268.076 280.331 268.365 279.829C268.657 279.328 268.803 278.602 268.803 277.653C268.803 277.023 268.736 276.491 268.603 276.056C268.472 275.618 268.283 275.287 268.035 275.062C267.791 274.835 267.499 274.721 267.161 274.721C266.649 274.721 266.248 274.973 265.956 275.477C265.664 275.982 265.517 276.707 265.515 277.653C265.515 278.286 265.58 278.821 265.711 279.258C265.845 279.693 266.034 280.023 266.278 280.248C266.523 280.471 266.817 280.582 267.161 280.582ZM273.856 281.572C273.27 281.569 272.77 281.415 272.355 281.108C271.94 280.802 271.622 280.356 271.402 279.77C271.182 279.184 271.072 278.479 271.072 277.653C271.072 276.83 271.182 276.127 271.402 275.544C271.625 274.961 271.943 274.516 272.358 274.21C272.776 273.903 273.275 273.75 273.856 273.75C274.437 273.75 274.935 273.904 275.35 274.213C275.765 274.52 276.083 274.965 276.303 275.548C276.525 276.129 276.636 276.83 276.636 277.653C276.636 278.481 276.526 279.188 276.306 279.774C276.086 280.357 275.769 280.803 275.354 281.112C274.939 281.418 274.439 281.572 273.856 281.572ZM273.856 280.582C274.37 280.582 274.772 280.331 275.061 279.829C275.352 279.328 275.498 278.602 275.498 277.653C275.498 277.023 275.432 276.491 275.298 276.056C275.167 275.618 274.978 275.287 274.731 275.062C274.486 274.835 274.195 274.721 273.856 274.721C273.345 274.721 272.943 274.973 272.651 275.477C272.36 275.982 272.213 276.707 272.21 277.653C272.21 278.286 272.276 278.821 272.407 279.258C272.54 279.693 272.729 280.023 272.974 280.248C273.219 280.471 273.513 280.582 273.856 280.582ZM281.871 280.022V279.622C281.871 279.335 281.931 279.073 282.049 278.836C282.17 278.596 282.346 278.405 282.576 278.261C282.808 278.116 283.088 278.043 283.417 278.043C283.753 278.043 284.035 278.114 284.262 278.258C284.49 278.401 284.661 278.592 284.777 278.832C284.896 279.072 284.955 279.335 284.955 279.622V280.022C284.955 280.309 284.896 280.572 284.777 280.812C284.659 281.049 284.485 281.24 284.255 281.386C284.027 281.53 283.748 281.601 283.417 281.601C283.083 281.601 282.802 281.53 282.572 281.386C282.342 281.24 282.168 281.049 282.049 280.812C281.931 280.572 281.871 280.309 281.871 280.022ZM282.735 279.622V280.022C282.735 280.235 282.786 280.427 282.887 280.6C282.988 280.773 283.165 280.86 283.417 280.86C283.667 280.86 283.841 280.773 283.94 280.6C284.039 280.427 284.088 280.235 284.088 280.022V279.622C284.088 279.409 284.04 279.216 283.943 279.043C283.849 278.87 283.674 278.784 283.417 278.784C283.17 278.784 282.994 278.87 282.891 279.043C282.787 279.216 282.735 279.409 282.735 279.622ZM278.053 275.678V275.277C278.053 274.991 278.112 274.727 278.231 274.488C278.352 274.248 278.528 274.056 278.757 273.913C278.99 273.77 279.27 273.698 279.599 273.698C279.935 273.698 280.217 273.77 280.444 273.913C280.671 274.056 280.843 274.248 280.959 274.488C281.075 274.727 281.134 274.991 281.134 275.277V275.678C281.134 275.964 281.074 276.227 280.956 276.467C280.839 276.704 280.666 276.896 280.437 277.042C280.209 277.185 279.93 277.257 279.599 277.257C279.263 277.257 278.98 277.185 278.75 277.042C278.523 276.896 278.35 276.704 278.231 276.467C278.112 276.227 278.053 275.964 278.053 275.678ZM278.92 275.277V275.678C278.92 275.89 278.97 276.083 279.069 276.256C279.17 276.429 279.347 276.515 279.599 276.515C279.846 276.515 280.019 276.429 280.118 276.256C280.219 276.083 280.27 275.89 280.27 275.678V275.277C280.27 275.065 280.222 274.872 280.125 274.699C280.029 274.526 279.853 274.439 279.599 274.439C279.352 274.439 279.176 274.526 279.072 274.699C278.971 274.872 278.92 275.065 278.92 275.277ZM278.405 281.446L283.625 273.854H284.511L279.291 281.446H278.405Z" fill="#F6F6F6"/>
<g filter="url(#filter7_i_6_1352)">
<path d="M81.4387 329.68C81.4387 323.915 86.1123 319.241 91.8774 319.241H300.651C306.416 319.241 311.09 323.915 311.09 329.68V347.077C311.09 352.843 306.416 357.516 300.651 357.516H91.8774C86.1123 357.516 81.4387 352.843 81.4387 347.077V329.68Z" fill="url(#paint12_radial_6_1352)"/>
<path d="M100.638 336.415C100.6 336.064 100.442 335.791 100.164 335.596C99.8881 335.4 99.5294 335.303 99.0876 335.303C98.7771 335.303 98.5107 335.35 98.2885 335.443C98.0663 335.537 97.8963 335.664 97.7785 335.825C97.6607 335.985 97.6004 336.169 97.5978 336.375C97.5978 336.546 97.6366 336.695 97.7142 336.821C97.7945 336.947 97.903 337.054 98.0395 337.142C98.176 337.228 98.3273 337.3 98.4933 337.359C98.6593 337.418 98.8266 337.467 98.9953 337.507L99.7663 337.7C100.077 337.773 100.375 337.87 100.662 337.993C100.951 338.117 101.209 338.272 101.437 338.459C101.667 338.647 101.849 338.873 101.983 339.138C102.117 339.403 102.184 339.713 102.184 340.07C102.184 340.551 102.061 340.976 101.814 341.343C101.568 341.707 101.212 341.992 100.746 342.198C100.283 342.401 99.7221 342.503 99.0635 342.503C98.4237 342.503 97.8682 342.404 97.397 342.206C96.9285 342.008 96.5617 341.719 96.2966 341.339C96.0343 340.958 95.8924 340.495 95.871 339.949H97.3367C97.3582 340.236 97.4465 340.474 97.6018 340.664C97.7571 340.854 97.9592 340.996 98.2082 341.09C98.4598 341.183 98.7409 341.23 99.0515 341.23C99.3754 341.23 99.6592 341.182 99.9028 341.086C100.149 340.987 100.342 340.85 100.481 340.676C100.62 340.499 100.691 340.293 100.694 340.058C100.691 339.843 100.628 339.667 100.505 339.527C100.382 339.386 100.209 339.268 99.9872 339.174C99.7676 339.078 99.5106 338.992 99.2161 338.917L98.2805 338.676C97.6031 338.502 97.0677 338.238 96.6741 337.885C96.2833 337.529 96.0878 337.056 96.0878 336.467C96.0878 335.983 96.219 335.558 96.4814 335.194C96.7464 334.83 97.1065 334.548 97.5616 334.347C98.0167 334.144 98.5321 334.042 99.1077 334.042C99.6913 334.042 100.203 334.144 100.642 334.347C101.084 334.548 101.43 334.828 101.682 335.186C101.934 335.542 102.063 335.952 102.071 336.415H100.638ZM106.482 336.21V337.335H102.936V336.21H106.482ZM103.811 334.733H105.265V340.523C105.265 340.719 105.294 340.869 105.353 340.973C105.415 341.075 105.495 341.144 105.594 341.182C105.693 341.219 105.803 341.238 105.923 341.238C106.014 341.238 106.097 341.231 106.172 341.218C106.25 341.205 106.309 341.193 106.349 341.182L106.594 342.318C106.516 342.345 106.405 342.375 106.261 342.407C106.119 342.439 105.945 342.458 105.739 342.463C105.375 342.474 105.047 342.419 104.755 342.298C104.463 342.175 104.231 341.985 104.06 341.728C103.891 341.471 103.808 341.15 103.811 340.764V334.733ZM107.651 342.379V336.21H109.061V337.238H109.125C109.237 336.882 109.43 336.608 109.703 336.415C109.979 336.22 110.293 336.122 110.647 336.122C110.727 336.122 110.817 336.126 110.916 336.134C111.018 336.139 111.102 336.149 111.169 336.162V337.499C111.107 337.478 111.01 337.459 110.876 337.443C110.745 337.424 110.617 337.415 110.494 337.415C110.229 337.415 109.991 337.473 109.779 337.588C109.571 337.7 109.406 337.857 109.285 338.058C109.165 338.258 109.105 338.49 109.105 338.752V342.379H107.651ZM114.525 342.499C113.923 342.499 113.4 342.367 112.959 342.102C112.517 341.837 112.174 341.466 111.931 340.989C111.69 340.513 111.569 339.956 111.569 339.319C111.569 338.681 111.69 338.123 111.931 337.644C112.174 337.165 112.517 336.793 112.959 336.528C113.4 336.263 113.923 336.13 114.525 336.13C115.127 336.13 115.649 336.263 116.091 336.528C116.533 336.793 116.874 337.165 117.115 337.644C117.359 338.123 117.481 338.681 117.481 339.319C117.481 339.956 117.359 340.513 117.115 340.989C116.874 341.466 116.533 341.837 116.091 342.102C115.649 342.367 115.127 342.499 114.525 342.499ZM114.533 341.335C114.86 341.335 115.133 341.245 115.352 341.065C115.572 340.883 115.735 340.64 115.842 340.335C115.952 340.029 116.007 339.689 116.007 339.315C116.007 338.937 115.952 338.596 115.842 338.291C115.735 337.983 115.572 337.738 115.352 337.556C115.133 337.374 114.86 337.283 114.533 337.283C114.198 337.283 113.92 337.374 113.698 337.556C113.478 337.738 113.313 337.983 113.204 338.291C113.097 338.596 113.043 338.937 113.043 339.315C113.043 339.689 113.097 340.029 113.204 340.335C113.313 340.64 113.478 340.883 113.698 341.065C113.92 341.245 114.198 341.335 114.533 341.335ZM119.993 340.443L119.989 338.688H120.222L122.439 336.21H124.138L121.411 339.246H121.11L119.993 340.443ZM118.668 342.379V334.154H120.122V342.379H118.668ZM122.539 342.379L120.531 339.572L121.511 338.548L124.278 342.379H122.539ZM127.537 342.499C126.918 342.499 126.384 342.371 125.935 342.114C125.487 341.854 125.143 341.487 124.902 341.013C124.662 340.537 124.541 339.976 124.541 339.331C124.541 338.696 124.662 338.139 124.902 337.66C125.146 337.178 125.486 336.803 125.922 336.536C126.359 336.265 126.872 336.13 127.461 336.13C127.841 336.13 128.199 336.192 128.537 336.315C128.877 336.435 129.177 336.623 129.436 336.877C129.699 337.131 129.905 337.455 130.055 337.849C130.205 338.24 130.28 338.706 130.28 339.246V339.692H125.224V338.712H128.886C128.883 338.434 128.823 338.186 128.705 337.969C128.588 337.75 128.423 337.577 128.212 337.451C128.003 337.325 127.759 337.262 127.481 337.262C127.183 337.262 126.922 337.335 126.698 337.479C126.473 337.621 126.297 337.809 126.171 338.042C126.048 338.272 125.985 338.525 125.983 338.801V339.656C125.983 340.015 126.048 340.323 126.179 340.58C126.311 340.834 126.494 341.029 126.73 341.166C126.965 341.3 127.241 341.367 127.557 341.367C127.768 341.367 127.96 341.337 128.131 341.278C128.303 341.217 128.451 341.127 128.577 341.009C128.703 340.891 128.798 340.746 128.862 340.572L130.219 340.724C130.134 341.083 129.97 341.396 129.729 341.664C129.491 341.929 129.186 342.135 128.814 342.282C128.442 342.427 128.016 342.499 127.537 342.499Z" fill="white"/>
<g filter="url(#filter8_d_6_1352)">
<rect x="279.774" y="329.68" width="17.3978" height="17.3978" rx="4.34945" fill="#2C2C2C"/>
</g>
</g>
<g filter="url(#filter9_i_6_1352)">
<path d="M81.4387 378.394C81.4387 372.628 86.1123 367.955 91.8774 367.955H300.651C306.416 367.955 311.09 372.628 311.09 378.394V395.791C311.09 401.556 306.416 406.23 300.651 406.23H91.8774C86.1123 406.23 81.4387 401.556 81.4387 395.791V378.394Z" fill="url(#paint13_radial_6_1352)"/>
<path d="M100.638 385.129C100.601 384.778 100.443 384.505 100.164 384.31C99.8884 384.114 99.5296 384.017 99.0879 384.017C98.7773 384.017 98.5109 384.063 98.2887 384.157C98.0665 384.251 97.8965 384.378 97.7787 384.539C97.6609 384.699 97.6007 384.883 97.598 385.089C97.598 385.26 97.6368 385.409 97.7145 385.535C97.7948 385.66 97.9032 385.768 98.0397 385.856C98.1763 385.942 98.3276 386.014 98.4935 386.073C98.6595 386.132 98.8269 386.181 98.9955 386.221L99.7666 386.414C100.077 386.486 100.376 386.584 100.662 386.707C100.951 386.83 101.21 386.986 101.437 387.173C101.667 387.36 101.849 387.587 101.983 387.852C102.117 388.117 102.184 388.427 102.184 388.783C102.184 389.265 102.061 389.69 101.815 390.056C101.568 390.421 101.212 390.706 100.746 390.912C100.283 391.115 99.7224 391.217 99.0638 391.217C98.4239 391.217 97.8684 391.118 97.3972 390.92C96.9287 390.722 96.5619 390.433 96.2969 390.052C96.0345 389.672 95.8926 389.209 95.8712 388.663H97.337C97.3584 388.949 97.4467 389.188 97.602 389.378C97.7573 389.568 97.9594 389.71 98.2084 389.803C98.4601 389.897 98.7412 389.944 99.0517 389.944C99.3757 389.944 99.6595 389.896 99.9031 389.799C100.149 389.7 100.342 389.564 100.481 389.39C100.621 389.213 100.692 389.007 100.694 388.771C100.692 388.557 100.629 388.381 100.505 388.241C100.382 388.099 100.21 387.982 99.9874 387.888C99.7679 387.792 99.5109 387.706 99.2164 387.631L98.2807 387.39C97.6034 387.216 97.0679 386.952 96.6744 386.599C96.2835 386.243 96.0881 385.77 96.0881 385.181C96.0881 384.697 96.2192 384.272 96.4816 383.908C96.7467 383.544 97.1067 383.262 97.5619 383.061C98.017 382.857 98.5324 382.756 99.108 382.756C99.6916 382.756 100.203 382.857 100.642 383.061C101.084 383.262 101.43 383.541 101.682 383.9C101.934 384.256 102.064 384.666 102.072 385.129H100.638ZM104.855 387.478V391.093H103.402V382.868H104.823V385.972H104.896C105.04 385.624 105.264 385.35 105.566 385.149C105.871 384.946 106.26 384.844 106.731 384.844C107.159 384.844 107.533 384.934 107.851 385.113C108.17 385.292 108.416 385.555 108.59 385.9C108.767 386.245 108.855 386.667 108.855 387.165V391.093H107.401V387.39C107.401 386.975 107.294 386.652 107.08 386.422C106.869 386.189 106.572 386.073 106.189 386.073C105.932 386.073 105.701 386.129 105.498 386.241C105.297 386.351 105.139 386.51 105.024 386.719C104.912 386.928 104.855 387.181 104.855 387.478ZM112.066 391.217C111.675 391.217 111.323 391.147 111.009 391.008C110.699 390.866 110.453 390.657 110.271 390.382C110.091 390.106 110.002 389.766 110.002 389.362C110.002 389.014 110.066 388.726 110.194 388.498C110.323 388.271 110.498 388.089 110.72 387.952C110.943 387.816 111.193 387.713 111.471 387.643C111.752 387.571 112.043 387.518 112.343 387.486C112.704 387.449 112.997 387.415 113.222 387.386C113.447 387.354 113.61 387.306 113.712 387.241C113.817 387.174 113.869 387.071 113.869 386.932V386.908C113.869 386.606 113.779 386.371 113.6 386.205C113.42 386.039 113.162 385.956 112.825 385.956C112.469 385.956 112.186 386.034 111.977 386.189C111.771 386.344 111.632 386.528 111.56 386.739L110.202 386.547C110.309 386.172 110.486 385.859 110.732 385.607C110.979 385.353 111.28 385.162 111.636 385.037C111.992 384.908 112.386 384.844 112.817 384.844C113.114 384.844 113.41 384.879 113.704 384.948C113.999 385.018 114.268 385.133 114.511 385.294C114.755 385.452 114.95 385.667 115.098 385.94C115.248 386.213 115.322 386.555 115.322 386.964V391.093H113.925V390.245H113.877C113.788 390.417 113.664 390.577 113.503 390.727C113.345 390.874 113.146 390.993 112.905 391.084C112.667 391.173 112.387 391.217 112.066 391.217ZM112.443 390.149C112.735 390.149 112.988 390.091 113.202 389.976C113.416 389.858 113.581 389.703 113.696 389.51C113.814 389.318 113.873 389.107 113.873 388.88V388.153C113.827 388.19 113.75 388.225 113.64 388.257C113.533 388.289 113.412 388.318 113.278 388.342C113.145 388.366 113.012 388.387 112.881 388.406C112.75 388.425 112.636 388.441 112.54 388.454C112.323 388.484 112.129 388.532 111.957 388.599C111.786 388.666 111.651 388.759 111.552 388.88C111.453 388.998 111.403 389.15 111.403 389.338C111.403 389.605 111.501 389.807 111.696 389.944C111.892 390.081 112.141 390.149 112.443 390.149ZM119.027 391.201C118.542 391.201 118.109 391.076 117.726 390.827C117.343 390.579 117.04 390.217 116.818 389.743C116.596 389.269 116.485 388.694 116.485 388.016C116.485 387.331 116.597 386.753 116.822 386.282C117.05 385.808 117.356 385.45 117.742 385.209C118.127 384.966 118.557 384.844 119.031 384.844C119.392 384.844 119.69 384.905 119.922 385.029C120.155 385.149 120.34 385.295 120.477 385.466C120.613 385.635 120.719 385.794 120.794 385.944H120.854V382.868H122.312V391.093H120.882V390.121H120.794C120.719 390.271 120.61 390.43 120.469 390.599C120.327 390.765 120.139 390.906 119.906 391.024C119.673 391.142 119.38 391.201 119.027 391.201ZM119.433 390.008C119.74 390.008 120.003 389.925 120.22 389.759C120.436 389.591 120.601 389.356 120.714 389.057C120.826 388.757 120.882 388.407 120.882 388.008C120.882 387.609 120.826 387.263 120.714 386.968C120.604 386.674 120.44 386.445 120.224 386.282C120.009 386.118 119.746 386.037 119.433 386.037C119.109 386.037 118.838 386.121 118.621 386.29C118.404 386.458 118.241 386.691 118.131 386.988C118.022 387.286 117.967 387.626 117.967 388.008C117.967 388.394 118.022 388.738 118.131 389.04C118.244 389.34 118.408 389.577 118.625 389.751C118.845 389.923 119.114 390.008 119.433 390.008ZM126.505 391.213C125.903 391.213 125.381 391.08 124.939 390.815C124.497 390.55 124.155 390.18 123.911 389.703C123.67 389.227 123.55 388.67 123.55 388.032C123.55 387.395 123.67 386.837 123.911 386.358C124.155 385.879 124.497 385.507 124.939 385.241C125.381 384.976 125.903 384.844 126.505 384.844C127.108 384.844 127.63 384.976 128.071 385.241C128.513 385.507 128.854 385.879 129.095 386.358C129.339 386.837 129.461 387.395 129.461 388.032C129.461 388.67 129.339 389.227 129.095 389.703C128.854 390.18 128.513 390.55 128.071 390.815C127.63 391.08 127.108 391.213 126.505 391.213ZM126.513 390.048C126.84 390.048 127.113 389.959 127.332 389.779C127.552 389.597 127.715 389.354 127.822 389.048C127.932 388.743 127.987 388.403 127.987 388.028C127.987 387.651 127.932 387.31 127.822 387.004C127.715 386.697 127.552 386.452 127.332 386.27C127.113 386.087 126.84 385.996 126.513 385.996C126.179 385.996 125.9 386.087 125.678 386.27C125.458 386.452 125.294 386.697 125.184 387.004C125.077 387.31 125.023 387.651 125.023 388.028C125.023 388.403 125.077 388.743 125.184 389.048C125.294 389.354 125.458 389.597 125.678 389.779C125.9 389.959 126.179 390.048 126.513 390.048ZM131.745 391.093L130.002 384.924H131.484L132.568 389.261H132.624L133.733 384.924H135.198L136.307 389.237H136.367L137.435 384.924H138.921L137.174 391.093H135.66L134.504 386.924H134.419L133.263 391.093H131.745Z" fill="white"/>
<g filter="url(#filter10_d_6_1352)">
<rect x="279.774" y="378.394" width="17.3978" height="17.3978" rx="4.34945" fill="#2C2C2C"/>
</g>
</g>
<g filter="url(#filter11_i_6_1352)">
<path d="M81.4387 427.107C81.4387 421.342 86.1123 416.669 91.8774 416.669H300.651C306.416 416.669 311.09 421.342 311.09 427.107V444.505C311.09 450.27 306.416 454.944 300.651 454.944H91.8774C86.1123 454.944 81.4387 450.27 81.4387 444.505V427.107Z" fill="url(#paint14_radial_6_1352)"/>
<path d="M96.1681 439.806V431.582H99.3165C99.9109 431.582 100.405 431.676 100.798 431.863C101.195 432.048 101.49 432.301 101.686 432.622C101.884 432.943 101.983 433.307 101.983 433.714C101.983 434.049 101.919 434.336 101.79 434.574C101.662 434.809 101.489 435.001 101.272 435.148C101.055 435.295 100.813 435.401 100.545 435.465V435.546C100.837 435.562 101.117 435.651 101.385 435.815C101.655 435.975 101.876 436.203 102.047 436.497C102.219 436.792 102.304 437.148 102.304 437.566C102.304 437.991 102.201 438.374 101.995 438.714C101.789 439.051 101.478 439.318 101.063 439.513C100.648 439.709 100.126 439.806 99.4973 439.806H96.1681ZM97.658 438.561H99.2603C99.8011 438.561 100.191 438.458 100.429 438.252C100.67 438.043 100.79 437.776 100.79 437.449C100.79 437.205 100.73 436.986 100.61 436.791C100.489 436.592 100.318 436.437 100.096 436.325C99.8734 436.21 99.6084 436.152 99.3005 436.152H97.658V438.561ZM97.658 435.08H99.1318C99.3888 435.08 99.6204 435.033 99.8265 434.939C100.033 434.843 100.195 434.708 100.312 434.534C100.433 434.357 100.493 434.148 100.493 433.907C100.493 433.589 100.381 433.326 100.156 433.12C99.9336 432.914 99.603 432.811 99.1639 432.811H97.658V435.08ZM104.944 431.582V439.806H103.49V431.582H104.944ZM110.324 437.212V433.638H111.777V439.806H110.368V438.71H110.303C110.164 439.055 109.935 439.338 109.617 439.557C109.301 439.777 108.911 439.887 108.448 439.887C108.044 439.887 107.686 439.797 107.376 439.618C107.068 439.436 106.827 439.172 106.653 438.827C106.479 438.478 106.392 438.058 106.392 437.566V433.638H107.846V437.341C107.846 437.732 107.953 438.042 108.167 438.272C108.381 438.503 108.662 438.618 109.01 438.618C109.225 438.618 109.432 438.566 109.633 438.461C109.834 438.357 109.998 438.201 110.127 437.995C110.258 437.786 110.324 437.525 110.324 437.212ZM113.226 439.806V433.638H114.635V434.666H114.7C114.812 434.31 115.005 434.036 115.278 433.843C115.554 433.647 115.868 433.55 116.222 433.55C116.302 433.55 116.392 433.554 116.491 433.562C116.592 433.567 116.677 433.577 116.744 433.59V434.927C116.682 434.906 116.584 434.887 116.451 434.871C116.319 434.852 116.192 434.843 116.069 434.843C115.804 434.843 115.566 434.9 115.354 435.016C115.145 435.128 114.981 435.285 114.86 435.485C114.74 435.686 114.68 435.918 114.68 436.18V439.806H113.226Z" fill="white"/>
<g filter="url(#filter12_d_6_1352)">
<rect x="279.774" y="427.107" width="17.3978" height="17.3978" rx="4.34945" fill="#2C2C2C"/>
</g>
</g>
<g filter="url(#filter13_f_6_1352)">
<ellipse cx="199.5" cy="282" rx="74.5" ry="75" fill="#003B7F" fill-opacity="0.28"/>
</g>
<defs>
<filter id="filter0_i_6_1352" x="81.4387" y="27.0696" width="114.825" height="24.3569" filterUnits="userSpaceOnUse" color-interpolation-filters="sRGB">
<feFlood flood-opacity="0" result="BackgroundImageFix"/>
<feBlend mode="normal" in="SourceGraphic" in2="BackgroundImageFix" result="shape"/>
<feColorMatrix in="SourceAlpha" type="matrix" values="0 0 0 0 0 0 0 0 0 0 0 0 0 0 0 0 0 0 127 0" result="hardAlpha"/>
<feOffset/>
<feGaussianBlur stdDeviation="2.07563"/>
<feComposite in2="hardAlpha" operator="arithmetic" k2="-1" k3="1"/>
<feColorMatrix type="matrix" values="0 0 0 0 0.287083 0 0 0 0 0.287083 0 0 0 0 0.287083 0 0 0 0.24 0"/>
<feBlend mode="normal" in2="shape" result="effect1_innerShadow_6_1352"/>
</filter>
<filter id="filter1_i_6_1352" x="90.1377" y="70.5642" width="27.8364" height="27.8364" filterUnits="userSpaceOnUse" color-interpolation-filters="sRGB">
<feFlood flood-opacity="0" result="BackgroundImageFix"/>
<feBlend mode="normal" in="SourceGraphic" in2="BackgroundImageFix" result="shape"/>
<feColorMatrix in="SourceAlpha" type="matrix" values="0 0 0 0 0 0 0 0 0 0 0 0 0 0 0 0 0 0 127 0" result="hardAlpha"/>
<feOffset/>
<feGaussianBlur stdDeviation="3.11344"/>
<feComposite in2="hardAlpha" operator="arithmetic" k2="-1" k3="1"/>
<feColorMatrix type="matrix" values="0 0 0 0 0.268269 0 0 0 0 0.522495 0 0 0 0 0.996667 0 0 0 0.5 0"/>
<feBlend mode="normal" in2="shape" result="effect1_innerShadow_6_1352"/>
</filter>
<filter id="filter2_i_6_1352" x="117.974" y="70.5642" width="27.8364" height="27.8364" filterUnits="userSpaceOnUse" color-interpolation-filters="sRGB">
<feFlood flood-opacity="0" result="BackgroundImageFix"/>
<feBlend mode="normal" in="SourceGraphic" in2="BackgroundImageFix" result="shape"/>
<feColorMatrix in="SourceAlpha" type="matrix" values="0 0 0 0 0 0 0 0 0 0 0 0 0 0 0 0 0 0 127 0" result="hardAlpha"/>
<feOffset/>
<feGaussianBlur stdDeviation="3.11344"/>
<feComposite in2="hardAlpha" operator="arithmetic" k2="-1" k3="1"/>
<feColorMatrix type="matrix" values="0 0 0 0 0.268269 0 0 0 0 0.522495 0 0 0 0 0.996667 0 0 0 0.5 0"/>
<feBlend mode="normal" in2="shape" result="effect1_innerShadow_6_1352"/>
</filter>
<filter id="filter3_i_6_1352" x="145.811" y="70.5642" width="27.8364" height="27.8364" filterUnits="userSpaceOnUse" color-interpolation-filters="sRGB">
<feFlood flood-opacity="0" result="BackgroundImageFix"/>
<feBlend mode="normal" in="SourceGraphic" in2="BackgroundImageFix" result="shape"/>
<feColorMatrix in="SourceAlpha" type="matrix" values="0 0 0 0 0 0 0 0 0 0 0 0 0 0 0 0 0 0 127 0" result="hardAlpha"/>
<feOffset/>
<feGaussianBlur stdDeviation="3.11344"/>
<feComposite in2="hardAlpha" operator="arithmetic" k2="-1" k3="1"/>
<feColorMatrix type="matrix" values="0 0 0 0 0.268269 0 0 0 0 0.522495 0 0 0 0 0.996667 0 0 0 0.5 0"/>
<feBlend mode="normal" in2="shape" result="effect1_innerShadow_6_1352"/>
</filter>
<filter id="filter4_i_6_1352" x="218.881" y="70.5642" width="27.8364" height="27.8364" filterUnits="userSpaceOnUse" color-interpolation-filters="sRGB">
<feFlood flood-opacity="0" result="BackgroundImageFix"/>
<feBlend mode="normal" in="SourceGraphic" in2="BackgroundImageFix" result="shape"/>
<feColorMatrix in="SourceAlpha" type="matrix" values="0 0 0 0 0 0 0 0 0 0 0 0 0 0 0 0 0 0 127 0" result="hardAlpha"/>
<feOffset/>
<feGaussianBlur stdDeviation="3.11344"/>
<feComposite in2="hardAlpha" operator="arithmetic" k2="-1" k3="1"/>
<feColorMatrix type="matrix" values="0 0 0 0 0.268269 0 0 0 0 0.522495 0 0 0 0 0.996667 0 0 0 0.5 0"/>
<feBlend mode="normal" in2="shape" result="effect1_innerShadow_6_1352"/>
</filter>
<filter id="filter5_i_6_1352" x="246.718" y="70.5642" width="27.8364" height="27.8364" filterUnits="userSpaceOnUse" color-interpolation-filters="sRGB">
<feFlood flood-opacity="0" result="BackgroundImageFix"/>
<feBlend mode="normal" in="SourceGraphic" in2="BackgroundImageFix" result="shape"/>
<feColorMatrix in="SourceAlpha" type="matrix" values="0 0 0 0 0 0 0 0 0 0 0 0 0 0 0 0 0 0 127 0" result="hardAlpha"/>
<feOffset/>
<feGaussianBlur stdDeviation="3.11344"/>
<feComposite in2="hardAlpha" operator="arithmetic" k2="-1" k3="1"/>
<feColorMatrix type="matrix" values="0 0 0 0 0.268269 0 0 0 0 0.522495 0 0 0 0 0.996667 0 0 0 0.5 0"/>
<feBlend mode="normal" in2="shape" result="effect1_innerShadow_6_1352"/>
</filter>
<filter id="filter6_i_6_1352" x="274.554" y="70.5642" width="27.8364" height="27.8364" filterUnits="userSpaceOnUse" color-interpolation-filters="sRGB">
<feFlood flood-opacity="0" result="BackgroundImageFix"/>
<feBlend mode="normal" in="SourceGraphic" in2="BackgroundImageFix" result="shape"/>
<feColorMatrix in="SourceAlpha" type="matrix" values="0 0 0 0 0 0 0 0 0 0 0 0 0 0 0 0 0 0 127 0" result="hardAlpha"/>
<feOffset/>
<feGaussianBlur stdDeviation="3.11344"/>
<feComposite in2="hardAlpha" operator="arithmetic" k2="-1" k3="1"/>
<feColorMatrix type="matrix" values="0 0 0 0 0.268269 0 0 0 0 0.522495 0 0 0 0 0.996667 0 0 0 0.5 0"/>
<feBlend mode="normal" in2="shape" result="effect1_innerShadow_6_1352"/>
</filter>
<filter id="filter7_i_6_1352" x="81.4387" y="319.241" width="229.651" height="38.2751" filterUnits="userSpaceOnUse" color-interpolation-filters="sRGB">
<feFlood flood-opacity="0" result="BackgroundImageFix"/>
<feBlend mode="normal" in="SourceGraphic" in2="BackgroundImageFix" result="shape"/>
<feColorMatrix in="SourceAlpha" type="matrix" values="0 0 0 0 0 0 0 0 0 0 0 0 0 0 0 0 0 0 127 0" result="hardAlpha"/>
<feOffset/>
<feGaussianBlur stdDeviation="4.15126"/>
<feComposite in2="hardAlpha" operator="arithmetic" k2="-1" k3="1"/>
<feColorMatrix type="matrix" values="0 0 0 0 0.2108 0 0 0 0 0.211064 0 0 0 0 0.226667 0 0 0 1 0"/>
<feBlend mode="normal" in2="shape" result="effect1_innerShadow_6_1352"/>
</filter>
<filter id="filter8_d_6_1352" x="271.471" y="321.377" width="34.0027" height="34.0027" filterUnits="userSpaceOnUse" color-interpolation-filters="sRGB">
<feFlood flood-opacity="0" result="BackgroundImageFix"/>
<feColorMatrix in="SourceAlpha" type="matrix" values="0 0 0 0 0 0 0 0 0 0 0 0 0 0 0 0 0 0 127 0" result="hardAlpha"/>
<feOffset/>
<feGaussianBlur stdDeviation="4.15126"/>
<feComposite in2="hardAlpha" operator="out"/>
<feColorMatrix type="matrix" values="0 0 0 0 0 0 0 0 0 0 0 0 0 0 0 0 0 0 0.32 0"/>
<feBlend mode="normal" in2="BackgroundImageFix" result="effect1_dropShadow_6_1352"/>
<feBlend mode="normal" in="SourceGraphic" in2="effect1_dropShadow_6_1352" result="shape"/>
</filter>
<filter id="filter9_i_6_1352" x="81.4387" y="367.955" width="229.651" height="38.2751" filterUnits="userSpaceOnUse" color-interpolation-filters="sRGB">
<feFlood flood-opacity="0" result="BackgroundImageFix"/>
<feBlend mode="normal" in="SourceGraphic" in2="BackgroundImageFix" result="shape"/>
<feColorMatrix in="SourceAlpha" type="matrix" values="0 0 0 0 0 0 0 0 0 0 0 0 0 0 0 0 0 0 127 0" result="hardAlpha"/>
<feOffset/>
<feGaussianBlur stdDeviation="4.15126"/>
<feComposite in2="hardAlpha" operator="arithmetic" k2="-1" k3="1"/>
<feColorMatrix type="matrix" values="0 0 0 0 0.2108 0 0 0 0 0.211064 0 0 0 0 0.226667 0 0 0 1 0"/>
<feBlend mode="normal" in2="shape" result="effect1_innerShadow_6_1352"/>
</filter>
<filter id="filter10_d_6_1352" x="271.471" y="370.091" width="34.0027" height="34.0027" filterUnits="userSpaceOnUse" color-interpolation-filters="sRGB">
<feFlood flood-opacity="0" result="BackgroundImageFix"/>
<feColorMatrix in="SourceAlpha" type="matrix" values="0 0 0 0 0 0 0 0 0 0 0 0 0 0 0 0 0 0 127 0" result="hardAlpha"/>
<feOffset/>
<feGaussianBlur stdDeviation="4.15126"/>
<feComposite in2="hardAlpha" operator="out"/>
<feColorMatrix type="matrix" values="0 0 0 0 0 0 0 0 0 0 0 0 0 0 0 0 0 0 0.32 0"/>
<feBlend mode="normal" in2="BackgroundImageFix" result="effect1_dropShadow_6_1352"/>
<feBlend mode="normal" in="SourceGraphic" in2="effect1_dropShadow_6_1352" result="shape"/>
</filter>
<filter id="filter11_i_6_1352" x="81.4387" y="416.669" width="229.651" height="38.2751" filterUnits="userSpaceOnUse" color-interpolation-filters="sRGB">
<feFlood flood-opacity="0" result="BackgroundImageFix"/>
<feBlend mode="normal" in="SourceGraphic" in2="BackgroundImageFix" result="shape"/>
<feColorMatrix in="SourceAlpha" type="matrix" values="0 0 0 0 0 0 0 0 0 0 0 0 0 0 0 0 0 0 127 0" result="hardAlpha"/>
<feOffset/>
<feGaussianBlur stdDeviation="4.15126"/>
<feComposite in2="hardAlpha" operator="arithmetic" k2="-1" k3="1"/>
<feColorMatrix type="matrix" values="0 0 0 0 0.2108 0 0 0 0 0.211064 0 0 0 0 0.226667 0 0 0 1 0"/>
<feBlend mode="normal" in2="shape" result="effect1_innerShadow_6_1352"/>
</filter>
<filter id="filter12_d_6_1352" x="271.471" y="418.805" width="34.0027" height="34.0027" filterUnits="userSpaceOnUse" color-interpolation-filters="sRGB">
<feFlood flood-opacity="0" result="BackgroundImageFix"/>
<feColorMatrix in="SourceAlpha" type="matrix" values="0 0 0 0 0 0 0 0 0 0 0 0 0 0 0 0 0 0 127 0" result="hardAlpha"/>
<feOffset/>
<feGaussianBlur stdDeviation="4.15126"/>
<feComposite in2="hardAlpha" operator="out"/>
<feColorMatrix type="matrix" values="0 0 0 0 0 0 0 0 0 0 0 0 0 0 0 0 0 0 0.32 0"/>
<feBlend mode="normal" in2="BackgroundImageFix" result="effect1_dropShadow_6_1352"/>
<feBlend mode="normal" in="SourceGraphic" in2="effect1_dropShadow_6_1352" result="shape"/>
</filter>
<filter id="filter13_f_6_1352" x="0.462326" y="82.4623" width="398.075" height="399.075" filterUnits="userSpaceOnUse" color-interpolation-filters="sRGB">
<feFlood flood-opacity="0" result="BackgroundImageFix"/>
<feBlend mode="normal" in="SourceGraphic" in2="BackgroundImageFix" result="shape"/>
<feGaussianBlur stdDeviation="62.2688" result="effect1_foregroundBlur_6_1352"/>
</filter>
<linearGradient id="paint0_linear_6_1352" x1="196.264" y1="0" x2="196.264" y2="482.013" gradientUnits="userSpaceOnUse">
<stop stop-color="#0A0A0A"/>
<stop offset="0.5" stop-color="#10131D"/>
<stop offset="1" stop-color="#010101"/>
</linearGradient>
<radialGradient id="paint1_radial_6_1352" cx="0" cy="0" r="1" gradientUnits="userSpaceOnUse" gradientTransform="translate(138.851 39.248) rotate(0.179308) scale(68.6216 13.4379)">
<stop stop-color="#262626"/>
<stop offset="1" stop-color="#191919"/>
</radialGradient>
<radialGradient id="paint2_radial_6_1352" cx="0" cy="0" r="1" gradientUnits="userSpaceOnUse" gradientTransform="translate(104.056 84.4824) rotate(90) scale(14.299)">
<stop stop-color="#1D4083"/>
<stop offset="1" stop-color="#2D5298"/>
</radialGradient>
<linearGradient id="paint3_linear_6_1352" x1="104.056" y1="70.5642" x2="104.056" y2="98.4007" gradientUnits="userSpaceOnUse">
<stop stop-color="#1D4D6D"/>
<stop offset="0.5" stop-color="#7ACAFF"/>
<stop offset="1" stop-color="#1D4D6D"/>
</linearGradient>
<radialGradient id="paint4_radial_6_1352" cx="0" cy="0" r="1" gradientUnits="userSpaceOnUse" gradientTransform="translate(13.9182 13.9182) rotate(90) scale(13.9182)">
<stop stop-color="#1D4083"/>
<stop offset="1" stop-color="#2D5298"/>
</radialGradient>
<radialGradient id="paint5_radial_6_1352" cx="0" cy="0" r="1" gradientUnits="userSpaceOnUse" gradientTransform="translate(159.729 84.4824) rotate(90) scale(13.9182)">
<stop stop-color="#1D4083"/>
<stop offset="1" stop-color="#2D5298"/>
</radialGradient>
<linearGradient id="paint6_linear_6_1352" x1="159.729" y1="70.5642" x2="159.729" y2="98.4007" gradientUnits="userSpaceOnUse">
<stop stop-color="#1D4D6D"/>
<stop offset="0.5" stop-color="#7ACAFF"/>
<stop offset="1" stop-color="#1D4D6D"/>
</linearGradient>
<radialGradient id="paint7_radial_6_1352" cx="0" cy="0" r="1" gradientUnits="userSpaceOnUse" gradientTransform="translate(232.8 84.4824) rotate(90) scale(13.9182)">
<stop stop-color="#1D4083"/>
<stop offset="1" stop-color="#2D5298"/>
</radialGradient>
<linearGradient id="paint8_linear_6_1352" x1="246.391" y1="70.7605" x2="246.391" y2="98.7815" gradientUnits="userSpaceOnUse">
<stop stop-color="#1D4D6D"/>
<stop offset="0.595" stop-color="#7ACAFF"/>
<stop offset="1" stop-color="#1D4D6D"/>
</linearGradient>
<radialGradient id="paint9_radial_6_1352" cx="0" cy="0" r="1" gradientUnits="userSpaceOnUse" gradientTransform="translate(13.9182 13.9182) rotate(90) scale(13.9182)">
<stop stop-color="#1D4083"/>
<stop offset="1" stop-color="#2D5298"/>
</radialGradient>
<radialGradient id="paint10_radial_6_1352" cx="0" cy="0" r="1" gradientUnits="userSpaceOnUse" gradientTransform="translate(288.473 84.4824) rotate(90) scale(13.9182)">
<stop stop-color="#1D4083"/>
<stop offset="1" stop-color="#2D5298"/>
</radialGradient>
<linearGradient id="paint11_linear_6_1352" x1="288.473" y1="70.5642" x2="288.473" y2="98.4007" gradientUnits="userSpaceOnUse">
<stop stop-color="#1D4D6D"/>
<stop offset="0.5" stop-color="#7ACAFF"/>
<stop offset="1" stop-color="#1D4D6D"/>
</linearGradient>
<radialGradient id="paint12_radial_6_1352" cx="0" cy="0" r="1" gradientUnits="userSpaceOnUse" gradientTransform="translate(196.264 338.379) rotate(0.103721) scale(135.746 41.9951)">
<stop stop-color="#272727"/>
<stop offset="1" stop-color="#191919"/>
</radialGradient>
<radialGradient id="paint13_radial_6_1352" cx="0" cy="0" r="1" gradientUnits="userSpaceOnUse" gradientTransform="translate(196.264 387.092) rotate(0.103721) scale(135.746 41.9951)">
<stop stop-color="#272727"/>
<stop offset="1" stop-color="#191919"/>
</radialGradient>
<radialGradient id="paint14_radial_6_1352" cx="0" cy="0" r="1" gradientUnits="userSpaceOnUse" gradientTransform="translate(196.264 435.806) rotate(0.103721) scale(135.746 41.9951)">
<stop stop-color="#272727"/>
<stop offset="1" stop-color="#191919"/>
</radialGradient>
</defs>
</svg>
