<svg width="209" height="634" viewBox="0 0 209 634" fill="none" xmlns="http://www.w3.org/2000/svg">
<rect width="208.601" height="633.066" rx="16.2216" fill="url(#paint0_linear_6_1318)"/>
<g filter="url(#filter0_i_6_1318)">
<path d="M10.4387 14.59C10.4387 12.2973 12.2973 10.4387 14.59 10.4387H56.8925C59.1852 10.4387 61.0437 12.2973 61.0437 14.59V35.3463C61.0437 37.6389 59.1852 39.4975 56.8925 39.4975H14.59C12.2973 39.4975 10.4387 37.6389 10.4387 35.3463V14.59Z" fill="url(#paint1_radial_6_1318)" fill-opacity="0.4"/>
<path d="M19.49 28.468V20.8763H20.8653V27.3152H24.2089V28.468H19.49ZM26.9389 28.5829C26.5781 28.5829 26.2531 28.5187 25.964 28.3902C25.6773 28.2592 25.4499 28.0664 25.2819 27.8119C25.1163 27.5574 25.0335 27.2435 25.0335 26.8703C25.0335 26.5491 25.0928 26.2834 25.2115 26.0733C25.3301 25.8633 25.492 25.6952 25.6971 25.5692C25.9022 25.4432 26.1333 25.348 26.3903 25.2838C26.6497 25.2171 26.9179 25.1689 27.1947 25.1392C27.5283 25.1046 27.7989 25.0737 28.0065 25.0465C28.2141 25.0169 28.3648 24.9724 28.4587 24.9131C28.5551 24.8513 28.6033 24.7562 28.6033 24.6277V24.6054C28.6033 24.3262 28.5205 24.1099 28.3549 23.9567C28.1894 23.8035 27.9509 23.7269 27.6395 23.7269C27.3108 23.7269 27.0501 23.7985 26.8573 23.9419C26.667 24.0852 26.5385 24.2545 26.4718 24.4497L25.2189 24.2718C25.3177 23.9258 25.4808 23.6367 25.7082 23.4044C25.9355 23.1696 26.2136 22.9941 26.5422 22.878C26.8709 22.7594 27.2342 22.7001 27.6321 22.7001C27.9064 22.7001 28.1795 22.7322 28.4513 22.7964C28.7232 22.8607 28.9715 22.967 29.1964 23.1152C29.4213 23.261 29.6017 23.46 29.7376 23.712C29.876 23.9641 29.9452 24.2792 29.9452 24.6573V28.468H28.6552V27.6859H28.6107C28.5292 27.844 28.4142 27.9923 28.266 28.1307C28.1202 28.2666 27.936 28.3766 27.7136 28.4606C27.4937 28.5422 27.2354 28.5829 26.9389 28.5829ZM27.2873 27.5969C27.5567 27.5969 27.7902 27.5438 27.9879 27.4375C28.1856 27.3288 28.3376 27.1854 28.4439 27.0075C28.5526 26.8296 28.607 26.6356 28.607 26.4255V25.7546C28.565 25.7892 28.4933 25.8213 28.392 25.8509C28.2931 25.8806 28.1819 25.9065 28.0584 25.9288C27.9348 25.951 27.8125 25.9708 27.6914 25.9881C27.5703 26.0054 27.4653 26.0202 27.3763 26.0326C27.1761 26.0598 26.997 26.1042 26.8388 26.166C26.6806 26.2278 26.5558 26.3143 26.4644 26.4255C26.373 26.5342 26.3272 26.6751 26.3272 26.8481C26.3272 27.0952 26.4174 27.2818 26.5979 27.4078C26.7783 27.5339 27.0081 27.5969 27.2873 27.5969ZM31.8819 30.6032C31.699 30.6032 31.5297 30.5884 31.374 30.5587C31.2208 30.5315 31.0985 30.4994 31.0071 30.4623L31.3184 29.417C31.5137 29.4738 31.6879 29.501 31.8411 29.4985C31.9943 29.4961 32.129 29.4479 32.2452 29.354C32.3638 29.2625 32.4639 29.1093 32.5454 28.8943L32.6603 28.5866L30.5956 22.7742H32.019L33.3313 27.0742H33.3906L34.7066 22.7742H36.1337L33.854 29.1575C33.7477 29.459 33.6068 29.7172 33.4314 29.9322C33.2559 30.1497 33.0409 30.3153 32.7864 30.429C32.5343 30.5451 32.2328 30.6032 31.8819 30.6032ZM39.3465 28.5792C38.7757 28.5792 38.2826 28.4606 37.8675 28.2234C37.4548 27.9836 37.1372 27.6451 36.9148 27.2077C36.6924 26.7678 36.5812 26.25 36.5812 25.6545C36.5812 25.0688 36.6924 24.5547 36.9148 24.1124C37.1397 23.6676 37.4535 23.3216 37.8563 23.0745C38.2592 22.8249 38.7324 22.7001 39.2761 22.7001C39.627 22.7001 39.9582 22.7569 40.2695 22.8706C40.5834 22.9818 40.8602 23.1548 41.0999 23.3895C41.3421 23.6243 41.5324 23.9233 41.6708 24.2866C41.8092 24.6474 41.8784 25.0774 41.8784 25.5766V25.9881H37.2113V25.0836H40.5921C40.5896 24.8266 40.534 24.598 40.4252 24.3978C40.3165 24.1952 40.1645 24.0358 39.9693 23.9196C39.7765 23.8035 39.5516 23.7454 39.2946 23.7454C39.0203 23.7454 38.7794 23.8121 38.5718 23.9456C38.3642 24.0766 38.2023 24.2495 38.0862 24.4645C37.9725 24.6771 37.9144 24.9106 37.912 25.1652V25.9547C37.912 26.2859 37.9725 26.5701 38.0936 26.8073C38.2147 27.0421 38.384 27.2225 38.6014 27.3485C38.8189 27.4721 39.0735 27.5339 39.3651 27.5339C39.5603 27.5339 39.737 27.5067 39.8952 27.4523C40.0533 27.3955 40.1905 27.3127 40.3066 27.204C40.4228 27.0952 40.5105 26.9605 40.5698 26.7999L41.8227 26.9408C41.7437 27.2719 41.5929 27.5611 41.3705 27.8082C41.1506 28.0528 40.8688 28.2431 40.5253 28.3791C40.1818 28.5125 39.7889 28.5792 39.3465 28.5792ZM42.9708 28.468V22.7742H44.2719V23.7232H44.3312C44.435 23.3945 44.613 23.1412 44.865 22.9632C45.1196 22.7828 45.4099 22.6926 45.7362 22.6926C45.8103 22.6926 45.8931 22.6963 45.9845 22.7038C46.0784 22.7087 46.1563 22.7174 46.2181 22.7297V23.9641C46.1612 23.9443 46.071 23.927 45.9475 23.9122C45.8264 23.8949 45.709 23.8863 45.5953 23.8863C45.3506 23.8863 45.1307 23.9394 44.9355 24.0457C44.7427 24.1495 44.5907 24.294 44.4795 24.4794C44.3683 24.6647 44.3127 24.8785 44.3127 25.1207V28.468H42.9708ZM51.567 24.2792L50.3437 24.4127C50.3091 24.2891 50.2485 24.1729 50.162 24.0642C50.078 23.9555 49.9643 23.8677 49.821 23.801C49.6777 23.7343 49.5022 23.7009 49.2946 23.7009C49.0154 23.7009 48.7806 23.7615 48.5903 23.8826C48.4025 24.0037 48.3098 24.1606 48.3123 24.3533C48.3098 24.5189 48.3704 24.6536 48.4939 24.7574C48.62 24.8612 48.8276 24.9464 49.1167 25.0132L50.0879 25.2208C50.6266 25.3369 51.027 25.521 51.2889 25.7731C51.5534 26.0252 51.6868 26.3551 51.6893 26.7628C51.6868 27.1212 51.5818 27.4375 51.3742 27.7118C51.1691 27.9836 50.8837 28.1962 50.5179 28.3494C50.1522 28.5026 49.732 28.5792 49.2576 28.5792C48.5607 28.5792 47.9997 28.4334 47.5746 28.1418C47.1496 27.8477 46.8963 27.4387 46.8147 26.9148L48.1232 26.7888C48.1826 27.0458 48.3086 27.2398 48.5013 27.3708C48.6941 27.5017 48.9449 27.5672 49.2539 27.5672C49.5726 27.5672 49.8284 27.5017 50.0212 27.3708C50.2164 27.2398 50.314 27.0779 50.314 26.8852C50.314 26.7221 50.251 26.5874 50.125 26.4811C50.0014 26.3748 49.8087 26.2933 49.5467 26.2365L48.5755 26.0326C48.0293 25.9189 47.6253 25.7274 47.3633 25.458C47.1014 25.1862 46.9716 24.8427 46.9741 24.4275C46.9716 24.0766 47.0668 23.7726 47.2595 23.5156C47.4548 23.2561 47.7254 23.0559 48.0713 22.9151C48.4198 22.7717 48.8214 22.7001 49.2761 22.7001C49.9433 22.7001 50.4685 22.8422 50.8515 23.1264C51.2371 23.4105 51.4755 23.7948 51.567 24.2792Z" fill="white"/>
</g>
<path d="M81.909 20.8763V28.468H80.5337V20.8763H81.909ZM86.1393 22.7742V23.8121H82.8661V22.7742H86.1393ZM83.6742 21.41H85.0161V26.7554C85.0161 26.9358 85.0433 27.0742 85.0977 27.1706C85.1545 27.2645 85.2287 27.3288 85.3201 27.3634C85.4115 27.398 85.5129 27.4153 85.6241 27.4153C85.7081 27.4153 85.7847 27.4091 85.8539 27.3967C85.9256 27.3844 85.9799 27.3732 86.017 27.3634L86.2431 28.4124C86.1715 28.4371 86.0689 28.4643 85.9354 28.494C85.8045 28.5236 85.6438 28.5409 85.4535 28.5459C85.1175 28.5557 84.8147 28.5051 84.5454 28.3939C84.276 28.2802 84.0622 28.1047 83.9041 27.8675C83.7484 27.6303 83.6718 27.3337 83.6742 26.9778V21.41ZM89.6783 28.5792C89.1075 28.5792 88.6145 28.4606 88.1993 28.2234C87.7866 27.9836 87.469 27.6451 87.2466 27.2077C87.0242 26.7678 86.913 26.25 86.913 25.6545C86.913 25.0688 87.0242 24.5547 87.2466 24.1124C87.4715 23.6676 87.7853 23.3216 88.1882 23.0745C88.591 22.8249 89.0642 22.7001 89.6079 22.7001C89.9588 22.7001 90.29 22.7569 90.6014 22.8706C90.9152 22.9818 91.192 23.1548 91.4317 23.3895C91.6739 23.6243 91.8642 23.9233 92.0026 24.2866C92.141 24.6474 92.2102 25.0774 92.2102 25.5766V25.9881H87.5432V25.0836H90.9239C90.9214 24.8266 90.8658 24.598 90.757 24.3978C90.6483 24.1952 90.4963 24.0358 90.3011 23.9196C90.1083 23.8035 89.8835 23.7454 89.6264 23.7454C89.3521 23.7454 89.1112 23.8121 88.9036 23.9456C88.696 24.0766 88.5341 24.2495 88.418 24.4645C88.3043 24.6771 88.2462 24.9106 88.2438 25.1652V25.9547C88.2438 26.2859 88.3043 26.5701 88.4254 26.8073C88.5465 27.0421 88.7158 27.2225 88.9332 27.3485C89.1507 27.4721 89.4053 27.5339 89.6969 27.5339C89.8921 27.5339 90.0688 27.5067 90.227 27.4523C90.3851 27.3955 90.5223 27.3127 90.6384 27.204C90.7546 27.0952 90.8423 26.9605 90.9016 26.7999L92.1546 26.9408C92.0755 27.2719 91.9247 27.5611 91.7023 27.8082C91.4824 28.0528 91.2006 28.2431 90.8571 28.3791C90.5136 28.5125 90.1207 28.5792 89.6783 28.5792ZM93.3026 28.468V22.7742H94.5852V23.7417H94.6519C94.7705 23.4155 94.967 23.1609 95.2413 22.9781C95.5156 22.7927 95.8431 22.7001 96.2237 22.7001C96.6092 22.7001 96.9341 22.794 97.1986 22.9818C97.4655 23.1671 97.6533 23.4204 97.762 23.7417H97.8213C97.9474 23.4254 98.1599 23.1733 98.4589 22.9855C98.7604 22.7952 99.1175 22.7001 99.5302 22.7001C100.054 22.7001 100.482 22.8656 100.813 23.1968C101.144 23.5279 101.31 24.0111 101.31 24.6462V28.468H99.9639V24.8538C99.9639 24.5004 99.87 24.2421 99.6822 24.079C99.4944 23.9135 99.2646 23.8307 98.9927 23.8307C98.669 23.8307 98.4157 23.932 98.2328 24.1346C98.0524 24.3348 97.9622 24.5955 97.9622 24.9168V28.468H96.6462V24.7982C96.6462 24.5041 96.5573 24.2693 96.3793 24.0939C96.2039 23.9184 95.9741 23.8307 95.6899 23.8307C95.4971 23.8307 95.3216 23.8801 95.1635 23.9789C95.0053 24.0753 94.8793 24.2125 94.7854 24.3904C94.6915 24.5659 94.6445 24.771 94.6445 25.0058V28.468H93.3026ZM107.128 24.2792L105.905 24.4127C105.87 24.2891 105.81 24.1729 105.723 24.0642C105.639 23.9555 105.526 23.8677 105.382 23.801C105.239 23.7343 105.064 23.7009 104.856 23.7009C104.577 23.7009 104.342 23.7615 104.152 23.8826C103.964 24.0037 103.871 24.1606 103.874 24.3533C103.871 24.5189 103.932 24.6536 104.055 24.7574C104.181 24.8612 104.389 24.9464 104.678 25.0132L105.649 25.2208C106.188 25.3369 106.588 25.521 106.85 25.7731C107.115 26.0252 107.248 26.3551 107.251 26.7628C107.248 27.1212 107.143 27.4375 106.936 27.7118C106.73 27.9836 106.445 28.1962 106.079 28.3494C105.714 28.5026 105.293 28.5792 104.819 28.5792C104.122 28.5792 103.561 28.4334 103.136 28.1418C102.711 27.8477 102.458 27.4387 102.376 26.9148L103.685 26.7888C103.744 27.0458 103.87 27.2398 104.063 27.3708C104.255 27.5017 104.506 27.5672 104.815 27.5672C105.134 27.5672 105.39 27.5017 105.583 27.3708C105.778 27.2398 105.875 27.0779 105.875 26.8852C105.875 26.7221 105.812 26.5874 105.686 26.4811C105.563 26.3748 105.37 26.2933 105.108 26.2365L104.137 26.0326C103.591 25.9189 103.187 25.7274 102.925 25.458C102.663 25.1862 102.533 24.8427 102.535 24.4275C102.533 24.0766 102.628 23.7726 102.821 23.5156C103.016 23.2561 103.287 23.0559 103.633 22.9151C103.981 22.7717 104.383 22.7001 104.837 22.7001C105.505 22.7001 106.03 22.8422 106.413 23.1264C106.798 23.4105 107.037 23.7948 107.128 24.2792Z" fill="#8F8F8F"/>
<g filter="url(#filter1_i_6_1318)">
<g clip-path="url(#clip0_6_1318)">
<rect x="10.4387" y="56.8953" width="187.896" height="31.316" rx="6.95912" fill="url(#paint2_radial_6_1318)"/>
<rect x="20.8772" y="65.594" width="13.9182" height="13.9182" rx="1.73978" fill="#0080FF"/>
<path d="M24.3567 72.5532L29.576 69.5398L29.576 75.5665L24.3567 72.5532Z" fill="white"/>
<path d="M53.5882 70.5485C53.5536 70.2247 53.4078 69.9726 53.1508 69.7922C52.8963 69.6118 52.5651 69.5216 52.1573 69.5216C51.8707 69.5216 51.6248 69.5649 51.4197 69.6514C51.2146 69.7379 51.0576 69.8553 50.9489 70.0035C50.8402 70.1518 50.7846 70.3211 50.7821 70.5114C50.7821 70.6695 50.8179 70.8067 50.8896 70.9228C50.9637 71.039 51.0638 71.1379 51.1898 71.2194C51.3159 71.2985 51.4555 71.3652 51.6087 71.4196C51.7619 71.4739 51.9164 71.5197 52.0721 71.5567L52.7838 71.7347C53.0705 71.8014 53.346 71.8916 53.6105 72.0053C53.8774 72.1189 54.1158 72.2623 54.3259 72.4353C54.5384 72.6083 54.7065 72.8171 54.83 73.0617C54.9536 73.3064 55.0154 73.5931 55.0154 73.9217C55.0154 74.3666 54.9017 74.7583 54.6743 75.0968C54.447 75.4329 54.1183 75.6961 53.6883 75.8864C53.2608 76.0742 52.743 76.1681 52.1351 76.1681C51.5445 76.1681 51.0317 76.0767 50.5967 75.8938C50.1643 75.711 49.8257 75.4441 49.581 75.0931C49.3389 74.7422 49.2079 74.3147 49.1881 73.8105H50.5411C50.5609 74.075 50.6425 74.2949 50.7858 74.4704C50.9291 74.6458 51.1157 74.7768 51.3455 74.8633C51.5778 74.9498 51.8373 74.993 52.124 74.993C52.423 74.993 52.685 74.9486 52.9099 74.8596C53.1372 74.7682 53.3151 74.6421 53.4436 74.4815C53.5722 74.3184 53.6376 74.1281 53.6401 73.9106C53.6376 73.7129 53.5796 73.5498 53.4659 73.4213C53.3522 73.2903 53.1928 73.1816 52.9877 73.0951C52.7851 73.0061 52.5478 72.9271 52.276 72.8579L51.4123 72.6354C50.787 72.4748 50.2928 72.2314 49.9295 71.9052C49.5687 71.5765 49.3883 71.1403 49.3883 70.5966C49.3883 70.1493 49.5094 69.7576 49.7516 69.4215C49.9962 69.0855 50.3286 68.8247 50.7487 68.6394C51.1688 68.4516 51.6446 68.3577 52.1759 68.3577C52.7146 68.3577 53.1866 68.4516 53.5919 68.6394C53.9997 68.8247 54.3197 69.083 54.552 69.4141C54.7843 69.7428 54.9042 70.1209 54.9116 70.5485H53.5882ZM58.623 76.1644C58.0546 76.1644 57.5665 76.0396 57.1587 75.79C56.7534 75.5404 56.4408 75.1957 56.2209 74.7558C56.0034 74.3134 55.8947 73.8044 55.8947 73.2286C55.8947 72.6503 56.0059 72.14 56.2283 71.6976C56.4507 71.2528 56.7646 70.9068 57.1699 70.6597C57.5776 70.4101 58.0595 70.2853 58.6156 70.2853C59.0777 70.2853 59.4867 70.3705 59.8425 70.541C60.2009 70.7091 60.4863 70.9476 60.6988 71.2565C60.9114 71.5629 61.0325 71.9212 61.0621 72.3315H59.7795C59.7276 72.0572 59.6041 71.8286 59.4088 71.6457C59.2161 71.4604 58.9578 71.3677 58.6341 71.3677C58.3598 71.3677 58.1188 71.4418 57.9112 71.5901C57.7037 71.7359 57.5418 71.946 57.4256 72.2203C57.312 72.4946 57.2551 72.8233 57.2551 73.2063C57.2551 73.5943 57.312 73.9279 57.4256 74.2072C57.5393 74.484 57.6987 74.6977 57.9038 74.8485C58.1114 74.9968 58.3548 75.0709 58.6341 75.0709C58.8318 75.0709 59.0085 75.0338 59.1642 74.9597C59.3223 74.8831 59.4546 74.7731 59.5608 74.6298C59.6671 74.4864 59.74 74.3122 59.7795 74.1071H61.0621C61.03 74.5099 60.9114 74.867 60.7063 75.1784C60.5011 75.4873 60.2219 75.7295 59.8685 75.9049C59.5151 76.0779 59.0999 76.1644 58.623 76.1644ZM64.6419 76.1644C64.071 76.1644 63.578 76.0458 63.1628 75.8086C62.7501 75.5689 62.4326 75.2303 62.2102 74.7929C61.9878 74.353 61.8765 73.8353 61.8765 73.2397C61.8765 72.654 61.9878 72.14 62.2102 71.6976C62.4351 71.2528 62.7489 70.9068 63.1517 70.6597C63.5545 70.4101 64.0278 70.2853 64.5715 70.2853C64.9224 70.2853 65.2535 70.3421 65.5649 70.4558C65.8788 70.567 66.1556 70.74 66.3953 70.9747C66.6375 71.2095 66.8278 71.5085 66.9661 71.8718C67.1045 72.2326 67.1737 72.6626 67.1737 73.1618V73.5733H62.5067V72.6688H65.8874C65.885 72.4118 65.8294 72.1832 65.7206 71.983C65.6119 71.7804 65.4599 71.621 65.2647 71.5048C65.0719 71.3887 64.847 71.3306 64.59 71.3306C64.3157 71.3306 64.0747 71.3973 63.8672 71.5308C63.6596 71.6618 63.4977 71.8348 63.3816 72.0498C63.2679 72.2623 63.2098 72.4958 63.2073 72.7504V73.5399C63.2073 73.8711 63.2679 74.1553 63.389 74.3925C63.5101 74.6273 63.6793 74.8077 63.8968 74.9337C64.1143 75.0573 64.3688 75.1191 64.6604 75.1191C64.8557 75.1191 65.0324 75.0919 65.1905 75.0375C65.3487 74.9807 65.4858 74.8979 65.602 74.7892C65.7181 74.6804 65.8059 74.5457 65.8652 74.3851L67.1181 74.526C67.039 74.8571 66.8883 75.1463 66.6659 75.3934C66.4459 75.638 66.1642 75.8283 65.8207 75.9643C65.4772 76.0977 65.0843 76.1644 64.6419 76.1644ZM69.6081 72.717V76.0532H68.2662V70.3594H69.5488V71.3269H69.6155C69.7465 71.0081 69.9553 70.7548 70.242 70.567C70.5311 70.3792 70.8882 70.2853 71.3133 70.2853C71.7062 70.2853 72.0485 70.3693 72.3401 70.5373C72.6342 70.7054 72.8615 70.9488 73.0221 71.2676C73.1853 71.5864 73.2656 71.9731 73.2631 72.4279V76.0532H71.9212V72.6354C71.9212 72.2549 71.8223 71.9571 71.6246 71.7421C71.4294 71.5271 71.1588 71.4196 70.8128 71.4196C70.5781 71.4196 70.3692 71.4715 70.1864 71.5753C70.006 71.6766 69.8639 71.8236 69.7601 72.0164C69.6587 72.2091 69.6081 72.4427 69.6081 72.717ZM77.1052 76.1644C76.5343 76.1644 76.0413 76.0458 75.6261 75.8086C75.2134 75.5689 74.8958 75.2303 74.6734 74.7929C74.451 74.353 74.3398 73.8353 74.3398 73.2397C74.3398 72.654 74.451 72.14 74.6734 71.6976C74.8983 71.2528 75.2122 70.9068 75.615 70.6597C76.0178 70.4101 76.491 70.2853 77.0347 70.2853C77.3856 70.2853 77.7168 70.3421 78.0282 70.4558C78.342 70.567 78.6188 70.74 78.8585 70.9747C79.1007 71.2095 79.291 71.5085 79.4294 71.8718C79.5678 72.2326 79.637 72.6626 79.637 73.1618V73.5733H74.97V72.6688H78.3507C78.3482 72.4118 78.2926 72.1832 78.1839 71.983C78.0751 71.7804 77.9231 71.621 77.7279 71.5048C77.5352 71.3887 77.3103 71.3306 77.0533 71.3306C76.7789 71.3306 76.538 71.3973 76.3304 71.5308C76.1228 71.6618 75.9609 71.8348 75.8448 72.0498C75.7311 72.2623 75.673 72.4958 75.6706 72.7504V73.5399C75.6706 73.8711 75.7311 74.1553 75.8522 74.3925C75.9733 74.6273 76.1426 74.8077 76.3601 74.9337C76.5775 75.0573 76.8321 75.1191 77.1237 75.1191C77.3189 75.1191 77.4956 75.0919 77.6538 75.0375C77.8119 74.9807 77.9491 74.8979 78.0652 74.7892C78.1814 74.6804 78.2691 74.5457 78.3284 74.3851L79.5814 74.526C79.5023 74.8571 79.3515 75.1463 79.1291 75.3934C78.9092 75.638 78.6275 75.8283 78.284 75.9643C77.9404 76.0977 77.5475 76.1644 77.1052 76.1644Z" fill="white"/>
<path d="M177.458 70.8118L180.937 74.2913L184.417 70.8118" stroke="#CDCDCD" stroke-width="0.968225" stroke-linecap="round" stroke-linejoin="round"/>
<g filter="url(#filter2_f_6_1318)">
<ellipse cx="104.3" cy="73.0303" rx="43.0693" ry="43.5882" fill="#90D2FF" fill-opacity="0.2"/>
</g>
</g>
</g>
<line x1="10.4387" y1="98.2348" x2="198.335" y2="98.2348" stroke="#303030" stroke-width="0.830251"/>
<g filter="url(#filter3_i_6_1318)">
<rect x="10.4387" y="109.089" width="187.896" height="102.55" rx="6.95912" fill="url(#paint3_radial_6_1318)"/>
<rect x="20.8774" y="117.788" width="167" height="26" rx="4.15126" fill="url(#paint4_linear_6_1318)" fill-opacity="0.1"/>
<rect x="28.2716" y="124.263" width="13.0483" height="13.0483" rx="1.30483" stroke="white" stroke-width="0.86989"/>
<path d="M56.5069 134.288V126.696H59.213C59.8011 126.696 60.2892 126.797 60.6772 127C61.0677 127.202 61.3593 127.483 61.552 127.841C61.7448 128.197 61.8412 128.609 61.8412 129.076C61.8412 129.54 61.7435 129.949 61.5483 130.303C61.3556 130.654 61.0639 130.927 60.6735 131.122C60.2855 131.317 59.7974 131.415 59.2093 131.415H57.1593V130.429H59.1055C59.4761 130.429 59.7776 130.376 60.0099 130.269C60.2447 130.163 60.4165 130.009 60.5252 129.806C60.6339 129.603 60.6883 129.36 60.6883 129.076C60.6883 128.789 60.6327 128.541 60.5215 128.331C60.4128 128.121 60.241 127.96 60.0062 127.849C59.7739 127.735 59.4687 127.678 59.0906 127.678H57.6523V134.288H56.5069ZM60.2546 130.862L62.1303 134.288H60.8255L58.9868 130.862H60.2546ZM65.4858 134.403C64.9248 134.403 64.4417 134.283 64.0364 134.043C63.6336 133.801 63.3222 133.461 63.1023 133.024C62.8848 132.584 62.7761 132.068 62.7761 131.478C62.7761 130.895 62.8848 130.381 63.1023 129.936C63.3222 129.491 63.6287 129.144 64.0216 128.894C64.417 128.644 64.8791 128.52 65.408 128.52C65.7292 128.52 66.0406 128.573 66.3421 128.679C66.6436 128.785 66.9142 128.952 67.1539 129.179C67.3936 129.407 67.5827 129.702 67.7211 130.065C67.8595 130.426 67.9287 130.865 67.9287 131.381V131.774H63.4025V130.944H66.8425C66.8425 130.652 66.7832 130.394 66.6646 130.169C66.546 129.942 66.3792 129.763 66.1642 129.632C65.9517 129.501 65.7021 129.435 65.4154 129.435C65.104 129.435 64.8322 129.512 64.5999 129.665C64.37 129.816 64.1921 130.014 64.0661 130.258C63.9425 130.5 63.8807 130.764 63.8807 131.048V131.696C63.8807 132.077 63.9474 132.401 64.0809 132.668C64.2168 132.935 64.4059 133.138 64.6481 133.279C64.8902 133.418 65.1732 133.487 65.4969 133.487C65.707 133.487 65.8985 133.457 66.0715 133.398C66.2445 133.336 66.394 133.245 66.52 133.124C66.6461 133.003 66.7425 132.853 66.8092 132.675L67.8582 132.864C67.7742 133.173 67.6235 133.444 67.406 133.676C67.191 133.906 66.9204 134.085 66.5942 134.213C66.2704 134.339 65.901 134.403 65.4858 134.403ZM71.514 134.403C70.9629 134.403 70.4884 134.278 70.0906 134.028C69.6952 133.776 69.3912 133.429 69.1787 132.986C68.9661 132.544 68.8599 132.037 68.8599 131.467C68.8599 130.888 68.9686 130.378 69.1861 129.936C69.4036 129.491 69.71 129.144 70.1054 128.894C70.5008 128.644 70.9666 128.52 71.5029 128.52C71.9354 128.52 72.3209 128.6 72.6595 128.761C72.998 128.919 73.2711 129.141 73.4787 129.428C73.6887 129.714 73.8135 130.049 73.8531 130.432H72.7744C72.7151 130.166 72.5791 129.936 72.3666 129.743C72.1566 129.55 71.8748 129.454 71.5214 129.454C71.2125 129.454 70.9419 129.535 70.7096 129.698C70.4798 129.859 70.3006 130.089 70.1721 130.388C70.0436 130.684 69.9794 131.035 69.9794 131.441C69.9794 131.856 70.0424 132.214 70.1684 132.516C70.2944 132.817 70.4724 133.051 70.7022 133.216C70.9345 133.382 71.2076 133.465 71.5214 133.465C71.7315 133.465 71.9218 133.426 72.0923 133.35C72.2653 133.271 72.4099 133.158 72.526 133.012C72.6446 132.867 72.7274 132.691 72.7744 132.486H73.8531C73.8135 132.854 73.6937 133.183 73.4935 133.472C73.2933 133.761 73.0252 133.989 72.6891 134.154C72.3555 134.32 71.9638 134.403 71.514 134.403ZM77.6534 128.594V129.483H74.5433V128.594H77.6534ZM75.3774 127.23H76.4858V132.616C76.4858 132.831 76.5179 132.993 76.5821 133.101C76.6464 133.208 76.7292 133.281 76.8305 133.32C76.9343 133.357 77.0467 133.376 77.1678 133.376C77.2568 133.376 77.3346 133.37 77.4014 133.357C77.4681 133.345 77.52 133.335 77.5571 133.328L77.7572 134.243C77.693 134.268 77.6015 134.293 77.4829 134.317C77.3643 134.344 77.216 134.359 77.0381 134.362C76.7465 134.367 76.4746 134.315 76.2226 134.206C75.9705 134.097 75.7666 133.929 75.6109 133.702C75.4552 133.475 75.3774 133.189 75.3774 132.846V127.23ZM80.4937 134.414C80.1329 134.414 79.8067 134.347 79.5151 134.213C79.2235 134.078 78.9924 133.881 78.8219 133.624C78.6538 133.367 78.5698 133.052 78.5698 132.679C78.5698 132.358 78.6316 132.093 78.7551 131.886C78.8787 131.678 79.0455 131.514 79.2556 131.392C79.4656 131.271 79.7004 131.18 79.9599 131.118C80.2194 131.056 80.4838 131.009 80.7532 130.977C81.0942 130.938 81.371 130.906 81.5835 130.881C81.7961 130.854 81.9505 130.811 82.0469 130.751C82.1433 130.692 82.1915 130.596 82.1915 130.462V130.436C82.1915 130.112 82.1 129.862 81.9171 129.684C81.7367 129.506 81.4674 129.417 81.109 129.417C80.7359 129.417 80.4418 129.499 80.2268 129.665C80.0143 129.828 79.8672 130.01 79.7857 130.21L78.744 129.973C78.8676 129.627 79.048 129.348 79.2852 129.135C79.5249 128.92 79.8005 128.764 80.1119 128.668C80.4233 128.569 80.7507 128.52 81.0942 128.52C81.3216 128.52 81.5625 128.547 81.8171 128.601C82.0741 128.653 82.3138 128.749 82.5362 128.89C82.7611 129.031 82.9452 129.233 83.0885 129.495C83.2319 129.754 83.3035 130.091 83.3035 130.507V134.288H82.2211V133.509H82.1766C82.105 133.652 81.9975 133.793 81.8541 133.932C81.7108 134.07 81.5267 134.185 81.3018 134.276C81.0769 134.368 80.8075 134.414 80.4937 134.414ZM80.7346 133.524C81.0411 133.524 81.303 133.463 81.5205 133.342C81.7405 133.221 81.9073 133.063 82.0209 132.868C82.1371 132.67 82.1952 132.459 82.1952 132.234V131.5C82.1556 131.54 82.079 131.577 81.9653 131.611C81.8541 131.643 81.7269 131.672 81.5835 131.696C81.4402 131.719 81.3006 131.74 81.1646 131.759C81.0287 131.777 80.915 131.792 80.8236 131.804C80.6086 131.831 80.4121 131.877 80.2342 131.941C80.0587 132.005 79.9179 132.098 79.8116 132.219C79.7078 132.338 79.6559 132.496 79.6559 132.694C79.6559 132.968 79.7572 133.176 79.9599 133.316C80.1625 133.455 80.4208 133.524 80.7346 133.524ZM85.8454 130.907V134.288H84.737V128.594H85.8009V129.521H85.8713C86.0023 129.219 86.2074 128.977 86.4867 128.794C86.7684 128.611 87.123 128.52 87.5506 128.52C87.9386 128.52 88.2784 128.601 88.57 128.764C88.8616 128.925 89.0877 129.165 89.2483 129.483C89.409 129.802 89.4893 130.196 89.4893 130.666V134.288H88.3809V130.799C88.3809 130.387 88.2734 130.064 88.0584 129.832C87.8434 129.597 87.5481 129.48 87.1725 129.48C86.9154 129.48 86.6869 129.535 86.4867 129.647C86.289 129.758 86.1321 129.921 86.0159 130.136C85.9022 130.348 85.8454 130.605 85.8454 130.907ZM93.3202 136.541C92.868 136.541 92.4787 136.482 92.1525 136.363C91.8288 136.245 91.5644 136.088 91.3593 135.893C91.1541 135.697 91.0009 135.484 90.8996 135.251L91.8523 134.858C91.919 134.967 92.008 135.082 92.1192 135.203C92.2328 135.327 92.3861 135.432 92.5788 135.518C92.7741 135.605 93.0249 135.648 93.3313 135.648C93.7514 135.648 94.0987 135.545 94.373 135.34C94.6473 135.138 94.7844 134.814 94.7844 134.369V133.25H94.714C94.6473 133.371 94.5509 133.505 94.4249 133.654C94.3013 133.802 94.1308 133.93 93.9133 134.039C93.6958 134.148 93.4129 134.202 93.0644 134.202C92.6147 134.202 92.2094 134.097 91.8486 133.887C91.4902 133.675 91.206 133.362 90.996 132.949C90.7884 132.534 90.6846 132.024 90.6846 131.418C90.6846 130.813 90.7872 130.294 90.9923 129.862C91.1999 129.429 91.4841 129.098 91.8449 128.868C92.2057 128.636 92.6147 128.52 93.0718 128.52C93.4252 128.52 93.7107 128.579 93.9281 128.698C94.1456 128.814 94.3149 128.95 94.436 129.105C94.5596 129.261 94.6547 129.398 94.7214 129.517H94.803V128.594H95.8891V134.414C95.8891 134.903 95.7754 135.305 95.5481 135.618C95.3207 135.932 95.013 136.165 94.625 136.315C94.2395 136.466 93.8046 136.541 93.3202 136.541ZM93.3091 133.283C93.6279 133.283 93.8973 133.209 94.1172 133.061C94.3396 132.91 94.5077 132.695 94.6213 132.416C94.7375 132.134 94.7956 131.797 94.7956 131.404C94.7956 131.021 94.7387 130.683 94.625 130.392C94.5114 130.1 94.3446 129.873 94.1246 129.71C93.9047 129.544 93.6328 129.461 93.3091 129.461C92.9755 129.461 92.6974 129.548 92.475 129.721C92.2526 129.891 92.0846 130.123 91.9709 130.418C91.8597 130.712 91.8041 131.04 91.8041 131.404C91.8041 131.777 91.8609 132.104 91.9746 132.386C92.0883 132.668 92.2563 132.888 92.4787 133.046C92.7036 133.204 92.9804 133.283 93.3091 133.283ZM98.4411 126.696V134.288H97.3328V126.696H98.4411ZM102.343 134.403C101.782 134.403 101.299 134.283 100.894 134.043C100.491 133.801 100.18 133.461 99.9599 133.024C99.7424 132.584 99.6337 132.068 99.6337 131.478C99.6337 130.895 99.7424 130.381 99.9599 129.936C100.18 129.491 100.486 129.144 100.879 128.894C101.275 128.644 101.737 128.52 102.266 128.52C102.587 128.52 102.898 128.573 103.2 128.679C103.501 128.785 103.772 128.952 104.012 129.179C104.251 129.407 104.44 129.702 104.579 130.065C104.717 130.426 104.786 130.865 104.786 131.381V131.774H100.26V130.944H103.7C103.7 130.652 103.641 130.394 103.522 130.169C103.404 129.942 103.237 129.763 103.022 129.632C102.809 129.501 102.56 129.435 102.273 129.435C101.962 129.435 101.69 129.512 101.457 129.665C101.228 129.816 101.05 130.014 100.924 130.258C100.8 130.5 100.738 130.764 100.738 131.048V131.696C100.738 132.077 100.805 132.401 100.939 132.668C101.074 132.935 101.263 133.138 101.506 133.279C101.748 133.418 102.031 133.487 102.355 133.487C102.565 133.487 102.756 133.457 102.929 133.398C103.102 133.336 103.252 133.245 103.378 133.124C103.504 133.003 103.6 132.853 103.667 132.675L104.716 132.864C104.632 133.173 104.481 133.444 104.264 133.676C104.049 133.906 103.778 134.085 103.452 134.213C103.128 134.339 102.759 134.403 102.343 134.403Z" fill="white"/>
<rect x="27.8367" y="155.966" width="13.9182" height="13.9182" rx="1.73978" fill="#3B3B3B"/>
<path d="M31.3164 160.75C31.3164 160.345 31.3164 160.142 31.3826 159.983C31.4709 159.769 31.6403 159.6 31.8534 159.512C32.0133 159.446 32.2159 159.446 32.6212 159.446H36.9707C37.376 159.446 37.5787 159.446 37.7385 159.512C37.9517 159.6 38.121 159.769 38.2093 159.983C38.2755 160.142 38.2755 160.345 38.2755 160.75M33.4911 166.405H36.1008M34.796 159.446V166.405" stroke="white" stroke-width="0.86989" stroke-linecap="round" stroke-linejoin="round"/>
<path d="M61.5743 158.833H62.4936V163.86C62.4936 164.379 62.3713 164.842 62.1266 165.25C61.8844 165.655 61.5421 165.975 61.0998 166.21C60.6574 166.442 60.1385 166.558 59.5429 166.558C58.9473 166.558 58.4283 166.442 57.986 166.21C57.5436 165.975 57.2001 165.655 56.9554 165.25C56.7133 164.842 56.5922 164.379 56.5922 163.86V158.833H57.5115V163.785C57.5115 164.156 57.593 164.486 57.7561 164.775C57.9192 165.062 58.1515 165.288 58.453 165.454C58.757 165.617 59.1203 165.698 59.5429 165.698C59.9655 165.698 60.3287 165.617 60.6327 165.454C60.9367 165.288 61.169 165.062 61.3296 164.775C61.4927 164.486 61.5743 164.156 61.5743 163.785V158.833ZM68.2011 162.006L67.4153 162.229C67.3658 162.098 67.2929 161.97 67.1966 161.847C67.1027 161.721 66.9741 161.617 66.811 161.535C66.6479 161.454 66.4391 161.413 66.1846 161.413C65.8361 161.413 65.5457 161.493 65.3134 161.654C65.0836 161.812 64.9687 162.014 64.9687 162.258C64.9687 162.476 65.0478 162.647 65.2059 162.773C65.3641 162.9 65.6112 163.005 65.9473 163.089L66.7925 163.296C67.3016 163.42 67.6809 163.609 67.9305 163.863C68.1801 164.115 68.3049 164.44 68.3049 164.838C68.3049 165.164 68.211 165.456 68.0232 165.713C67.8379 165.97 67.5784 166.173 67.2448 166.321C66.9111 166.469 66.5231 166.543 66.0808 166.543C65.5 166.543 65.0194 166.417 64.6388 166.165C64.2582 165.913 64.0173 165.545 63.9159 165.061L64.7463 164.853C64.8254 165.16 64.9749 165.389 65.1948 165.543C65.4172 165.696 65.7076 165.772 66.066 165.772C66.4737 165.772 66.7974 165.686 67.0372 165.513C67.2793 165.337 67.4004 165.127 67.4004 164.883C67.4004 164.685 67.3312 164.519 67.1929 164.386C67.0545 164.25 66.8419 164.149 66.5553 164.082L65.6063 163.86C65.0849 163.736 64.7018 163.545 64.4571 163.285C64.215 163.023 64.0939 162.696 64.0939 162.303C64.0939 161.981 64.1841 161.697 64.3645 161.45C64.5474 161.203 64.7957 161.009 65.1096 160.868C65.4259 160.727 65.7842 160.657 66.1846 160.657C66.748 160.657 67.1904 160.78 67.5116 161.028C67.8354 161.275 68.0652 161.601 68.2011 162.006ZM71.9663 166.543C71.4176 166.543 70.9444 166.422 70.5465 166.18C70.1511 165.935 69.8459 165.594 69.6309 165.157C69.4184 164.717 69.3121 164.206 69.3121 163.622C69.3121 163.039 69.4184 162.525 69.6309 162.08C69.8459 161.633 70.1449 161.285 70.528 161.035C70.9135 160.783 71.3633 160.657 71.8773 160.657C72.1739 160.657 72.4667 160.706 72.7558 160.805C73.045 160.904 73.3082 161.065 73.5454 161.287C73.7827 161.507 73.9717 161.799 74.1126 162.162C74.2534 162.525 74.3239 162.972 74.3239 163.504V163.874H69.9349V163.118H73.4342C73.4342 162.797 73.37 162.51 73.2414 162.258C73.1154 162.006 72.935 161.807 72.7002 161.661C72.4679 161.516 72.1936 161.443 71.8773 161.443C71.5288 161.443 71.2274 161.529 70.9728 161.702C70.7207 161.873 70.5267 162.095 70.3908 162.369C70.2549 162.644 70.1869 162.938 70.1869 163.252V163.756C70.1869 164.186 70.2611 164.55 70.4094 164.849C70.5601 165.146 70.7689 165.372 71.0358 165.528C71.3027 165.681 71.6129 165.758 71.9663 165.758C72.1961 165.758 72.4037 165.725 72.589 165.661C72.7768 165.594 72.9387 165.496 73.0746 165.365C73.2106 165.231 73.3156 165.066 73.3897 164.868L74.2349 165.105C74.1459 165.392 73.9964 165.644 73.7864 165.861C73.5763 166.076 73.3168 166.244 73.0079 166.365C72.699 166.484 72.3518 166.543 71.9663 166.543ZM75.6118 166.425V160.731H76.457V161.591H76.5163C76.6201 161.309 76.8079 161.081 77.0798 160.905C77.3516 160.73 77.6581 160.642 77.9991 160.642C78.0634 160.642 78.1437 160.643 78.2401 160.646C78.3364 160.648 78.4093 160.652 78.4588 160.657V161.547C78.4291 161.539 78.3611 161.528 78.2549 161.513C78.1511 161.496 78.0411 161.487 77.925 161.487C77.6482 161.487 77.4011 161.545 77.1836 161.661C76.9686 161.775 76.7981 161.933 76.672 162.136C76.5485 162.336 76.4867 162.565 76.4867 162.822V166.425H75.6118ZM83.384 158.833V166.425H82.4647V158.833H83.384ZM85.9407 163V166.425H85.0658V160.731H85.911V161.621H85.9852C86.1186 161.332 86.3212 161.099 86.5931 160.924C86.8649 160.746 87.2158 160.657 87.6458 160.657C88.0314 160.657 88.3687 160.736 88.6578 160.894C88.947 161.05 89.1719 161.287 89.3325 161.606C89.4931 161.922 89.5734 162.322 89.5734 162.807V166.425H88.6986V162.866C88.6986 162.419 88.5825 162.07 88.3502 161.821C88.1179 161.569 87.7991 161.443 87.3938 161.443C87.1145 161.443 86.8649 161.503 86.645 161.624C86.4275 161.745 86.2558 161.922 86.1297 162.154C86.0037 162.387 85.9407 162.668 85.9407 163ZM93.6055 160.731V161.472H90.6548V160.731H93.6055ZM91.5148 159.367H92.3896V164.794C92.3896 165.041 92.4254 165.226 92.4971 165.35C92.5712 165.471 92.6652 165.552 92.7788 165.594C92.895 165.634 93.0173 165.654 93.1458 165.654C93.2422 165.654 93.3213 165.649 93.3831 165.639C93.4448 165.627 93.4943 165.617 93.5313 165.609L93.7093 166.395C93.65 166.417 93.5672 166.44 93.4609 166.462C93.3546 166.487 93.22 166.499 93.0569 166.499C92.8097 166.499 92.5675 166.446 92.3303 166.34C92.0955 166.233 91.9003 166.071 91.7446 165.854C91.5914 165.636 91.5148 165.362 91.5148 165.031V159.367ZM97.2047 166.543C96.6561 166.543 96.1828 166.422 95.785 166.18C95.3896 165.935 95.0844 165.594 94.8694 165.157C94.6568 164.717 94.5506 164.206 94.5506 163.622C94.5506 163.039 94.6568 162.525 94.8694 162.08C95.0844 161.633 95.3834 161.285 95.7664 161.035C96.152 160.783 96.6017 160.657 97.1158 160.657C97.4123 160.657 97.7052 160.706 97.9943 160.805C98.2834 160.904 98.5466 161.065 98.7839 161.287C99.0211 161.507 99.2102 161.799 99.351 162.162C99.4919 162.525 99.5623 162.972 99.5623 163.504V163.874H95.1733V163.118H98.6727C98.6727 162.797 98.6084 162.51 98.4799 162.258C98.3539 162.006 98.1735 161.807 97.9387 161.661C97.7064 161.516 97.4321 161.443 97.1158 161.443C96.7673 161.443 96.4658 161.529 96.2113 161.702C95.9592 161.873 95.7652 162.095 95.6293 162.369C95.4934 162.644 95.4254 162.938 95.4254 163.252V163.756C95.4254 164.186 95.4995 164.55 95.6478 164.849C95.7986 165.146 96.0074 165.372 96.2743 165.528C96.5412 165.681 96.8513 165.758 97.2047 165.758C97.4346 165.758 97.6421 165.725 97.8275 165.661C98.0153 165.594 98.1772 165.496 98.3131 165.365C98.449 165.231 98.554 165.066 98.6282 164.868L99.4734 165.105C99.3844 165.392 99.2349 165.644 99.0248 165.861C98.8148 166.076 98.5553 166.244 98.2464 166.365C97.9375 166.484 97.5902 166.543 97.2047 166.543ZM100.85 166.425V160.731H101.695V161.591H101.755C101.859 161.309 102.046 161.081 102.318 160.905C102.59 160.73 102.897 160.642 103.238 160.642C103.302 160.642 103.382 160.643 103.479 160.646C103.575 160.648 103.648 160.652 103.697 160.657V161.547C103.668 161.539 103.6 161.528 103.493 161.513C103.39 161.496 103.28 161.487 103.163 161.487C102.887 161.487 102.64 161.545 102.422 161.661C102.207 161.775 102.037 161.933 101.91 162.136C101.787 162.336 101.725 162.565 101.725 162.822V166.425H100.85ZM107.584 160.731V161.472H104.514V160.731H107.584ZM105.434 166.425V159.945C105.434 159.619 105.51 159.347 105.664 159.13C105.817 158.912 106.016 158.749 106.26 158.64C106.505 158.532 106.763 158.477 107.035 158.477C107.25 158.477 107.426 158.494 107.562 158.529C107.697 158.564 107.799 158.596 107.865 158.625L107.613 159.382C107.569 159.367 107.507 159.348 107.428 159.326C107.351 159.304 107.25 159.293 107.124 159.293C106.835 159.293 106.626 159.366 106.498 159.511C106.372 159.657 106.309 159.871 106.309 160.153V166.425H105.434ZM110.279 166.558C109.919 166.558 109.591 166.49 109.297 166.354C109.003 166.216 108.769 166.017 108.596 165.758C108.424 165.496 108.337 165.179 108.337 164.809C108.337 164.482 108.401 164.218 108.53 164.015C108.658 163.81 108.83 163.65 109.045 163.533C109.26 163.417 109.497 163.331 109.757 163.274C110.019 163.215 110.282 163.168 110.546 163.133C110.892 163.089 111.173 163.055 111.388 163.033C111.605 163.008 111.763 162.967 111.862 162.911C111.964 162.854 112.014 162.755 112.014 162.614V162.584C112.014 162.219 111.914 161.934 111.714 161.732C111.516 161.529 111.216 161.428 110.813 161.428C110.396 161.428 110.068 161.519 109.831 161.702C109.594 161.885 109.427 162.08 109.33 162.288L108.5 161.991C108.648 161.645 108.846 161.376 109.093 161.183C109.343 160.988 109.615 160.852 109.909 160.775C110.205 160.696 110.497 160.657 110.784 160.657C110.966 160.657 111.177 160.679 111.414 160.724C111.653 160.766 111.885 160.853 112.107 160.987C112.332 161.12 112.518 161.322 112.667 161.591C112.815 161.86 112.889 162.221 112.889 162.673V166.425H112.014V165.654H111.97C111.91 165.777 111.812 165.91 111.673 166.05C111.535 166.191 111.351 166.311 111.121 166.41C110.891 166.509 110.611 166.558 110.279 166.558ZM110.413 165.772C110.759 165.772 111.05 165.704 111.288 165.569C111.527 165.433 111.708 165.257 111.829 165.042C111.952 164.827 112.014 164.601 112.014 164.364V163.563C111.977 163.608 111.896 163.648 111.77 163.685C111.646 163.72 111.503 163.751 111.34 163.778C111.179 163.803 111.022 163.825 110.869 163.845C110.718 163.862 110.596 163.877 110.502 163.889C110.274 163.919 110.062 163.967 109.864 164.034C109.669 164.098 109.511 164.196 109.39 164.327C109.271 164.455 109.212 164.631 109.212 164.853C109.212 165.157 109.324 165.387 109.549 165.543C109.777 165.696 110.064 165.772 110.413 165.772ZM116.756 166.543C116.222 166.543 115.763 166.417 115.377 166.165C114.992 165.913 114.695 165.566 114.488 165.124C114.28 164.681 114.176 164.176 114.176 163.608C114.176 163.029 114.282 162.519 114.495 162.077C114.71 161.632 115.009 161.285 115.392 161.035C115.778 160.783 116.227 160.657 116.741 160.657C117.142 160.657 117.503 160.731 117.824 160.879C118.145 161.028 118.408 161.235 118.613 161.502C118.818 161.769 118.946 162.08 118.995 162.436H118.12C118.054 162.177 117.905 161.947 117.675 161.747C117.448 161.544 117.142 161.443 116.756 161.443C116.415 161.443 116.116 161.532 115.859 161.71C115.605 161.885 115.406 162.133 115.262 162.455C115.121 162.773 115.051 163.148 115.051 163.578C115.051 164.018 115.12 164.401 115.259 164.727C115.399 165.053 115.597 165.307 115.852 165.487C116.109 165.667 116.41 165.758 116.756 165.758C116.984 165.758 117.19 165.718 117.375 165.639C117.561 165.56 117.718 165.446 117.846 165.298C117.975 165.15 118.066 164.972 118.12 164.764H118.995C118.946 165.1 118.823 165.403 118.628 165.672C118.435 165.939 118.18 166.152 117.861 166.31C117.545 166.466 117.176 166.543 116.756 166.543ZM122.618 166.543C122.07 166.543 121.597 166.422 121.199 166.18C120.803 165.935 120.498 165.594 120.283 165.157C120.071 164.717 119.964 164.206 119.964 163.622C119.964 163.039 120.071 162.525 120.283 162.08C120.498 161.633 120.797 161.285 121.18 161.035C121.566 160.783 122.016 160.657 122.53 160.657C122.826 160.657 123.119 160.706 123.408 160.805C123.697 160.904 123.96 161.065 124.198 161.287C124.435 161.507 124.624 161.799 124.765 162.162C124.906 162.525 124.976 162.972 124.976 163.504V163.874H120.587V163.118H124.086C124.086 162.797 124.022 162.51 123.894 162.258C123.768 162.006 123.587 161.807 123.352 161.661C123.12 161.516 122.846 161.443 122.53 161.443C122.181 161.443 121.88 161.529 121.625 161.702C121.373 161.873 121.179 162.095 121.043 162.369C120.907 162.644 120.839 162.938 120.839 163.252V163.756C120.839 164.186 120.913 164.55 121.062 164.849C121.212 165.146 121.421 165.372 121.688 165.528C121.955 165.681 122.265 165.758 122.618 165.758C122.848 165.758 123.056 165.725 123.241 165.661C123.429 165.594 123.591 165.496 123.727 165.365C123.863 165.231 123.968 165.066 124.042 164.868L124.887 165.105C124.798 165.392 124.649 165.644 124.439 165.861C124.229 166.076 123.969 166.244 123.66 166.365C123.351 166.484 123.004 166.543 122.618 166.543Z" fill="white"/>
<rect x="27.8367" y="185.542" width="13.9182" height="13.9182" rx="1.73978" fill="#3B3B3B"/>
<path d="M31.435 196.297L34.3041 193.428C34.4764 193.256 34.5625 193.17 34.6618 193.138C34.7492 193.109 34.8433 193.109 34.9306 193.138C35.0299 193.17 35.1161 193.256 35.2883 193.428L38.1383 196.278M35.6661 193.806L36.9138 192.558C37.0861 192.386 37.1722 192.3 37.2715 192.268C37.3588 192.239 37.4529 192.239 37.5403 192.268C37.6396 192.3 37.7257 192.386 37.898 192.558L39.1457 193.806M33.9263 191.196C33.9263 191.677 33.5369 192.066 33.0564 192.066C32.576 192.066 32.1866 191.677 32.1866 191.196C32.1866 190.716 32.576 190.326 33.0564 190.326C33.5369 190.326 33.9263 190.716 33.9263 191.196ZM32.5345 196.416H37.0579C37.7887 196.416 38.1541 196.416 38.4332 196.273C38.6787 196.148 38.8784 195.949 39.0035 195.703C39.1457 195.424 39.1457 195.059 39.1457 194.328V190.674C39.1457 189.944 39.1457 189.578 39.0035 189.299C38.8784 189.054 38.6787 188.854 38.4332 188.729C38.1541 188.587 37.7887 188.587 37.0579 188.587H32.5345C31.8037 188.587 31.4383 188.587 31.1592 188.729C30.9137 188.854 30.7141 189.054 30.589 189.299C30.4468 189.578 30.4468 189.944 30.4468 190.674V194.328C30.4468 195.059 30.4468 195.424 30.589 195.703C30.7141 195.949 30.9137 196.148 31.1592 196.273C31.4383 196.416 31.8037 196.416 32.5345 196.416Z" stroke="white" stroke-width="0.86989" stroke-linecap="round" stroke-linejoin="round"/>
<path d="M57.5115 188.41V196.001H56.5922V188.41H57.5115ZM59.1933 196.001V190.308H60.0385V191.197H60.1126C60.2313 190.893 60.4228 190.657 60.6872 190.489C60.9516 190.319 61.2692 190.234 61.6399 190.234C62.0155 190.234 62.3281 190.319 62.5777 190.489C62.8298 190.657 63.0263 190.893 63.1671 191.197H63.2265C63.3723 190.903 63.591 190.67 63.8826 190.497C64.1742 190.321 64.5239 190.234 64.9316 190.234C65.4407 190.234 65.8571 190.393 66.1809 190.712C66.5046 191.028 66.6665 191.521 66.6665 192.191V196.001H65.7916V192.191C65.7916 191.771 65.6767 191.47 65.4469 191.29C65.2171 191.11 64.9465 191.019 64.6351 191.019C64.2347 191.019 63.9246 191.14 63.7046 191.383C63.4847 191.622 63.3747 191.926 63.3747 192.295V196.001H62.4851V192.102C62.4851 191.778 62.38 191.517 62.17 191.32C61.9599 191.119 61.6893 191.019 61.3582 191.019C61.1308 191.019 60.9183 191.08 60.7206 191.201C60.5253 191.322 60.3672 191.49 60.2461 191.705C60.1275 191.918 60.0682 192.164 60.0682 192.443V196.001H59.1933ZM69.8987 196.135C69.5379 196.135 69.2105 196.067 68.9164 195.931C68.6223 195.793 68.3888 195.594 68.2158 195.334C68.0428 195.072 67.9563 194.756 67.9563 194.385C67.9563 194.059 68.0206 193.795 68.1491 193.592C68.2776 193.387 68.4493 193.226 68.6643 193.11C68.8793 192.994 69.1166 192.907 69.3761 192.851C69.638 192.791 69.9012 192.744 70.1656 192.71C70.5116 192.665 70.7921 192.632 71.0071 192.61C71.2246 192.585 71.3827 192.544 71.4816 192.487C71.5829 192.43 71.6336 192.332 71.6336 192.191V192.161C71.6336 191.795 71.5335 191.511 71.3333 191.309C71.1356 191.106 70.8353 191.005 70.4325 191.005C70.0149 191.005 69.6874 191.096 69.4502 191.279C69.213 191.462 69.0461 191.657 68.9498 191.865L68.1194 191.568C68.2677 191.222 68.4654 190.953 68.7125 190.76C68.9621 190.565 69.234 190.429 69.528 190.352C69.8246 190.273 70.1162 190.234 70.4029 190.234C70.5857 190.234 70.7958 190.256 71.0331 190.3C71.2728 190.342 71.5038 190.43 71.7262 190.563C71.9511 190.697 72.1377 190.898 72.286 191.168C72.4343 191.437 72.5084 191.798 72.5084 192.25V196.001H71.6336V195.23H71.5891C71.5298 195.354 71.4309 195.486 71.2925 195.627C71.1541 195.768 70.97 195.888 70.7402 195.987C70.5104 196.085 70.2299 196.135 69.8987 196.135ZM70.0322 195.349C70.3782 195.349 70.6698 195.281 70.907 195.145C71.1467 195.009 71.3271 194.834 71.4482 194.619C71.5718 194.404 71.6336 194.178 71.6336 193.94V193.14C71.5965 193.184 71.5149 193.225 71.3889 193.262C71.2654 193.297 71.122 193.328 70.9589 193.355C70.7983 193.379 70.6414 193.402 70.4881 193.421C70.3374 193.439 70.2151 193.454 70.1211 193.466C69.8938 193.496 69.6813 193.544 69.4836 193.611C69.2883 193.675 69.1302 193.772 69.0091 193.903C68.8905 194.032 68.8311 194.207 68.8311 194.43C68.8311 194.734 68.9436 194.964 69.1685 195.119C69.3958 195.272 69.6837 195.349 70.0322 195.349ZM76.3606 198.255C75.9381 198.255 75.5748 198.201 75.2708 198.092C74.9668 197.986 74.7135 197.845 74.5109 197.67C74.3107 197.497 74.1513 197.311 74.0327 197.114L74.7296 196.624C74.8087 196.728 74.9088 196.847 75.0299 196.98C75.151 197.116 75.3165 197.233 75.5266 197.332C75.7391 197.434 76.0171 197.484 76.3606 197.484C76.8203 197.484 77.1996 197.373 77.4987 197.151C77.7977 196.928 77.9472 196.58 77.9472 196.105V194.949H77.8731C77.8088 195.052 77.7174 195.181 77.5988 195.334C77.4826 195.485 77.3146 195.62 77.0946 195.738C76.8771 195.854 76.5831 195.912 76.2124 195.912C75.7527 195.912 75.34 195.804 74.9743 195.586C74.611 195.369 74.3231 195.052 74.1105 194.637C73.9005 194.222 73.7955 193.718 73.7955 193.125C73.7955 192.542 73.898 192.034 74.1031 191.601C74.3083 191.166 74.5937 190.83 74.9594 190.593C75.3252 190.353 75.7478 190.234 76.2272 190.234C76.5979 190.234 76.892 190.295 77.1094 190.419C77.3294 190.54 77.4974 190.678 77.6136 190.834C77.7322 190.987 77.8236 191.113 77.8879 191.212H77.9769V190.308H78.822V196.165C78.822 196.654 78.7108 197.052 78.4884 197.358C78.2685 197.667 77.9719 197.893 77.5988 198.037C77.2281 198.182 76.8154 198.255 76.3606 198.255ZM76.331 195.127C76.6819 195.127 76.9785 195.046 77.2207 194.886C77.4628 194.725 77.6469 194.494 77.773 194.192C77.899 193.891 77.962 193.53 77.962 193.11C77.962 192.7 77.9003 192.338 77.7767 192.024C77.6531 191.71 77.4703 191.464 77.2281 191.286C76.9859 191.108 76.6869 191.019 76.331 191.019C75.9603 191.019 75.6514 191.113 75.4043 191.301C75.1596 191.489 74.9755 191.741 74.8519 192.057C74.7308 192.374 74.6703 192.725 74.6703 193.11C74.6703 193.505 74.7321 193.855 74.8556 194.159C74.9817 194.461 75.167 194.698 75.4117 194.871C75.6588 195.041 75.9652 195.127 76.331 195.127ZM82.7679 196.12C82.2193 196.12 81.746 195.999 81.3481 195.757C80.9527 195.512 80.6475 195.171 80.4325 194.734C80.22 194.294 80.1137 193.782 80.1137 193.199C80.1137 192.616 80.22 192.102 80.4325 191.657C80.6475 191.21 80.9466 190.861 81.3296 190.612C81.7151 190.36 82.1649 190.234 82.6789 190.234C82.9755 190.234 83.2683 190.283 83.5575 190.382C83.8466 190.481 84.1098 190.641 84.347 190.864C84.5843 191.084 84.7733 191.375 84.9142 191.739C85.0551 192.102 85.1255 192.549 85.1255 193.08V193.451H80.7365V192.695H84.2358C84.2358 192.374 84.1716 192.087 84.0431 191.835C83.917 191.583 83.7366 191.384 83.5019 191.238C83.2696 191.092 82.9952 191.019 82.6789 191.019C82.3305 191.019 82.029 191.106 81.7744 191.279C81.5224 191.449 81.3284 191.672 81.1924 191.946C81.0565 192.22 80.9886 192.514 80.9886 192.828V193.332C80.9886 193.762 81.0627 194.127 81.211 194.426C81.3617 194.723 81.5705 194.949 81.8374 195.104C82.1043 195.258 82.4145 195.334 82.7679 195.334C82.9977 195.334 83.2053 195.302 83.3906 195.238C83.5785 195.171 83.7403 195.072 83.8763 194.941C84.0122 194.808 84.1172 194.642 84.1913 194.445L85.0365 194.682C84.9476 194.968 84.798 195.221 84.588 195.438C84.3779 195.653 84.1184 195.821 83.8095 195.942C83.5006 196.061 83.1534 196.12 82.7679 196.12Z" fill="white"/>
</g>
<defs>
<filter id="filter0_i_6_1318" x="10.4387" y="10.4387" width="50.605" height="29.0588" filterUnits="userSpaceOnUse" color-interpolation-filters="sRGB">
<feFlood flood-opacity="0" result="BackgroundImageFix"/>
<feBlend mode="normal" in="SourceGraphic" in2="BackgroundImageFix" result="shape"/>
<feColorMatrix in="SourceAlpha" type="matrix" values="0 0 0 0 0 0 0 0 0 0 0 0 0 0 0 0 0 0 127 0" result="hardAlpha"/>
<feOffset/>
<feGaussianBlur stdDeviation="2.07563"/>
<feComposite in2="hardAlpha" operator="arithmetic" k2="-1" k3="1"/>
<feColorMatrix type="matrix" values="0 0 0 0 0.576667 0 0 0 0 0.576667 0 0 0 0 0.576667 0 0 0 0.24 0"/>
<feBlend mode="normal" in2="shape" result="effect1_innerShadow_6_1318"/>
</filter>
<filter id="filter1_i_6_1318" x="10.4387" y="56.8953" width="187.896" height="31.3159" filterUnits="userSpaceOnUse" color-interpolation-filters="sRGB">
<feFlood flood-opacity="0" result="BackgroundImageFix"/>
<feBlend mode="normal" in="SourceGraphic" in2="BackgroundImageFix" result="shape"/>
<feColorMatrix in="SourceAlpha" type="matrix" values="0 0 0 0 0 0 0 0 0 0 0 0 0 0 0 0 0 0 127 0" result="hardAlpha"/>
<feOffset/>
<feGaussianBlur stdDeviation="4.15126"/>
<feComposite in2="hardAlpha" operator="arithmetic" k2="-1" k3="1"/>
<feColorMatrix type="matrix" values="0 0 0 0 0.287083 0 0 0 0 0.287083 0 0 0 0 0.287083 0 0 0 0.4 0"/>
<feBlend mode="normal" in2="shape" result="effect1_innerShadow_6_1318"/>
</filter>
<filter id="filter2_f_6_1318" x="-63.3067" y="-95.0955" width="335.214" height="336.252" filterUnits="userSpaceOnUse" color-interpolation-filters="sRGB">
<feFlood flood-opacity="0" result="BackgroundImageFix"/>
<feBlend mode="normal" in="SourceGraphic" in2="BackgroundImageFix" result="shape"/>
<feGaussianBlur stdDeviation="62.2688" result="effect1_foregroundBlur_6_1318"/>
</filter>
<filter id="filter3_i_6_1318" x="10.4387" y="109.089" width="187.896" height="102.55" filterUnits="userSpaceOnUse" color-interpolation-filters="sRGB">
<feFlood flood-opacity="0" result="BackgroundImageFix"/>
<feBlend mode="normal" in="SourceGraphic" in2="BackgroundImageFix" result="shape"/>
<feColorMatrix in="SourceAlpha" type="matrix" values="0 0 0 0 0 0 0 0 0 0 0 0 0 0 0 0 0 0 127 0" result="hardAlpha"/>
<feOffset/>
<feGaussianBlur stdDeviation="3"/>
<feComposite in2="hardAlpha" operator="arithmetic" k2="-1" k3="1"/>
<feColorMatrix type="matrix" values="0 0 0 0 0.438542 0 0 0 0 0.3125 0 0 0 0 1 0 0 0 1 0"/>
<feBlend mode="normal" in2="shape" result="effect1_innerShadow_6_1318"/>
</filter>
<linearGradient id="paint0_linear_6_1318" x1="5.70798" y1="-2.58779e-07" x2="170.72" y2="633.066" gradientUnits="userSpaceOnUse">
<stop stop-color="#0A0A0A"/>
<stop offset="0.289" stop-color="#10131D"/>
<stop offset="1" stop-color="#010101"/>
</linearGradient>
<radialGradient id="paint1_radial_6_1318" cx="0" cy="0" r="1" gradientUnits="userSpaceOnUse" gradientTransform="translate(35.7412 24.9681) rotate(90) scale(14.5294 25.3025)">
<stop stop-color="#5E5D5D"/>
<stop offset="1" stop-color="#3C3C3C"/>
</radialGradient>
<radialGradient id="paint2_radial_6_1318" cx="0" cy="0" r="1" gradientUnits="userSpaceOnUse" gradientTransform="translate(97.0356 73.0296) scale(118.83 29.2728)">
<stop stop-color="#262626"/>
<stop offset="1" stop-color="#191919"/>
</radialGradient>
<radialGradient id="paint3_radial_6_1318" cx="0" cy="0" r="1" gradientUnits="userSpaceOnUse" gradientTransform="translate(104.387 160.364) rotate(89.5973) scale(61.52 112.72)">
<stop stop-color="#0B0C0F"/>
<stop offset="1" stop-color="#0F1624"/>
</radialGradient>
<linearGradient id="paint4_linear_6_1318" x1="20.8774" y1="130.788" x2="187.877" y2="130.788" gradientUnits="userSpaceOnUse">
<stop stop-color="#5EBCFF"/>
<stop offset="1" stop-color="#1854F9"/>
</linearGradient>
<clipPath id="clip0_6_1318">
<rect x="10.4387" y="56.8953" width="187.896" height="31.316" rx="6.95912" fill="white"/>
</clipPath>
</defs>
</svg>
