<svg width="656" height="656" viewBox="0 0 656 656" fill="none" xmlns="http://www.w3.org/2000/svg">
<g filter="url(#filter0_i_35_1602)">
<path d="M440.37 82C536.645 82 601.333 173.635 601.333 259.12C601.333 432.243 332.859 574 328 574C323.141 574 54.6666 432.243 54.6666 259.12C54.6666 173.635 119.356 82 215.63 82C270.904 82 307.044 109.982 328 134.582C348.956 109.982 385.096 82 440.37 82Z" fill="url(#paint0_radial_35_1602)"/>
</g>
<path d="M440.37 82C536.645 82 601.333 173.635 601.333 259.12C601.333 432.243 332.859 574 328 574C323.141 574 54.6666 432.243 54.6666 259.12C54.6666 173.635 119.356 82 215.63 82C270.904 82 307.044 109.982 328 134.582C348.956 109.982 385.096 82 440.37 82Z" stroke="white" stroke-linecap="round" stroke-linejoin="round"/>
<path d="M440.37 82C536.645 82 601.333 173.635 601.333 259.12C601.333 432.243 332.859 574 328 574C323.141 574 54.6666 432.243 54.6666 259.12C54.6666 173.635 119.356 82 215.63 82C270.904 82 307.044 109.982 328 134.582C348.956 109.982 385.096 82 440.37 82Z" stroke="url(#paint1_linear_35_1602)" stroke-linecap="round" stroke-linejoin="round"/>
<g filter="url(#filter1_f_35_1602)">
<ellipse cx="328.5" cy="188" rx="185.5" ry="42" fill="url(#paint2_radial_35_1602)" fill-opacity="0.8"/>
</g>
<defs>
<filter id="filter0_i_35_1602" x="54.1666" y="81.5" width="547.667" height="493" filterUnits="userSpaceOnUse" color-interpolation-filters="sRGB">
<feFlood flood-opacity="0" result="BackgroundImageFix"/>
<feBlend mode="normal" in="SourceGraphic" in2="BackgroundImageFix" result="shape"/>
<feColorMatrix in="SourceAlpha" type="matrix" values="0 0 0 0 0 0 0 0 0 0 0 0 0 0 0 0 0 0 127 0" result="hardAlpha"/>
<feOffset/>
<feGaussianBlur stdDeviation="10"/>
<feComposite in2="hardAlpha" operator="arithmetic" k2="-1" k3="1"/>
<feColorMatrix type="matrix" values="0 0 0 0 0 0 0 0 0 0 0 0 0 0 0 0 0 0 0.25 0"/>
<feBlend mode="normal" in2="shape" result="effect1_innerShadow_35_1602"/>
</filter>
<filter id="filter1_f_35_1602" x="63" y="66" width="531" height="244" filterUnits="userSpaceOnUse" color-interpolation-filters="sRGB">
<feFlood flood-opacity="0" result="BackgroundImageFix"/>
<feBlend mode="normal" in="SourceGraphic" in2="BackgroundImageFix" result="shape"/>
<feGaussianBlur stdDeviation="40" result="effect1_foregroundBlur_35_1602"/>
</filter>
<radialGradient id="paint0_radial_35_1602" cx="0" cy="0" r="1" gradientUnits="userSpaceOnUse" gradientTransform="translate(328 328) rotate(90) scale(277 307.778)">
<stop offset="0.829" stop-color="#7050FF" stop-opacity="0.06"/>
<stop offset="1" stop-color="#7050FF" stop-opacity="0.12"/>
</radialGradient>
<linearGradient id="paint1_linear_35_1602" x1="296" y1="51.5" x2="382.794" y2="378.227" gradientUnits="userSpaceOnUse">
<stop stop-color="#9F8AFD"/>
<stop offset="0.0489996" stop-color="#7050FF"/>
<stop offset="0.249" stop-color="#3A3552"/>
<stop offset="1" stop-color="#0D0F15"/>
</linearGradient>
<radialGradient id="paint2_radial_35_1602" cx="0" cy="0" r="1" gradientUnits="userSpaceOnUse" gradientTransform="translate(328.5 188) rotate(90) scale(118.449 121.7)">
<stop stop-color="#9077FF" stop-opacity="0.8"/>
<stop offset="0.122757" stop-color="#6B49FF" stop-opacity="0.7"/>
<stop offset="1" stop-color="#6B49FF" stop-opacity="0.6"/>
</radialGradient>
</defs>
</svg>
