<svg width="203" height="612" viewBox="0 0 203 612" fill="none" xmlns="http://www.w3.org/2000/svg">
<rect x="0.5" y="0.5" width="202" height="611" rx="12.5" fill="url(#paint0_linear_1_591)"/>
<rect x="0.5" y="0.5" width="202" height="611" rx="12.5" stroke="url(#paint1_linear_1_591)"/>
<g filter="url(#filter0_i_1_591)">
<path d="M11.0583 15.0583C11.0583 12.8492 12.8492 11.0583 15.0583 11.0583H56.0583C58.2675 11.0583 60.0583 12.8492 60.0583 15.0583V35.0583C60.0583 37.2675 58.2675 39.0583 56.0583 39.0583H15.0584C12.8492 39.0583 11.0583 37.2675 11.0583 35.0583V15.0583Z" fill="url(#paint2_radial_1_591)" fill-opacity="0.4"/>
<path d="M19.7799 29.0583V21.7432H21.105V27.9475H24.3268V29.0583H19.7799ZM26.9573 29.1691C26.6097 29.1691 26.2965 29.1072 26.0179 28.9833C25.7417 28.8571 25.5226 28.6714 25.3607 28.4261C25.2012 28.1809 25.1214 27.8784 25.1214 27.5189C25.1214 27.2093 25.1786 26.9533 25.2929 26.7509C25.4072 26.5485 25.5631 26.3866 25.7608 26.2652C25.9584 26.1437 26.1811 26.052 26.4287 25.9901C26.6787 25.9258 26.9371 25.8794 27.2038 25.8508C27.5253 25.8175 27.786 25.7877 27.986 25.7615C28.1861 25.733 28.3313 25.6901 28.4218 25.6329C28.5147 25.5734 28.5611 25.4817 28.5611 25.3579V25.3365C28.5611 25.0674 28.4813 24.859 28.3218 24.7114C28.1622 24.5638 27.9325 24.49 27.6324 24.49C27.3157 24.49 27.0645 24.559 26.8788 24.6971C26.6954 24.8352 26.5716 24.9983 26.5073 25.1865L25.3 25.015C25.3952 24.6816 25.5524 24.403 25.7715 24.1792C25.9906 23.953 26.2584 23.7839 26.5751 23.672C26.8919 23.5577 27.2419 23.5005 27.6253 23.5005C27.8896 23.5005 28.1527 23.5315 28.4147 23.5934C28.6766 23.6553 28.9159 23.7577 29.1326 23.9006C29.3493 24.0411 29.5231 24.2328 29.6541 24.4757C29.7874 24.7186 29.8541 25.0222 29.8541 25.3865V29.0583H28.6111V28.3047H28.5682C28.4897 28.4571 28.3789 28.6 28.2361 28.7333C28.0956 28.8643 27.9182 28.9702 27.7039 29.0512C27.4919 29.1298 27.2431 29.1691 26.9573 29.1691ZM27.2931 28.219C27.5526 28.219 27.7777 28.1678 27.9682 28.0654C28.1587 27.9606 28.3051 27.8225 28.4075 27.651C28.5123 27.4796 28.5647 27.2927 28.5647 27.0903V26.4438C28.5242 26.4771 28.4551 26.508 28.3575 26.5366C28.2623 26.5652 28.1551 26.5902 28.036 26.6116C27.917 26.6331 27.7991 26.6521 27.6824 26.6688C27.5657 26.6854 27.4645 26.6997 27.3788 26.7116C27.1859 26.7378 27.0133 26.7807 26.8609 26.8402C26.7085 26.8998 26.5882 26.9831 26.5001 27.0903C26.412 27.195 26.368 27.3308 26.368 27.4975C26.368 27.7356 26.4549 27.9154 26.6287 28.0368C26.8026 28.1582 27.024 28.219 27.2931 28.219ZM31.7202 31.1157C31.544 31.1157 31.3809 31.1014 31.2309 31.0729C31.0833 31.0467 30.9654 31.0157 30.8773 30.98L31.1773 29.9727C31.3654 30.0275 31.5333 30.0537 31.6809 30.0513C31.8286 30.0489 31.9584 30.0025 32.0703 29.912C32.1846 29.8239 32.281 29.6763 32.3596 29.4691L32.4703 29.1726L30.4808 23.572H31.8524L33.1168 27.7153H33.174L34.442 23.572H35.8172L33.6205 29.7227C33.5181 30.0132 33.3823 30.2621 33.2133 30.4692C33.0442 30.6788 32.837 30.8383 32.5918 30.9479C32.3489 31.0598 32.0584 31.1157 31.7202 31.1157ZM38.9129 29.1655C38.3628 29.1655 37.8878 29.0512 37.4877 28.8226C37.0901 28.5916 36.7841 28.2654 36.5698 27.8439C36.3554 27.4201 36.2483 26.9212 36.2483 26.3473C36.2483 25.783 36.3554 25.2877 36.5698 24.8614C36.7864 24.4328 37.0889 24.0994 37.477 23.8613C37.8651 23.6208 38.3212 23.5005 38.845 23.5005C39.1832 23.5005 39.5022 23.5553 39.8023 23.6649C40.1047 23.772 40.3714 23.9387 40.6024 24.1649C40.8357 24.3911 41.0191 24.6793 41.1524 25.0293C41.2858 25.377 41.3525 25.7913 41.3525 26.2723V26.6688H36.8555V25.7972H40.113C40.1107 25.5496 40.0571 25.3293 39.9523 25.1365C39.8475 24.9412 39.7011 24.7876 39.513 24.6757C39.3272 24.5638 39.1105 24.5078 38.8629 24.5078C38.5986 24.5078 38.3664 24.5721 38.1664 24.7007C37.9663 24.8269 37.8104 24.9936 37.6985 25.2007C37.5889 25.4055 37.533 25.6306 37.5306 25.8758V26.6366C37.5306 26.9557 37.5889 27.2296 37.7056 27.4582C37.8223 27.6844 37.9854 27.8582 38.1949 27.9797C38.4045 28.0987 38.6498 28.1582 38.9307 28.1582C39.1189 28.1582 39.2891 28.132 39.4415 28.0797C39.5939 28.0249 39.7261 27.9451 39.838 27.8403C39.9499 27.7356 40.0345 27.6058 40.0916 27.451L41.2989 27.5867C41.2227 27.9058 41.0774 28.1844 40.8631 28.4226C40.6512 28.6583 40.3797 28.8417 40.0487 28.9726C39.7177 29.1012 39.3391 29.1655 38.9129 29.1655ZM42.4051 29.0583V23.572H43.6588V24.4864H43.716C43.816 24.1697 43.9874 23.9256 44.2303 23.7542C44.4756 23.5803 44.7554 23.4934 45.0697 23.4934C45.1411 23.4934 45.2209 23.497 45.309 23.5041C45.3995 23.5089 45.4745 23.5172 45.534 23.5291V24.7185C45.4793 24.6995 45.3924 24.6828 45.2733 24.6685C45.1566 24.6519 45.0435 24.6435 44.934 24.6435C44.6982 24.6435 44.4863 24.6947 44.2982 24.7971C44.1124 24.8971 43.966 25.0364 43.8588 25.215C43.7517 25.3936 43.6981 25.5996 43.6981 25.833V29.0583H42.4051ZM50.6881 25.0222L49.5094 25.1507C49.476 25.0317 49.4177 24.9198 49.3343 24.815C49.2534 24.7102 49.1438 24.6257 49.0057 24.5614C48.8676 24.4971 48.6985 24.4649 48.4985 24.4649C48.2294 24.4649 48.0032 24.5233 47.8199 24.64C47.6389 24.7566 47.5496 24.9079 47.552 25.0936C47.5496 25.2531 47.6079 25.3829 47.727 25.4829C47.8484 25.5829 48.0485 25.6651 48.3271 25.7294L49.2629 25.9294C49.782 26.0413 50.1678 26.2187 50.4202 26.4616C50.675 26.7045 50.8036 27.0224 50.8059 27.4153C50.8036 27.7606 50.7024 28.0654 50.5023 28.3297C50.3047 28.5916 50.0297 28.7964 49.6772 28.9441C49.3248 29.0917 48.92 29.1655 48.4628 29.1655C47.7913 29.1655 47.2508 29.025 46.8412 28.744C46.4316 28.4607 46.1875 28.0666 46.109 27.5617L47.3698 27.4403C47.427 27.6879 47.5484 27.8749 47.7341 28.0011C47.9199 28.1273 48.1616 28.1904 48.4592 28.1904C48.7664 28.1904 49.0129 28.1273 49.1986 28.0011C49.3867 27.8749 49.4808 27.7189 49.4808 27.5332C49.4808 27.376 49.4201 27.2462 49.2986 27.1438C49.1796 27.0414 48.9938 26.9629 48.7414 26.9081L47.8056 26.7116C47.2793 26.6021 46.89 26.4176 46.6376 26.158C46.3852 25.8961 46.2602 25.5651 46.2625 25.165C46.2602 24.8269 46.3518 24.534 46.5376 24.2864C46.7257 24.0363 46.9864 23.8434 47.3198 23.7077C47.6556 23.5696 48.0425 23.5005 48.4807 23.5005C49.1236 23.5005 49.6296 23.6375 49.9987 23.9113C50.3702 24.1852 50.6 24.5554 50.6881 25.0222Z" fill="white"/>
</g>
<path d="M80.1634 21.7432V29.0583H78.8382V21.7432H80.1634ZM84.2396 23.572V24.5721H81.0856V23.572H84.2396ZM81.8643 22.2575H83.1573V27.4082C83.1573 27.582 83.1835 27.7153 83.2359 27.8082C83.2907 27.8987 83.3621 27.9606 83.4502 27.9939C83.5383 28.0273 83.6359 28.0439 83.7431 28.0439C83.8241 28.0439 83.8979 28.038 83.9645 28.0261C84.0336 28.0142 84.086 28.0035 84.1217 27.9939L84.3396 29.0048C84.2705 29.0286 84.1717 29.0548 84.0431 29.0834C83.9169 29.1119 83.7621 29.1286 83.5788 29.1334C83.2549 29.1429 82.9632 29.0941 82.7037 28.9869C82.4441 28.8774 82.2382 28.7083 82.0858 28.4797C81.9357 28.2511 81.8619 27.9654 81.8643 27.6225V22.2575ZM87.6496 29.1655C87.0996 29.1655 86.6245 29.0512 86.2245 28.8226C85.8268 28.5916 85.5208 28.2654 85.3065 27.8439C85.0922 27.4201 84.985 26.9212 84.985 26.3473C84.985 25.783 85.0922 25.2877 85.3065 24.8614C85.5232 24.4328 85.8256 24.0994 86.2138 23.8613C86.6019 23.6208 87.0579 23.5005 87.5818 23.5005C87.9199 23.5005 88.239 23.5553 88.539 23.6649C88.8415 23.772 89.1082 23.9387 89.3391 24.1649C89.5725 24.3911 89.7558 24.6793 89.8892 25.0293C90.0225 25.377 90.0892 25.7913 90.0892 26.2723V26.6688H85.5923V25.7972H88.8498C88.8474 25.5496 88.7938 25.3293 88.6891 25.1365C88.5843 24.9412 88.4378 24.7876 88.2497 24.6757C88.064 24.5638 87.8473 24.5078 87.5996 24.5078C87.3353 24.5078 87.1032 24.5721 86.9031 24.7007C86.7031 24.8269 86.5471 24.9936 86.4352 25.2007C86.3257 25.4055 86.2697 25.6306 86.2673 25.8758V26.6366C86.2673 26.9557 86.3257 27.2296 86.4424 27.4582C86.559 27.6844 86.7222 27.8582 86.9317 27.9797C87.1413 28.0987 87.3865 28.1582 87.6675 28.1582C87.8556 28.1582 88.0259 28.132 88.1783 28.0797C88.3307 28.0249 88.4628 27.9451 88.5748 27.8403C88.6867 27.7356 88.7712 27.6058 88.8284 27.451L90.0356 27.5867C89.9594 27.9058 89.8142 28.1844 89.5999 28.4226C89.3879 28.6583 89.1165 28.8417 88.7855 28.9726C88.4545 29.1012 88.0759 29.1655 87.6496 29.1655ZM91.1419 29.0583V23.572H92.3777V24.5042H92.442C92.5563 24.1899 92.7456 23.9446 93.0099 23.7684C93.2743 23.5898 93.5898 23.5005 93.9565 23.5005C94.328 23.5005 94.6411 23.591 94.8959 23.772C95.153 23.9506 95.334 24.1947 95.4388 24.5042H95.4959C95.6174 24.1994 95.8222 23.9566 96.1103 23.7756C96.4008 23.5922 96.7449 23.5005 97.1426 23.5005C97.6474 23.5005 98.0593 23.6601 98.3784 23.9792C98.6975 24.2983 98.8571 24.7638 98.8571 25.3758V29.0583H97.5605V25.5758C97.5605 25.2353 97.47 24.9864 97.289 24.8293C97.108 24.6697 96.8866 24.59 96.6247 24.59C96.3127 24.59 96.0686 24.6876 95.8924 24.8829C95.7186 25.0757 95.6317 25.327 95.6317 25.6365V29.0583H94.3637V25.5222C94.3637 25.2388 94.2779 25.0126 94.1065 24.8436C93.9374 24.6745 93.716 24.59 93.4421 24.59C93.2564 24.59 93.0873 24.6376 92.9349 24.7328C92.7825 24.8257 92.6611 24.9579 92.5706 25.1293C92.4801 25.2984 92.4349 25.496 92.4349 25.7222V29.0583H91.1419ZM104.464 25.0222L103.285 25.1507C103.252 25.0317 103.193 24.9198 103.11 24.815C103.029 24.7102 102.92 24.6257 102.781 24.5614C102.643 24.4971 102.474 24.4649 102.274 24.4649C102.005 24.4649 101.779 24.5233 101.596 24.64C101.415 24.7566 101.325 24.9079 101.328 25.0936C101.325 25.2531 101.384 25.3829 101.503 25.4829C101.624 25.5829 101.824 25.6651 102.103 25.7294L103.039 25.9294C103.558 26.0413 103.944 26.2187 104.196 26.4616C104.451 26.7045 104.579 27.0224 104.582 27.4153C104.579 27.7606 104.478 28.0654 104.278 28.3297C104.08 28.5916 103.805 28.7964 103.453 28.9441C103.101 29.0917 102.696 29.1655 102.239 29.1655C101.567 29.1655 101.026 29.025 100.617 28.744C100.207 28.4607 99.9633 28.0666 99.8847 27.5617L101.146 27.4403C101.203 27.6879 101.324 27.8749 101.51 28.0011C101.696 28.1273 101.937 28.1904 102.235 28.1904C102.542 28.1904 102.789 28.1273 102.974 28.0011C103.162 27.8749 103.257 27.7189 103.257 27.5332C103.257 27.376 103.196 27.2462 103.074 27.1438C102.955 27.0414 102.77 26.9629 102.517 26.9081L101.581 26.7116C101.055 26.6021 100.666 26.4176 100.413 26.158C100.161 25.8961 100.036 25.5651 100.038 25.165C100.036 24.8269 100.128 24.534 100.313 24.2864C100.501 24.0363 100.762 23.8434 101.096 23.7077C101.431 23.5696 101.818 23.5005 102.256 23.5005C102.899 23.5005 103.405 23.6375 103.774 23.9113C104.146 24.1852 104.376 24.5554 104.464 25.0222Z" fill="#8F8F8F"/>
<g filter="url(#filter1_i_1_591)">
<g clip-path="url(#clip0_1_591)">
<rect x="11.0583" y="55.8223" width="181.05" height="30.175" rx="6.70556" fill="url(#paint3_radial_1_591)"/>
<rect x="21.1167" y="64.2041" width="13.4111" height="13.4111" rx="1.67639" fill="#0080FF"/>
<path d="M24.4695 70.9097L29.4986 68.0061L29.4986 73.8133L24.4695 70.9097Z" fill="white"/>
<path d="M52.6359 69.6055C52.6026 69.2935 52.4621 69.0506 52.2145 68.8768C51.9692 68.703 51.6501 68.6161 51.2572 68.6161C50.981 68.6161 50.7441 68.6577 50.5464 68.7411C50.3488 68.8244 50.1976 68.9375 50.0928 69.0804C49.988 69.2233 49.9344 69.3864 49.9321 69.5698C49.9321 69.7221 49.9666 69.8543 50.0356 69.9662C50.1071 70.0781 50.2035 70.1734 50.325 70.252C50.4464 70.3282 50.5809 70.3925 50.7286 70.4449C50.8762 70.4972 51.025 70.5413 51.1751 70.577L51.8609 70.7485C52.1371 70.8128 52.4026 70.8997 52.6574 71.0092C52.9146 71.1187 53.1443 71.2569 53.3467 71.4235C53.5515 71.5902 53.7135 71.7914 53.8325 72.0272C53.9516 72.2629 54.0111 72.5391 54.0111 72.8559C54.0111 73.2845 53.9016 73.6619 53.6825 73.9881C53.4634 74.312 53.1467 74.5656 52.7324 74.7489C52.3204 74.9299 51.8216 75.0204 51.2358 75.0204C50.6667 75.0204 50.1726 74.9323 49.7535 74.7561C49.3367 74.5799 49.0105 74.3227 48.7748 73.9846C48.5414 73.6464 48.4152 73.2345 48.3962 72.7487H49.6999C49.7189 73.0035 49.7975 73.2154 49.9356 73.3845C50.0737 73.5536 50.2535 73.6798 50.475 73.7631C50.6988 73.8464 50.9488 73.8881 51.2251 73.8881C51.5132 73.8881 51.7656 73.8453 51.9823 73.7595C52.2014 73.6714 52.3728 73.55 52.4966 73.3952C52.6205 73.238 52.6836 73.0547 52.686 72.8451C52.6836 72.6546 52.6276 72.4975 52.5181 72.3737C52.4085 72.2474 52.255 72.1427 52.0573 72.0593C51.862 71.9736 51.6334 71.8974 51.3715 71.8307L50.5393 71.6164C49.9368 71.4616 49.4606 71.2271 49.1105 70.9128C48.7629 70.5961 48.589 70.1758 48.589 69.6519C48.589 69.2209 48.7057 68.8435 48.9391 68.5196C49.1748 68.1958 49.4951 67.9446 49.8999 67.766C50.3047 67.585 50.7631 67.4945 51.2751 67.4945C51.7942 67.4945 52.249 67.585 52.6395 67.766C53.0324 67.9446 53.3408 68.1934 53.5646 68.5125C53.7885 68.8292 53.904 69.1935 53.9111 69.6055H52.6359ZM57.4873 75.0168C56.9396 75.0168 56.4693 74.8966 56.0764 74.6561C55.6858 74.4156 55.3846 74.0834 55.1727 73.6595C54.9631 73.2333 54.8584 72.7427 54.8584 72.1879C54.8584 71.6307 54.9655 71.139 55.1798 70.7127C55.3941 70.2841 55.6966 69.9507 56.0871 69.7126C56.48 69.4721 56.9443 69.3519 57.4801 69.3519C57.9254 69.3519 58.3195 69.434 58.6624 69.5983C59.0077 69.7602 59.2827 69.99 59.4875 70.2877C59.6923 70.583 59.809 70.9282 59.8375 71.3235H58.6017C58.5517 71.0592 58.4326 70.8389 58.2445 70.6627C58.0587 70.4841 57.8099 70.3948 57.498 70.3948C57.2337 70.3948 57.0015 70.4663 56.8015 70.6092C56.6014 70.7497 56.4455 70.9521 56.3335 71.2164C56.224 71.4807 56.1692 71.7974 56.1692 72.1665C56.1692 72.5403 56.224 72.8618 56.3335 73.1309C56.4431 73.3976 56.5967 73.6036 56.7943 73.7488C56.9943 73.8917 57.2289 73.9631 57.498 73.9631C57.6885 73.9631 57.8587 73.9274 58.0087 73.856C58.1611 73.7822 58.2885 73.6762 58.3909 73.5381C58.4933 73.4 58.5636 73.2321 58.6017 73.0344H59.8375C59.8066 73.4226 59.6923 73.7667 59.4946 74.0667C59.297 74.3644 59.0279 74.5977 58.6874 74.7668C58.3469 74.9335 57.9468 75.0168 57.4873 75.0168ZM63.2869 75.0168C62.7368 75.0168 62.2618 74.9025 61.8617 74.6739C61.464 74.4429 61.1581 74.1167 60.9437 73.6952C60.7294 73.2714 60.6223 72.7725 60.6223 72.1986C60.6223 71.6343 60.7294 71.139 60.9437 70.7127C61.1604 70.2841 61.4629 69.9507 61.851 69.7126C62.2391 69.4721 62.6951 69.3519 63.219 69.3519C63.5572 69.3519 63.8762 69.4066 64.1763 69.5162C64.4787 69.6233 64.7454 69.79 64.9764 70.0162C65.2097 70.2424 65.3931 70.5306 65.5264 70.8806C65.6598 71.2283 65.7265 71.6426 65.7265 72.1236V72.5201H61.2295V71.6486H64.487C64.4846 71.4009 64.4311 71.1807 64.3263 70.9878C64.2215 70.7925 64.0751 70.6389 63.887 70.527C63.7012 70.4151 63.4845 70.3591 63.2369 70.3591C62.9726 70.3591 62.7404 70.4234 62.5404 70.552C62.3403 70.6782 62.1844 70.8449 62.0725 71.0521C61.9629 71.2569 61.907 71.4819 61.9046 71.7271V72.488C61.9046 72.807 61.9629 73.0809 62.0796 73.3095C62.1963 73.5357 62.3594 73.7095 62.5689 73.831C62.7785 73.95 63.0238 74.0096 63.3047 74.0096C63.4929 74.0096 63.6631 73.9834 63.8155 73.931C63.9679 73.8762 64.1001 73.7964 64.212 73.6917C64.3239 73.5869 64.4084 73.4571 64.4656 73.3023L65.6729 73.4381C65.5967 73.7572 65.4514 74.0358 65.2371 74.2739C65.0252 74.5096 64.7537 74.693 64.4227 74.8239C64.0917 74.9525 63.7131 75.0168 63.2869 75.0168ZM68.0721 71.695V74.9097H66.7791V69.4233H68.015V70.3556H68.0793C68.2055 70.0484 68.4067 69.8043 68.6829 69.6233C68.9615 69.4424 69.3056 69.3519 69.7152 69.3519C70.0938 69.3519 70.4236 69.4328 70.7046 69.5948C70.9879 69.7567 71.207 69.9912 71.3618 70.2984C71.5189 70.6056 71.5963 70.9783 71.594 71.4164V74.9097H70.3009V71.6164C70.3009 71.2497 70.2057 70.9628 70.0152 70.7556C69.8271 70.5484 69.5663 70.4449 69.233 70.4449C69.0067 70.4449 68.8055 70.4949 68.6293 70.5949C68.4555 70.6925 68.3186 70.8342 68.2186 71.0199C68.1209 71.2057 68.0721 71.4307 68.0721 71.695ZM75.296 75.0168C74.7459 75.0168 74.2709 74.9025 73.8708 74.6739C73.4732 74.4429 73.1672 74.1167 72.9529 73.6952C72.7386 73.2714 72.6314 72.7725 72.6314 72.1986C72.6314 71.6343 72.7386 71.139 72.9529 70.7127C73.1696 70.2841 73.472 69.9507 73.8601 69.7126C74.2483 69.4721 74.7043 69.3519 75.2281 69.3519C75.5663 69.3519 75.8854 69.4066 76.1854 69.5162C76.4878 69.6233 76.7545 69.79 76.9855 70.0162C77.2189 70.2424 77.4022 70.5306 77.5356 70.8806C77.6689 71.2283 77.7356 71.6426 77.7356 72.1236V72.5201H73.2386V71.6486H76.4962C76.4938 71.4009 76.4402 71.1807 76.3354 70.9878C76.2306 70.7925 76.0842 70.6389 75.8961 70.527C75.7103 70.4151 75.4937 70.3591 75.246 70.3591C74.9817 70.3591 74.7495 70.4234 74.5495 70.552C74.3495 70.6782 74.1935 70.8449 74.0816 71.0521C73.972 71.2569 73.9161 71.4819 73.9137 71.7271V72.488C73.9137 72.807 73.972 73.0809 74.0887 73.3095C74.2054 73.5357 74.3685 73.7095 74.5781 73.831C74.7876 73.95 75.0329 74.0096 75.3139 74.0096C75.502 74.0096 75.6722 73.9834 75.8246 73.931C75.977 73.8762 76.1092 73.7964 76.2211 73.6917C76.333 73.5869 76.4176 73.4571 76.4747 73.3023L77.682 73.4381C77.6058 73.7572 77.4606 74.0358 77.2462 74.2739C77.0343 74.5096 76.7629 74.693 76.4319 74.8239C76.1009 74.9525 75.7223 75.0168 75.296 75.0168Z" fill="white"/>
<path d="M171.992 69.2332L175.344 72.5859L178.697 69.2332" stroke="#CDCDCD" stroke-width="0.932947" stroke-linecap="round" stroke-linejoin="round"/>
<g filter="url(#filter2_f_1_591)">
<ellipse cx="101.5" cy="71.3687" rx="41.5" ry="42" fill="#90D2FF" fill-opacity="0.2"/>
</g>
</g>
</g>
<line x1="11.0583" y1="95.6557" x2="192.108" y2="95.6557" stroke="#303030" stroke-width="0.8"/>
<g filter="url(#filter3_i_1_591)">
<g clip-path="url(#clip1_1_591)">
<rect x="11.0583" y="106.114" width="181.05" height="93.8778" rx="6.70556" fill="url(#paint4_radial_1_591)"/>
<rect x="21.1167" y="114.496" width="160.933" height="20.1167" rx="4" fill="url(#paint5_linear_1_591)"/>
<rect x="28.2414" y="118.268" width="12.5729" height="12.5729" rx="1.25729" stroke="white" stroke-width="0.838194"/>
<path d="M55.4481 128.554V121.239H58.0556C58.6223 121.239 59.0926 121.337 59.4665 121.532C59.8427 121.727 60.1237 121.998 60.3094 122.343C60.4952 122.686 60.588 123.082 60.588 123.532C60.588 123.98 60.494 124.374 60.3059 124.715C60.1201 125.053 59.8391 125.316 59.4629 125.504C59.089 125.692 58.6188 125.786 58.052 125.786H56.0768V124.836H57.952C58.3092 124.836 58.5997 124.785 58.8235 124.683C59.0498 124.58 59.2152 124.431 59.32 124.236C59.4248 124.041 59.4772 123.806 59.4772 123.532C59.4772 123.256 59.4236 123.017 59.3165 122.814C59.2117 122.612 59.0462 122.457 58.82 122.35C58.5961 122.241 58.302 122.186 57.9377 122.186H56.5518V128.554H55.4481ZM59.0593 125.254L60.8666 128.554H59.6093L57.8377 125.254H59.0593ZM64.0999 128.665C63.5594 128.665 63.0938 128.55 62.7033 128.319C62.3152 128.085 62.0151 127.758 61.8032 127.336C61.5936 126.913 61.4889 126.416 61.4889 125.847C61.4889 125.285 61.5936 124.79 61.8032 124.361C62.0151 123.932 62.3104 123.598 62.689 123.357C63.07 123.117 63.5153 122.997 64.0249 122.997C64.3344 122.997 64.6345 123.048 64.925 123.15C65.2155 123.253 65.4762 123.413 65.7072 123.632C65.9382 123.852 66.1204 124.136 66.2537 124.486C66.3871 124.834 66.4537 125.256 66.4537 125.754V126.133H62.0925V125.333H65.4072C65.4072 125.052 65.35 124.803 65.2357 124.586C65.1214 124.367 64.9607 124.194 64.7535 124.068C64.5488 123.942 64.3082 123.879 64.032 123.879C63.732 123.879 63.4701 123.953 63.2462 124.1C63.0248 124.246 62.8533 124.436 62.7319 124.672C62.6128 124.905 62.5533 125.159 62.5533 125.433V126.058C62.5533 126.424 62.6176 126.736 62.7462 126.994C62.8771 127.251 63.0593 127.447 63.2927 127.583C63.526 127.716 63.7987 127.783 64.1106 127.783C64.313 127.783 64.4976 127.754 64.6642 127.697C64.8309 127.638 64.975 127.55 65.0964 127.433C65.2179 127.316 65.3107 127.172 65.375 127.001L66.3859 127.183C66.3049 127.481 66.1597 127.741 65.9501 127.965C65.7429 128.187 65.4822 128.359 65.1679 128.483C64.8559 128.604 64.4999 128.665 64.0999 128.665ZM69.9085 128.665C69.3774 128.665 68.9202 128.545 68.5369 128.304C68.1559 128.062 67.863 127.727 67.6582 127.301C67.4534 126.874 67.351 126.386 67.351 125.836C67.351 125.279 67.4558 124.787 67.6653 124.361C67.8749 123.932 68.1702 123.598 68.5511 123.357C68.9321 123.117 69.381 122.997 69.8977 122.997C70.3145 122.997 70.6859 123.074 71.0122 123.229C71.3384 123.381 71.6015 123.596 71.8015 123.872C72.0039 124.148 72.1242 124.471 72.1623 124.84H71.1229C71.0657 124.583 70.9348 124.361 70.73 124.175C70.5276 123.99 70.2561 123.897 69.9156 123.897C69.6179 123.897 69.3572 123.975 69.1334 124.132C68.9119 124.287 68.7393 124.509 68.6154 124.797C68.4916 125.083 68.4297 125.421 68.4297 125.811C68.4297 126.211 68.4904 126.557 68.6119 126.847C68.7333 127.138 68.9048 127.363 69.1262 127.522C69.3501 127.682 69.6132 127.761 69.9156 127.761C70.118 127.761 70.3014 127.725 70.4657 127.651C70.6323 127.575 70.7716 127.466 70.8836 127.326C70.9979 127.185 71.0776 127.016 71.1229 126.819H72.1623C72.1242 127.173 72.0087 127.49 71.8158 127.769C71.6229 128.047 71.3646 128.266 71.0407 128.426C70.7193 128.585 70.3418 128.665 69.9085 128.665ZM75.8242 123.068V123.925H72.8274V123.068H75.8242ZM73.6311 121.754H74.699V126.944C74.699 127.151 74.73 127.307 74.7919 127.411C74.8538 127.514 74.9336 127.584 75.0312 127.622C75.1312 127.658 75.2396 127.676 75.3563 127.676C75.442 127.676 75.517 127.67 75.5813 127.658C75.6456 127.646 75.6956 127.636 75.7313 127.629L75.9242 128.512C75.8623 128.535 75.7742 128.559 75.6599 128.583C75.5456 128.609 75.4027 128.623 75.2312 128.626C74.9503 128.631 74.6883 128.581 74.4454 128.476C74.2025 128.371 74.0061 128.209 73.8561 127.99C73.7061 127.771 73.6311 127.496 73.6311 127.165V121.754ZM78.5609 128.676C78.2133 128.676 77.899 128.612 77.618 128.483C77.337 128.352 77.1143 128.163 76.95 127.915C76.7881 127.667 76.7071 127.364 76.7071 127.004C76.7071 126.695 76.7667 126.44 76.8857 126.24C77.0048 126.04 77.1655 125.882 77.3679 125.765C77.5703 125.648 77.7966 125.56 78.0466 125.501C78.2966 125.441 78.5514 125.396 78.811 125.365C79.1396 125.327 79.4063 125.296 79.6111 125.272C79.8158 125.246 79.9647 125.204 80.0575 125.147C80.1504 125.09 80.1968 124.997 80.1968 124.868V124.843C80.1968 124.531 80.1087 124.29 79.9325 124.118C79.7587 123.947 79.4991 123.861 79.1539 123.861C78.7943 123.861 78.5109 123.941 78.3038 124.1C78.099 124.258 77.9573 124.433 77.8787 124.625L76.875 124.397C76.9941 124.063 77.1679 123.794 77.3965 123.59C77.6275 123.382 77.893 123.232 78.193 123.14C78.4931 123.044 78.8086 122.997 79.1396 122.997C79.3586 122.997 79.5908 123.023 79.8361 123.075C80.0837 123.125 80.3147 123.218 80.529 123.354C80.7457 123.49 80.9231 123.684 81.0612 123.936C81.1993 124.186 81.2684 124.511 81.2684 124.911V128.554H80.2254V127.804H80.1826C80.1135 127.942 80.0099 128.078 79.8718 128.212C79.7337 128.345 79.5563 128.456 79.3396 128.544C79.1229 128.632 78.8634 128.676 78.5609 128.676ZM78.7931 127.819C79.0884 127.819 79.3408 127.76 79.5503 127.644C79.7623 127.527 79.923 127.375 80.0325 127.186C80.1445 126.996 80.2004 126.792 80.2004 126.576V125.868C80.1623 125.907 80.0885 125.942 79.979 125.976C79.8718 126.007 79.7492 126.034 79.6111 126.058C79.4729 126.079 79.3384 126.099 79.2074 126.118C79.0765 126.135 78.9669 126.149 78.8788 126.161C78.6717 126.187 78.4824 126.232 78.3109 126.293C78.1418 126.355 78.0061 126.445 77.9037 126.561C77.8037 126.676 77.7537 126.828 77.7537 127.019C77.7537 127.283 77.8513 127.483 78.0466 127.619C78.2419 127.752 78.4907 127.819 78.7931 127.819ZM83.7176 125.297V128.554H82.6496V123.068H83.6748V123.961H83.7426C83.8688 123.671 84.0665 123.437 84.3356 123.261C84.607 123.085 84.9487 122.997 85.3607 122.997C85.7345 122.997 86.062 123.075 86.3429 123.232C86.6239 123.387 86.8418 123.618 86.9966 123.925C87.1514 124.233 87.2288 124.612 87.2288 125.065V128.554H86.1608V125.193C86.1608 124.796 86.0572 124.485 85.85 124.261C85.6429 124.035 85.3583 123.922 84.9964 123.922C84.7487 123.922 84.5284 123.975 84.3356 124.082C84.1451 124.19 83.9939 124.347 83.8819 124.554C83.7724 124.759 83.7176 125.006 83.7176 125.297ZM90.9201 130.726C90.4843 130.726 90.1093 130.669 89.795 130.555C89.483 130.44 89.2282 130.289 89.0306 130.101C88.833 129.913 88.6853 129.707 88.5877 129.483L89.5057 129.105C89.5699 129.209 89.6557 129.32 89.7628 129.437C89.8724 129.556 90.02 129.657 90.2057 129.74C90.3939 129.824 90.6356 129.865 90.9308 129.865C91.3356 129.865 91.6702 129.766 91.9345 129.569C92.1988 129.374 92.331 129.062 92.331 128.633V127.554H92.2631C92.1988 127.671 92.106 127.801 91.9845 127.944C91.8655 128.087 91.7012 128.21 91.4916 128.315C91.2821 128.42 91.0094 128.472 90.6737 128.472C90.2403 128.472 89.8497 128.371 89.5021 128.169C89.1568 127.964 88.883 127.663 88.6806 127.265C88.4805 126.865 88.3805 126.373 88.3805 125.79C88.3805 125.206 88.4793 124.706 88.677 124.29C88.877 123.873 89.1509 123.554 89.4985 123.332C89.8462 123.109 90.2403 122.997 90.6808 122.997C91.0213 122.997 91.2963 123.054 91.5059 123.168C91.7154 123.28 91.8786 123.411 91.9952 123.561C92.1143 123.711 92.206 123.843 92.2703 123.957H92.3488V123.068H93.3954V128.676C93.3954 129.147 93.2859 129.534 93.0668 129.837C92.8477 130.139 92.5513 130.363 92.1774 130.508C91.8059 130.654 91.3868 130.726 90.9201 130.726ZM90.9094 127.586C91.2166 127.586 91.4761 127.515 91.6881 127.372C91.9024 127.227 92.0643 127.02 92.1738 126.751C92.2857 126.479 92.3417 126.154 92.3417 125.776C92.3417 125.406 92.2869 125.081 92.1774 124.8C92.0679 124.519 91.9071 124.3 91.6952 124.143C91.4833 123.984 91.2213 123.904 90.9094 123.904C90.5879 123.904 90.32 123.987 90.1057 124.154C89.8914 124.318 89.7295 124.542 89.62 124.825C89.5128 125.109 89.4592 125.426 89.4592 125.776C89.4592 126.135 89.514 126.451 89.6235 126.722C89.7331 126.994 89.895 127.205 90.1093 127.358C90.326 127.51 90.5927 127.586 90.9094 127.586ZM95.8545 121.239V128.554H94.7865V121.239H95.8545ZM99.6146 128.665C99.074 128.665 98.6085 128.55 98.218 128.319C97.8298 128.085 97.5298 127.758 97.3179 127.336C97.1083 126.913 97.0035 126.416 97.0035 125.847C97.0035 125.285 97.1083 124.79 97.3179 124.361C97.5298 123.932 97.8251 123.598 98.2037 123.357C98.5847 123.117 99.03 122.997 99.5396 122.997C99.8491 122.997 100.149 123.048 100.44 123.15C100.73 123.253 100.991 123.413 101.222 123.632C101.453 123.852 101.635 124.136 101.768 124.486C101.902 124.834 101.968 125.256 101.968 125.754V126.133H97.6072V125.333H100.922C100.922 125.052 100.865 124.803 100.75 124.586C100.636 124.367 100.475 124.194 100.268 124.068C100.063 123.942 99.8229 123.879 99.5467 123.879C99.2467 123.879 98.9847 123.953 98.7609 124.1C98.5394 124.246 98.368 124.436 98.2465 124.672C98.1275 124.905 98.068 125.159 98.068 125.433V126.058C98.068 126.424 98.1322 126.736 98.2608 126.994C98.3918 127.251 98.574 127.447 98.8073 127.583C99.0407 127.716 99.3133 127.783 99.6253 127.783C99.8277 127.783 100.012 127.754 100.179 127.697C100.346 127.638 100.49 127.55 100.611 127.433C100.733 127.316 100.825 127.172 100.89 127.001L101.901 127.183C101.82 127.481 101.674 127.741 101.465 127.965C101.258 128.187 100.997 128.359 100.683 128.483C100.371 128.604 100.015 128.665 99.6146 128.665Z" fill="white"/>
<rect x="27.8223" y="146.347" width="13.4111" height="13.4111" rx="1.67639" fill="#3B3B3B"/>
<path d="M31.175 150.957C31.175 150.567 31.175 150.371 31.2389 150.217C31.3239 150.012 31.4871 149.849 31.6925 149.764C31.8465 149.7 32.0418 149.7 32.4323 149.7H36.6233C37.0139 149.7 37.2091 149.7 37.3632 149.764C37.5686 149.849 37.7317 150.012 37.8168 150.217C37.8806 150.371 37.8806 150.567 37.8806 150.957M33.2705 156.406H35.7851M34.5278 149.7V156.406" stroke="white" stroke-width="0.838194" stroke-linecap="round" stroke-linejoin="round"/>
<path d="M60.3309 149.738H61.2167V154.581C61.2167 155.081 61.0988 155.528 60.8631 155.921C60.6297 156.311 60.2999 156.62 59.8737 156.846C59.4474 157.07 58.9474 157.182 58.3735 157.182C57.7996 157.182 57.2995 157.07 56.8733 156.846C56.4471 156.62 56.1161 156.311 55.8803 155.921C55.647 155.528 55.5303 155.081 55.5303 154.581V149.738H56.4161V154.51C56.4161 154.867 56.4947 155.185 56.6519 155.464C56.809 155.74 57.0328 155.958 57.3234 156.117C57.6163 156.274 57.9663 156.353 58.3735 156.353C58.7807 156.353 59.1307 156.274 59.4236 156.117C59.7165 155.958 59.9403 155.74 60.0951 155.464C60.2523 155.185 60.3309 154.867 60.3309 154.51V149.738ZM66.7163 152.795L65.959 153.01C65.9114 152.883 65.8412 152.761 65.7483 152.642C65.6578 152.52 65.534 152.42 65.3768 152.342C65.2197 152.263 65.0185 152.224 64.7732 152.224C64.4374 152.224 64.1576 152.301 63.9338 152.456C63.7123 152.608 63.6016 152.802 63.6016 153.038C63.6016 153.248 63.6778 153.413 63.8302 153.535C63.9826 153.656 64.2207 153.757 64.5446 153.838L65.359 154.038C65.8495 154.157 66.215 154.34 66.4555 154.585C66.696 154.828 66.8163 155.141 66.8163 155.524C66.8163 155.839 66.7258 156.12 66.5448 156.367C66.3662 156.615 66.1162 156.81 65.7947 156.953C65.4733 157.096 65.0994 157.167 64.6732 157.167C64.1136 157.167 63.6504 157.046 63.2837 156.803C62.917 156.56 62.6848 156.205 62.5872 155.739L63.3873 155.539C63.4635 155.834 63.6076 156.055 63.8195 156.203C64.0338 156.351 64.3136 156.424 64.6589 156.424C65.0518 156.424 65.3637 156.341 65.5947 156.174C65.8281 156.005 65.9448 155.803 65.9448 155.567C65.9448 155.377 65.8781 155.217 65.7447 155.088C65.6114 154.957 65.4066 154.86 65.1304 154.796L64.216 154.581C63.7135 154.462 63.3444 154.278 63.1087 154.028C62.8753 153.775 62.7587 153.46 62.7587 153.081C62.7587 152.772 62.8456 152.498 63.0194 152.26C63.1956 152.021 63.4349 151.835 63.7373 151.699C64.0421 151.563 64.3874 151.495 64.7732 151.495C65.3161 151.495 65.7423 151.614 66.0519 151.852C66.3638 152.09 66.5853 152.405 66.7163 152.795ZM70.3442 157.167C69.8156 157.167 69.3596 157.051 68.9762 156.817C68.5952 156.581 68.3011 156.253 68.094 155.831C67.8892 155.408 67.7868 154.915 67.7868 154.353C67.7868 153.791 67.8892 153.295 68.094 152.867C68.3011 152.436 68.5892 152.1 68.9583 151.86C69.3298 151.617 69.7632 151.495 70.2585 151.495C70.5442 151.495 70.8264 151.543 71.105 151.638C71.3836 151.733 71.6372 151.888 71.8658 152.102C72.0944 152.314 72.2766 152.595 72.4123 152.945C72.548 153.295 72.6159 153.726 72.6159 154.238V154.596H68.3868V153.867H71.7587C71.7587 153.557 71.6968 153.281 71.5729 153.038C71.4515 152.795 71.2777 152.604 71.0514 152.463C70.8276 152.323 70.5633 152.252 70.2585 152.252C69.9227 152.252 69.6322 152.336 69.387 152.502C69.1441 152.667 68.9571 152.881 68.8262 153.145C68.6952 153.41 68.6297 153.693 68.6297 153.995V154.481C68.6297 154.896 68.7012 155.247 68.844 155.535C68.9893 155.821 69.1905 156.039 69.4477 156.189C69.7049 156.336 70.0037 156.41 70.3442 156.41C70.5657 156.41 70.7657 156.379 70.9443 156.317C71.1253 156.253 71.2812 156.158 71.4122 156.031C71.5432 155.903 71.6444 155.743 71.7158 155.553L72.5302 155.781C72.4445 156.058 72.3004 156.301 72.098 156.51C71.8956 156.717 71.6456 156.879 71.3479 156.996C71.0503 157.11 70.7157 157.167 70.3442 157.167ZM73.857 157.053V151.567H74.6714V152.395H74.7285C74.8285 152.124 75.0095 151.904 75.2714 151.734C75.5334 151.565 75.8286 151.481 76.1572 151.481C76.2192 151.481 76.2965 151.482 76.3894 151.484C76.4823 151.487 76.5525 151.49 76.6002 151.495V152.352C76.5716 152.345 76.5061 152.335 76.4037 152.32C76.3037 152.304 76.1977 152.295 76.0858 152.295C75.8191 152.295 75.581 152.351 75.3714 152.463C75.1643 152.573 75 152.725 74.8785 152.92C74.7595 153.113 74.6999 153.333 74.6999 153.581V157.053H73.857ZM81.3459 149.738V157.053H80.4601V149.738H81.3459ZM83.8094 153.753V157.053H82.9665V151.567H83.7809V152.424H83.8523C83.9809 152.145 84.1762 151.921 84.4381 151.752C84.7 151.581 85.0382 151.495 85.4525 151.495C85.824 151.495 86.149 151.571 86.4276 151.724C86.7062 151.874 86.9229 152.102 87.0777 152.41C87.2325 152.714 87.3099 153.1 87.3099 153.567V157.053H86.4669V153.624C86.4669 153.193 86.355 152.857 86.1311 152.617C85.9073 152.374 85.6001 152.252 85.2096 152.252C84.9405 152.252 84.7 152.311 84.4881 152.427C84.2785 152.544 84.1131 152.714 83.9916 152.938C83.8702 153.162 83.8094 153.434 83.8094 153.753ZM91.195 151.567V152.281H88.3518V151.567H91.195ZM89.1805 150.252H90.0234V155.481C90.0234 155.719 90.0579 155.898 90.127 156.017C90.1984 156.134 90.2889 156.212 90.3985 156.253C90.5104 156.291 90.6282 156.31 90.7521 156.31C90.8449 156.31 90.9211 156.305 90.9807 156.296C91.0402 156.284 91.0878 156.274 91.1235 156.267L91.295 157.024C91.2378 157.046 91.1581 157.067 91.0557 157.089C90.9533 157.113 90.8235 157.124 90.6663 157.124C90.4282 157.124 90.1949 157.073 89.9663 156.971C89.74 156.868 89.5519 156.712 89.4019 156.503C89.2543 156.293 89.1805 156.029 89.1805 155.71V150.252ZM94.6631 157.167C94.1344 157.167 93.6784 157.051 93.2951 156.817C92.9141 156.581 92.62 156.253 92.4128 155.831C92.208 155.408 92.1056 154.915 92.1056 154.353C92.1056 153.791 92.208 153.295 92.4128 152.867C92.62 152.436 92.9081 152.1 93.2772 151.86C93.6487 151.617 94.0821 151.495 94.5774 151.495C94.8631 151.495 95.1453 151.543 95.4239 151.638C95.7025 151.733 95.9561 151.888 96.1847 152.102C96.4133 152.314 96.5955 152.595 96.7312 152.945C96.8669 153.295 96.9348 153.726 96.9348 154.238V154.596H92.7057V153.867H96.0775C96.0775 153.557 96.0156 153.281 95.8918 153.038C95.7704 152.795 95.5965 152.604 95.3703 152.463C95.1465 152.323 94.8822 152.252 94.5774 152.252C94.2416 152.252 93.9511 152.336 93.7058 152.502C93.4629 152.667 93.276 152.881 93.145 153.145C93.0141 153.41 92.9486 153.693 92.9486 153.995V154.481C92.9486 154.896 93.02 155.247 93.1629 155.535C93.3082 155.821 93.5094 156.039 93.7665 156.189C94.0237 156.336 94.3226 156.41 94.6631 156.41C94.8845 156.41 95.0846 156.379 95.2632 156.317C95.4441 156.253 95.6001 156.158 95.7311 156.031C95.862 155.903 95.9632 155.743 96.0347 155.553L96.8491 155.781C96.7633 156.058 96.6193 156.301 96.4169 156.51C96.2145 156.717 95.9644 156.879 95.6668 156.996C95.3691 157.11 95.0346 157.167 94.6631 157.167ZM98.1758 157.053V151.567H98.9902V152.395H99.0474C99.1474 152.124 99.3284 151.904 99.5903 151.734C99.8522 151.565 100.147 151.481 100.476 151.481C100.538 151.481 100.615 151.482 100.708 151.484C100.801 151.487 100.871 151.49 100.919 151.495V152.352C100.89 152.345 100.825 152.335 100.723 152.32C100.623 152.304 100.517 152.295 100.405 152.295C100.138 152.295 99.8998 152.351 99.6903 152.463C99.4831 152.573 99.3188 152.725 99.1974 152.92C99.0783 153.113 99.0188 153.333 99.0188 153.581V157.053H98.1758ZM104.664 151.567V152.281H101.706V151.567H104.664ZM102.592 157.053V150.809C102.592 150.495 102.666 150.233 102.814 150.024C102.961 149.814 103.153 149.657 103.389 149.552C103.625 149.447 103.873 149.395 104.135 149.395C104.342 149.395 104.512 149.412 104.643 149.445C104.773 149.478 104.871 149.509 104.935 149.538L104.693 150.266C104.65 150.252 104.59 150.234 104.514 150.213C104.44 150.191 104.342 150.181 104.221 150.181C103.942 150.181 103.741 150.251 103.617 150.391C103.496 150.532 103.435 150.738 103.435 151.009V157.053H102.592ZM107.261 157.182C106.914 157.182 106.598 157.116 106.315 156.985C106.032 156.852 105.806 156.66 105.64 156.41C105.473 156.158 105.39 155.853 105.39 155.496C105.39 155.181 105.452 154.927 105.575 154.731C105.699 154.534 105.865 154.379 106.072 154.267C106.279 154.155 106.508 154.072 106.758 154.017C107.01 153.96 107.264 153.915 107.519 153.881C107.852 153.838 108.122 153.806 108.329 153.785C108.539 153.761 108.691 153.722 108.787 153.667C108.884 153.612 108.933 153.517 108.933 153.381V153.353C108.933 153 108.837 152.726 108.644 152.531C108.453 152.336 108.164 152.238 107.776 152.238C107.373 152.238 107.058 152.326 106.829 152.502C106.601 152.679 106.44 152.867 106.347 153.067L105.547 152.781C105.69 152.448 105.88 152.188 106.118 152.002C106.359 151.814 106.621 151.683 106.904 151.609C107.19 151.533 107.471 151.495 107.747 151.495C107.923 151.495 108.126 151.517 108.354 151.559C108.585 151.6 108.808 151.684 109.022 151.813C109.239 151.942 109.419 152.136 109.562 152.395C109.705 152.655 109.776 153.002 109.776 153.438V157.053H108.933V156.31H108.89C108.833 156.429 108.738 156.556 108.604 156.692C108.471 156.828 108.294 156.943 108.072 157.039C107.851 157.134 107.58 157.182 107.261 157.182ZM107.39 156.424C107.723 156.424 108.004 156.359 108.233 156.228C108.464 156.097 108.638 155.928 108.754 155.721C108.874 155.514 108.933 155.296 108.933 155.067V154.296C108.897 154.338 108.819 154.378 108.697 154.413C108.578 154.447 108.44 154.476 108.283 154.503C108.128 154.526 107.977 154.548 107.829 154.567C107.684 154.584 107.566 154.598 107.476 154.61C107.257 154.638 107.052 154.685 106.861 154.749C106.673 154.811 106.521 154.905 106.404 155.031C106.29 155.155 106.233 155.324 106.233 155.539C106.233 155.831 106.341 156.053 106.558 156.203C106.777 156.351 107.054 156.424 107.39 156.424ZM113.502 157.167C112.988 157.167 112.545 157.046 112.173 156.803C111.802 156.56 111.516 156.225 111.316 155.799C111.116 155.373 111.016 154.886 111.016 154.338C111.016 153.781 111.119 153.289 111.323 152.863C111.53 152.435 111.819 152.1 112.188 151.86C112.559 151.617 112.993 151.495 113.488 151.495C113.874 151.495 114.221 151.567 114.531 151.709C114.84 151.852 115.094 152.052 115.292 152.31C115.489 152.567 115.612 152.867 115.66 153.21H114.817C114.752 152.96 114.609 152.738 114.388 152.545C114.169 152.35 113.874 152.252 113.502 152.252C113.174 152.252 112.885 152.338 112.638 152.51C112.393 152.679 112.201 152.918 112.063 153.228C111.927 153.535 111.859 153.895 111.859 154.31C111.859 154.734 111.926 155.103 112.059 155.417C112.195 155.731 112.385 155.975 112.631 156.149C112.878 156.323 113.169 156.41 113.502 156.41C113.721 156.41 113.92 156.372 114.099 156.296C114.277 156.22 114.428 156.11 114.552 155.967C114.676 155.824 114.764 155.653 114.817 155.453H115.66C115.612 155.777 115.494 156.068 115.306 156.328C115.12 156.585 114.874 156.79 114.567 156.942C114.262 157.092 113.907 157.167 113.502 157.167ZM119.151 157.167C118.622 157.167 118.166 157.051 117.783 156.817C117.402 156.581 117.108 156.253 116.901 155.831C116.696 155.408 116.593 154.915 116.593 154.353C116.593 153.791 116.696 153.295 116.901 152.867C117.108 152.436 117.396 152.1 117.765 151.86C118.136 151.617 118.57 151.495 119.065 151.495C119.351 151.495 119.633 151.543 119.912 151.638C120.19 151.733 120.444 151.888 120.672 152.102C120.901 152.314 121.083 152.595 121.219 152.945C121.355 153.295 121.423 153.726 121.423 154.238V154.596H117.194V153.867H120.565C120.565 153.557 120.503 153.281 120.38 153.038C120.258 152.795 120.084 152.604 119.858 152.463C119.634 152.323 119.37 152.252 119.065 152.252C118.729 152.252 118.439 152.336 118.194 152.502C117.951 152.667 117.764 152.881 117.633 153.145C117.502 153.41 117.436 153.693 117.436 153.995V154.481C117.436 154.896 117.508 155.247 117.651 155.535C117.796 155.821 117.997 156.039 118.254 156.189C118.512 156.336 118.81 156.41 119.151 156.41C119.372 156.41 119.572 156.379 119.751 156.317C119.932 156.253 120.088 156.158 120.219 156.031C120.35 155.903 120.451 155.743 120.522 155.553L121.337 155.781C121.251 156.058 121.107 156.301 120.905 156.51C120.702 156.717 120.452 156.879 120.155 156.996C119.857 157.11 119.522 157.167 119.151 157.167Z" fill="white"/>
<rect x="27.8223" y="174.846" width="13.4111" height="13.4111" rx="1.67639" fill="#3B3B3B"/>
<g clip-path="url(#clip2_1_591)">
<path d="M31.2891 185.21L34.0537 182.445C34.2196 182.279 34.3026 182.196 34.3983 182.165C34.4825 182.138 34.5732 182.138 34.6573 182.165C34.753 182.196 34.836 182.279 35.002 182.445L37.7481 185.191M35.366 182.809L36.5683 181.607C36.7342 181.441 36.8172 181.358 36.9129 181.327C36.9971 181.299 37.0877 181.299 37.1719 181.327C37.2676 181.358 37.3506 181.441 37.5166 181.607L38.7188 182.809M33.6896 180.294C33.6896 180.757 33.3144 181.133 32.8514 181.133C32.3885 181.133 32.0132 180.757 32.0132 180.294C32.0132 179.831 32.3885 179.456 32.8514 179.456C33.3144 179.456 33.6896 179.831 33.6896 180.294ZM32.3485 185.324H36.7071C37.4113 185.324 37.7634 185.324 38.0323 185.186C38.2689 185.066 38.4612 184.874 38.5818 184.637C38.7188 184.368 38.7188 184.016 38.7188 183.312V179.791C38.7188 179.087 38.7188 178.735 38.5818 178.466C38.4612 178.23 38.2689 178.037 38.0323 177.917C37.7634 177.78 37.4113 177.78 36.7071 177.78H32.3485C31.6444 177.78 31.2923 177.78 31.0233 177.917C30.7868 178.037 30.5944 178.23 30.4739 178.466C30.3369 178.735 30.3369 179.087 30.3369 179.791V183.312C30.3369 184.016 30.3369 184.368 30.4739 184.637C30.5944 184.874 30.7868 185.066 31.0233 185.186C31.2923 185.324 31.6444 185.324 32.3485 185.324Z" stroke="white" stroke-width="0.838194" stroke-linecap="round" stroke-linejoin="round"/>
</g>
<path d="M56.4161 178.236V185.552H55.5303V178.236H56.4161ZM58.0367 185.552V180.065H58.8511V180.922H58.9225C59.0368 180.63 59.2213 180.402 59.4761 180.24C59.7309 180.076 60.0369 179.994 60.3941 179.994C60.756 179.994 61.0573 180.076 61.2978 180.24C61.5407 180.402 61.73 180.63 61.8657 180.922H61.9228C62.0633 180.639 62.2741 180.414 62.5551 180.247C62.8361 180.078 63.173 179.994 63.5659 179.994C64.0564 179.994 64.4577 180.147 64.7696 180.454C65.0816 180.759 65.2375 181.234 65.2375 181.88V185.552H64.3946V181.88C64.3946 181.475 64.2838 181.186 64.0624 181.012C63.8409 180.838 63.5802 180.751 63.2802 180.751C62.8944 180.751 62.5955 180.868 62.3836 181.101C62.1717 181.332 62.0657 181.625 62.0657 181.98V185.552H61.2085V181.794C61.2085 181.482 61.1073 181.231 60.9049 181.04C60.7025 180.847 60.4417 180.751 60.1226 180.751C59.9036 180.751 59.6988 180.809 59.5083 180.926C59.3202 181.043 59.1678 181.205 59.0511 181.412C58.9368 181.617 58.8796 181.853 58.8796 182.123V185.552H58.0367ZM68.352 185.68C68.0044 185.68 67.6888 185.615 67.4055 185.484C67.1221 185.35 66.8971 185.159 66.7304 184.909C66.5637 184.656 66.4804 184.351 66.4804 183.994C66.4804 183.68 66.5423 183.425 66.6661 183.23C66.7899 183.032 66.9554 182.877 67.1626 182.765C67.3698 182.654 67.5984 182.57 67.8484 182.515C68.1008 182.458 68.3544 182.413 68.6092 182.38C68.9426 182.337 69.2128 182.305 69.42 182.283C69.6295 182.259 69.7819 182.22 69.8772 182.165C69.9748 182.111 70.0236 182.015 70.0236 181.88V181.851C70.0236 181.499 69.9272 181.225 69.7343 181.03C69.5438 180.834 69.2545 180.737 68.8664 180.737C68.4639 180.737 68.1484 180.825 67.9198 181.001C67.6912 181.177 67.5305 181.365 67.4376 181.565L66.6375 181.28C66.7804 180.946 66.9709 180.687 67.209 180.501C67.4495 180.313 67.7115 180.182 67.9948 180.108C68.2806 180.032 68.5616 179.994 68.8378 179.994C69.014 179.994 69.2164 180.015 69.445 180.058C69.676 180.098 69.8986 180.183 70.1129 180.312C70.3296 180.44 70.5094 180.634 70.6523 180.894C70.7952 181.153 70.8666 181.501 70.8666 181.937V185.552H70.0236V184.809H69.9808C69.9236 184.928 69.8284 185.055 69.695 185.191C69.5617 185.326 69.3843 185.442 69.1628 185.537C68.9414 185.632 68.6711 185.68 68.352 185.68ZM68.4806 184.923C68.814 184.923 69.095 184.857 69.3236 184.726C69.5545 184.595 69.7284 184.426 69.8451 184.219C69.9641 184.012 70.0236 183.794 70.0236 183.566V182.794C69.9879 182.837 69.9093 182.876 69.7879 182.912C69.6688 182.945 69.5307 182.975 69.3736 183.001C69.2188 183.025 69.0676 183.046 68.9199 183.066C68.7747 183.082 68.6568 183.096 68.5663 183.108C68.3473 183.137 68.1425 183.183 67.952 183.248C67.7639 183.31 67.6115 183.404 67.4948 183.53C67.3805 183.654 67.3233 183.823 67.3233 184.037C67.3233 184.33 67.4317 184.551 67.6484 184.701C67.8674 184.849 68.1448 184.923 68.4806 184.923ZM74.5785 187.723C74.1713 187.723 73.8213 187.671 73.5284 187.566C73.2355 187.464 72.9914 187.328 72.7961 187.159C72.6033 186.992 72.4497 186.814 72.3354 186.623L73.0069 186.152C73.0831 186.252 73.1795 186.366 73.2962 186.494C73.4129 186.625 73.5724 186.739 73.7748 186.834C73.9796 186.931 74.2475 186.98 74.5785 186.98C75.0214 186.98 75.3869 186.873 75.675 186.659C75.9632 186.444 76.1072 186.109 76.1072 185.652V184.537H76.0358C75.9739 184.637 75.8858 184.761 75.7715 184.909C75.6596 185.054 75.4976 185.184 75.2857 185.298C75.0762 185.41 74.7928 185.466 74.4356 185.466C73.9927 185.466 73.595 185.361 73.2426 185.151C72.8926 184.942 72.6152 184.637 72.4104 184.237C72.208 183.837 72.1068 183.351 72.1068 182.78C72.1068 182.218 72.2056 181.728 72.4032 181.312C72.6009 180.893 72.8759 180.569 73.2283 180.34C73.5807 180.109 73.9879 179.994 74.4499 179.994C74.8071 179.994 75.0904 180.053 75.3 180.172C75.5119 180.289 75.6739 180.422 75.7858 180.572C75.9001 180.72 75.9882 180.841 76.0501 180.937H76.1358V180.065H76.9502V185.709C76.9502 186.18 76.843 186.564 76.6287 186.859C76.4168 187.156 76.131 187.374 75.7715 187.512C75.4143 187.653 75.0166 187.723 74.5785 187.723ZM74.5499 184.709C74.888 184.709 75.1738 184.631 75.4072 184.476C75.6405 184.322 75.8179 184.099 75.9394 183.808C76.0608 183.518 76.1215 183.17 76.1215 182.765C76.1215 182.37 76.062 182.021 75.9429 181.719C75.8239 181.417 75.6477 181.18 75.4143 181.008C75.1809 180.837 74.8928 180.751 74.5499 180.751C74.1927 180.751 73.8951 180.841 73.6569 181.022C73.4212 181.203 73.2438 181.446 73.1247 181.751C73.0081 182.056 72.9497 182.394 72.9497 182.765C72.9497 183.146 73.0093 183.483 73.1283 183.776C73.2498 184.067 73.4283 184.295 73.6641 184.462C73.9022 184.626 74.1975 184.709 74.5499 184.709ZM80.7523 185.666C80.2236 185.666 79.7676 185.549 79.3842 185.316C79.0032 185.08 78.7092 184.751 78.502 184.33C78.2972 183.906 78.1948 183.413 78.1948 182.851C78.1948 182.289 78.2972 181.794 78.502 181.365C78.7092 180.934 78.9973 180.599 79.3664 180.358C79.7379 180.115 80.1712 179.994 80.6665 179.994C80.9523 179.994 81.2345 180.041 81.5131 180.137C81.7917 180.232 82.0453 180.387 82.2739 180.601C82.5025 180.813 82.6846 181.094 82.8204 181.444C82.9561 181.794 83.024 182.225 83.024 182.737V183.094H78.7949V182.365H82.1667C82.1667 182.056 82.1048 181.78 81.981 181.537C81.8595 181.294 81.6857 181.102 81.4595 180.962C81.2357 180.821 80.9713 180.751 80.6665 180.751C80.3308 180.751 80.0403 180.834 79.795 181.001C79.5521 181.165 79.3652 181.38 79.2342 181.644C79.1033 181.908 79.0378 182.192 79.0378 182.494V182.98C79.0378 183.394 79.1092 183.745 79.2521 184.033C79.3973 184.319 79.5986 184.537 79.8557 184.687C80.1129 184.835 80.4117 184.909 80.7523 184.909C80.9737 184.909 81.1737 184.878 81.3523 184.816C81.5333 184.751 81.6893 184.656 81.8202 184.53C81.9512 184.401 82.0524 184.242 82.1239 184.051L82.9382 184.28C82.8525 184.556 82.7084 184.799 82.506 185.009C82.3036 185.216 82.0536 185.378 81.756 185.494C81.4583 185.609 81.1237 185.666 80.7523 185.666Z" fill="white"/>
<g filter="url(#filter4_f_1_591)">
<ellipse cx="101.5" cy="149.369" rx="87.5" ry="88" fill="#90D2FF" fill-opacity="0.08"/>
</g>
</g>
</g>
<defs>
<filter id="filter0_i_1_591" x="11.0583" y="11.0583" width="49" height="28" filterUnits="userSpaceOnUse" color-interpolation-filters="sRGB">
<feFlood flood-opacity="0" result="BackgroundImageFix"/>
<feBlend mode="normal" in="SourceGraphic" in2="BackgroundImageFix" result="shape"/>
<feColorMatrix in="SourceAlpha" type="matrix" values="0 0 0 0 0 0 0 0 0 0 0 0 0 0 0 0 0 0 127 0" result="hardAlpha"/>
<feOffset/>
<feGaussianBlur stdDeviation="2"/>
<feComposite in2="hardAlpha" operator="arithmetic" k2="-1" k3="1"/>
<feColorMatrix type="matrix" values="0 0 0 0 0.576667 0 0 0 0 0.576667 0 0 0 0 0.576667 0 0 0 0.24 0"/>
<feBlend mode="normal" in2="shape" result="effect1_innerShadow_1_591"/>
</filter>
<filter id="filter1_i_1_591" x="11.0583" y="55.8223" width="181.05" height="30.175" filterUnits="userSpaceOnUse" color-interpolation-filters="sRGB">
<feFlood flood-opacity="0" result="BackgroundImageFix"/>
<feBlend mode="normal" in="SourceGraphic" in2="BackgroundImageFix" result="shape"/>
<feColorMatrix in="SourceAlpha" type="matrix" values="0 0 0 0 0 0 0 0 0 0 0 0 0 0 0 0 0 0 127 0" result="hardAlpha"/>
<feOffset/>
<feGaussianBlur stdDeviation="4"/>
<feComposite in2="hardAlpha" operator="arithmetic" k2="-1" k3="1"/>
<feColorMatrix type="matrix" values="0 0 0 0 0.287083 0 0 0 0 0.287083 0 0 0 0 0.287083 0 0 0 0.4 0"/>
<feBlend mode="normal" in2="shape" result="effect1_innerShadow_1_591"/>
</filter>
<filter id="filter2_f_1_591" x="-60" y="-90.6313" width="323" height="324" filterUnits="userSpaceOnUse" color-interpolation-filters="sRGB">
<feFlood flood-opacity="0" result="BackgroundImageFix"/>
<feBlend mode="normal" in="SourceGraphic" in2="BackgroundImageFix" result="shape"/>
<feGaussianBlur stdDeviation="60" result="effect1_foregroundBlur_1_591"/>
</filter>
<filter id="filter3_i_1_591" x="11.0583" y="106.114" width="181.05" height="93.8777" filterUnits="userSpaceOnUse" color-interpolation-filters="sRGB">
<feFlood flood-opacity="0" result="BackgroundImageFix"/>
<feBlend mode="normal" in="SourceGraphic" in2="BackgroundImageFix" result="shape"/>
<feColorMatrix in="SourceAlpha" type="matrix" values="0 0 0 0 0 0 0 0 0 0 0 0 0 0 0 0 0 0 127 0" result="hardAlpha"/>
<feOffset/>
<feGaussianBlur stdDeviation="4"/>
<feComposite in2="hardAlpha" operator="arithmetic" k2="-1" k3="1"/>
<feColorMatrix type="matrix" values="0 0 0 0 0.18 0 0 0 0 0.18 0 0 0 0 0.18 0 0 0 0.68 0"/>
<feBlend mode="normal" in2="shape" result="effect1_innerShadow_1_591"/>
</filter>
<filter id="filter4_f_1_591" x="-106" y="-58.6311" width="415" height="416" filterUnits="userSpaceOnUse" color-interpolation-filters="sRGB">
<feFlood flood-opacity="0" result="BackgroundImageFix"/>
<feBlend mode="normal" in="SourceGraphic" in2="BackgroundImageFix" result="shape"/>
<feGaussianBlur stdDeviation="60" result="effect1_foregroundBlur_1_591"/>
</filter>
<linearGradient id="paint0_linear_1_591" x1="6.5" y1="1" x2="165.5" y2="611" gradientUnits="userSpaceOnUse">
<stop stop-color="#0A0A0A"/>
<stop offset="0.289" stop-color="#10131D"/>
<stop offset="1" stop-color="#010101"/>
</linearGradient>
<linearGradient id="paint1_linear_1_591" x1="-114.226" y1="151.795" x2="231.5" y2="611" gradientUnits="userSpaceOnUse">
<stop offset="0.204" stop-color="#192235"/>
<stop offset="0.369" stop-color="#0059FF"/>
<stop offset="0.494" stop-color="#6FADFF"/>
<stop offset="0.614" stop-color="#0059FF"/>
<stop offset="0.774" stop-color="#192235"/>
</linearGradient>
<radialGradient id="paint2_radial_1_591" cx="0" cy="0" r="1" gradientUnits="userSpaceOnUse" gradientTransform="translate(35.5583 25.0583) rotate(90) scale(14 24.5)">
<stop stop-color="#5E5D5D"/>
<stop offset="1" stop-color="#3C3C3C"/>
</radialGradient>
<radialGradient id="paint3_radial_1_591" cx="0" cy="0" r="1" gradientUnits="userSpaceOnUse" gradientTransform="translate(94.5 71.3688) scale(114.5 28.2062)">
<stop stop-color="#262626"/>
<stop offset="1" stop-color="#191919"/>
</radialGradient>
<radialGradient id="paint4_radial_1_591" cx="0" cy="0" r="1" gradientUnits="userSpaceOnUse" gradientTransform="translate(101.583 153.053) rotate(89.5761) scale(56.3175 108.612)">
<stop stop-color="#262626"/>
<stop offset="1" stop-color="#191919"/>
</radialGradient>
<linearGradient id="paint5_linear_1_591" x1="21.1167" y1="124.554" x2="182.05" y2="124.554" gradientUnits="userSpaceOnUse">
<stop stop-color="#323232"/>
<stop offset="1" stop-color="#323232" stop-opacity="0.5"/>
</linearGradient>
<clipPath id="clip0_1_591">
<rect x="11.0583" y="55.8223" width="181.05" height="30.175" rx="6.70556" fill="white"/>
</clipPath>
<clipPath id="clip1_1_591">
<rect x="11.0583" y="106.114" width="181.05" height="93.8778" rx="6.70556" fill="white"/>
</clipPath>
<clipPath id="clip2_1_591">
<rect width="10.0583" height="10.0583" fill="white" transform="translate(29.4987 176.522)"/>
</clipPath>
</defs>
</svg>
